0
SECTION
2
HEADER
9
$INSUNITS
70
4
9
$ACADVER
1
AC1014
9
$HANDSEED
5
FFFF
0
ENDSEC
0
SECTION
2
TABLES
0
TABLE
2
VPORT
5
8
100
AcDbSymbolTable
0
ENDTAB
0
TABLE
2
LTYPE
5
5
100
AcDbSymbolTable
0
LTYPE
5
14
100
AcDbSymbolTableRecord
100
AcDbLinetypeTableRecord
2
BYBLOCK
70
0
0
LTYPE
5
15
100
AcDbSymbolTableRecord
100
AcDbLinetypeTableRecord
2
BYLAYER
70
0
0
ENDTAB
0
TABLE
2
LAYER
5
2
100
AcDbSymbolTable
70
2
0
LAYER
5
50
100
AcDbSymbolTableRecord
100
AcDbLayerTableRecord
2
0
70
0
6
CONTINUOUS
0
ENDTAB
0
TABLE
2
STYLE
5
3
100
AcDbSymbolTable
70
1
0
STYLE
5
11
100
AcDbSymbolTableRecord
100
AcDbTextStyleTableRecord
2
STANDARD
70
0
0
ENDTAB
0
TABLE
2
VIEW
5
6
100
AcDbSymbolTable
70
0
0
ENDTAB
0
TABLE
2
UCS
5
7
100
AcDbSymbolTable
70
0
0
ENDTAB
0
TABLE
2
APPID
5
9
100
AcDbSymbolTable
70
2
0
APPID
5
12
100
AcDbSymbolTableRecord
100
AcDbRegAppTableRecord
2
ACAD
70
0
0
ENDTAB
0
TABLE
2
DIMSTYLE
5
A
100
AcDbSymbolTable
70
1
0
ENDTAB
0
TABLE
2
BLOCK_RECORD
5
1
100
AcDbSymbolTable
70
1
0
BLOCK_RECORD
5
1F
100
AcDbSymbolTableRecord
100
AcDbBlockTableRecord
2
*MODEL_SPACE
0
BLOCK_RECORD
5
1B
100
AcDbSymbolTableRecord
100
AcDbBlockTableRecord
2
*PAPER_SPACE
0
ENDTAB
0
ENDSEC
0
SECTION
2
BLOCKS
0
BLOCK
5
20
100
AcDbEntity
100
AcDbBlockBegin
2
*MODEL_SPACE
0
ENDBLK
5
21
100
AcDbEntity
100
AcDbBlockEnd
0
BLOCK
5
1C
100
AcDbEntity
100
AcDbBlockBegin
2
*PAPER_SPACE
0
ENDBLK
5
1D
100
AcDbEntity
100
AcDbBlockEnd
0
ENDSEC
0
SECTION
2
ENTITIES
0
LWPOLYLINE
5
100
100
AcDbEntity
8
0
100
AcDbPolyline
90
4
70
1
43
0.0
10
143.6954838210315
20
-20.756903447665071
42
0.18949546288701977
10
143.95418142390491
20
-21.015601050538379
42
-1.4675987714115777
10
141.9141186704399
20
-23.055663804003018
42
0.1894954628865749
10
141.65542106756652
20
-22.796966201130047
42
-1.4675987714093901
0
LWPOLYLINE
5
101
100
AcDbEntity
8
0
100
AcDbPolyline
90
30
70
1
43
0.0
10
138.53876373641137
20
-41.764395238691215
42
0.14498302280177686
10
123.82766456874272
20
-35.649568034671809
42
0.026499738705978413
10
122.76990549841948
20
-35.593467961217172
10
21.548897563064244
20
-35.593467961217073
42
-0.17786859946679712
10
18.95947261698776
20
-34.642218270546415
42
-0.46267319747600633
10
18.959472616987728
20
-21.544717651887829
42
-0.17786859946679712
10
21.548897563064244
20
-20.593467961217211
10
122.76990549841948
20
-20.593467961217208
42
0.026499738706011744
10
123.82766456874272
20
-20.53736788776262
42
0.14498302280177641
10
138.53876373641137
20
-14.422540683743295
42
-0.023924779286556692
10
139.82430148436273
20
-13.507175357736582
42
-0.35163889639392348
10
145.42605825290258
20
-14.099468622715481
10
146.92547353463067
20
-15.587567604070358
42
0.11737104688027225
10
148.11139264440578
20
-16.311299376971661
42
0.28190029638586472
10
151.71469746600843
20
-15.447532707629161
10
153.60999139480992
20
-13.5541873366067
42
-0.32202663924068614
10
158.79324957582531
20
-12.708122475040128
42
-0.16365597488406264
10
164.4266588162821
20
-18.345080248996396
42
-0.32208896090468714
10
163.57661132464165
20
-23.528523145097839
10
159.76907734429852
20
-27.333459335127106
42
0.4144134788016986
10
159.76907734429852
20
-28.853476587307387
10
163.57661132464165
20
-32.658412777336764
42
-0.32208896090469369
10
164.42665881628216
20
-37.841855673438182
42
-0.16365597488406675
10
158.79324957582543
20
-43.478813447394423
42
-0.32202663924069697
10
153.60999139480947
20
-42.632748585827756
10
151.71469746600843
20
-40.739403214805222
42
0.28190029638586195
10
148.11139264440578
20
-39.875636545462719
42
0.11737104688023173
10
146.92547353463061
20
-40.599368318364043
10
145.42605825290258
20
-42.08746729971898
42
-0.35163889639393731
10
139.82430148436271
20
-42.679760564697943
42
-0.023924779286566025
0
LWPOLYLINE
5
102
100
AcDbEntity
8
0
100
AcDbPolyline
90
4
70
1
43
0.0
10
156.06985249179783
20
-33.131272118431355
42
0.1894954628863158
10
156.32855009467113
20
-33.389969721304411
42
-1.4675987714093881
10
154.28848734120626
20
-35.430032474769419
42
0.18949546288674937
10
154.02978973833322
20
-35.171334871895908
42
-1.4675987714115311
0
CIRCLE
5
103
100
AcDbEntity
8
0
100
AcDbCircle
10
148.99198558111885
20
-28.093467961217176
30
0
40
3.5000000000000009
0
LWPOLYLINE
5
104
100
AcDbEntity
8
0
100
AcDbPolyline
90
4
70
1
43
0.0
10
156.32855009467121
20
-22.796966201130179
42
0.18949546288700345
10
156.06985249179792
20
-23.05566380400316
42
-1.4675987714115486
10
154.02978973833319
20
-21.015601050538418
42
0.18949546288678884
10
154.28848734120618
20
-20.756903447665064
42
-1.4675987714093901
0
LWPOLYLINE
5
105
100
AcDbEntity
8
0
100
AcDbPolyline
90
4
70
1
43
0.0
10
143.6954838210315
20
-35.430032474769405
42
-1.4675987714093612
10
141.65542106756652
20
-33.389969721304396
42
0.18949546288649877
10
141.91411867043993
20
-33.131272118431411
42
-1.4675987714117418
10
143.95418142390486
20
-35.171334871896001
42
0.18949546288693189
0
LWPOLYLINE
5
106
100
AcDbEntity
8
0
100
AcDbPolyline
90
4
70
1
43
0.0
10
156.06985249179803
20
23.055663804003174
42
1.4675987714114966
10
154.02978973833314
20
21.015601050538471
42
-0.18949546288680655
10
154.28848734120618
20
20.756903447665014
42
1.4675987714093612
10
156.32855009467119
20
22.796966201130132
42
-0.18949546288647243
0
LWPOLYLINE
5
107
100
AcDbEntity
8
0
100
AcDbPolyline
90
30
70
1
43
0.0
10
138.5387637364114
20
14.422540683743271
42
0.023924779286555804
10
139.82430148436273
20
13.507175357736582
42
0.35163889639392348
10
145.42605825290258
20
14.099468622715481
10
146.92547353463067
20
15.587567604070358
42
-0.11737104688027225
10
148.11139264440578
20
16.311299376971661
42
-0.28190029638586472
10
151.71469746600843
20
15.447532707629161
10
153.6099913948099
20
13.554187336606677
42
0.3220266392406852
10
158.79324957582534
20
12.708122475040064
42
0.16365597488406491
10
164.4266588162821
20
18.345080248996318
42
0.32208896090474209
10
163.57661132464165
20
23.528523145097839
10
159.76907734429847
20
27.333459335127053
42
-0.41441347880148627
10
159.76907734429852
20
28.853476587307387
10
163.57661132464165
20
32.658412777336764
42
0.32208896090469369
10
164.42665881628213
20
37.841855673438161
42
0.16365597488406788
10
158.79324957582531
20
43.478813447394423
42
0.32202663924068137
10
153.60999139480947
20
42.632748585827741
10
151.71469746600843
20
40.739403214805236
42
-0.28190029638586472
10
148.11139264440578
20
39.875636545462726
42
-0.11737104688023049
10
146.92547353463061
20
40.599368318364043
10
145.42605825290258
20
42.087467299718988
42
0.35163889639393459
10
139.82430148436271
20
42.679760564697915
42
0.023924779286556137
10
138.53876373641137
20
41.764395238691193
42
-0.14498302280177697
10
123.82766456874272
20
35.649568034671773
42
-0.026499738706011966
10
122.76990549841948
20
35.593467961217172
10
21.548897563064244
20
35.593467961217122
42
0.17786859946679265
10
18.959472616987743
20
34.642218270546508
42
0.46267319747598579
10
18.959472616987728
20
21.544717651887794
42
0.17786859946679712
10
21.548897563064244
20
20.593467961217176
10
122.76990549841948
20
20.593467961217172
42
-0.026499738706011966
10
123.82766456874272
20
20.537367887762613
42
-0.14498302280177233
0
LWPOLYLINE
5
108
100
AcDbEntity
8
0
100
AcDbPolyline
90
4
70
1
43
0.0
10
141.65542106756652
20
22.796966201130072
42
1.4675987714093803
10
143.69548382103159
20
20.756903447665
42
-0.18949546288693858
10
143.95418142390491
20
21.015601050538315
42
1.467598771411575
10
141.91411867043988
20
23.055663804003032
42
-0.18949546288656755
0
LWPOLYLINE
5
109
100
AcDbEntity
8
0
100
AcDbPolyline
90
4
70
1
43
0.0
10
154.28848734120626
20
35.430032474769384
42
-0.18949546288674937
10
154.02978973833322
20
35.171334871895873
42
1.4675987714115311
10
156.06985249179783
20
33.131272118431305
42
-0.18949546288640148
10
156.32855009467116
20
33.38996972130434
42
1.4675987714093643
0
CIRCLE
5
110
100
AcDbEntity
8
0
100
AcDbCircle
10
148.99198558111885
20
28.093467961217176
30
0
40
3.5000000000000009
0
LWPOLYLINE
5
111
100
AcDbEntity
8
0
100
AcDbPolyline
90
30
70
1
43
0.0
10
-18.959472616987743
20
-34.642218270546472
42
0.46267319747601643
10
-18.959472616987728
20
-21.544717651887758
42
0.17786859946681294
10
-21.548897563064386
20
-20.593467961217211
10
-122.76990549841948
20
-20.593467961217208
42
-0.026499738706025851
10
-123.82766456874272
20
-20.537367887762578
42
-0.14498302280177233
10
-138.53876373641128
20
-14.422540683743097
42
0.023924779286555582
10
-139.82430148436259
20
-13.507175357736422
42
0.35163889639392504
10
-145.42605825290258
20
-14.099468622715445
10
-146.92547353463067
20
-15.587567604070315
42
-0.11737104688020979
10
-148.11139264440578
20
-16.311299376971625
42
-0.28190029638586472
10
-151.71469746600843
20
-15.447532707629126
10
-153.60999139481001
20
-13.554187336606571
42
0.32202663924068753
10
-158.79324957582531
20
-12.708122475040071
42
0.16365597488406697
10
-164.42665881628204
20
-18.345080248996407
42
0.32208896090468564
10
-163.57661132464165
20
-23.528523145097804
10
-159.76907734429852
20
-27.33345933512707
42
-0.41441347880164381
10
-159.76907734429852
20
-28.853476587307352
10
-163.57661132464165
20
-32.658412777336729
42
0.32208896090469369
10
-164.4266588162821
20
-37.841855673438097
42
0.16365597488406605
10
-158.79324957582531
20
-43.478813447394401
42
0.32202663924067226
10
-153.60999139480947
20
-42.632748585827741
10
-151.71469746600843
20
-40.739403214805193
42
-0.28190029638586067
10
-148.11139264440578
20
-39.875636545462683
42
-0.11737104688025356
10
-146.92547353463061
20
-40.599368318364014
10
-145.42605825290246
20
-42.087467299718867
42
0.35163889639393259
10
-139.82430148436268
20
-42.679760564697908
42
0.023924779286565691
10
-138.53876373641134
20
-41.764395238691208
42
-0.14498302280177675
10
-123.82766456874272
20
-35.649568034671809
42
-0.026499738705992523
10
-122.76990549841948
20
-35.593467961217172
10
-21.548897563064244
20
-35.593467961217101
42
0.17786859946679565
0
LWPOLYLINE
5
112
100
AcDbEntity
8
0
100
AcDbPolyline
90
4
70
1
43
0.0
10
-27.229541371898378
20
26.643467961217144
10
-34.429541371898083
20
26.643467961217109
42
-0.99999999999999989
10
-34.429541371898083
20
29.5434679612171
10
-27.229541371898378
20
29.543467961217065
42
-0.99999999999999989
0
LWPOLYLINE
5
113
100
AcDbEntity
8
0
100
AcDbPolyline
90
4
70
1
43
0.0
10
-34.429541371898083
20
-26.643467961217144
42
0.99999999999999989
10
-34.429541371898083
20
-29.543467961217136
10
-27.229541371898378
20
-29.543467961217136
42
0.99999999999999989
10
-27.229541371898378
20
-26.643467961217144
0
LWPOLYLINE
5
114
100
AcDbEntity
8
0
100
AcDbPolyline
90
4
70
1
43
0.0
10
27.229541371898662
20
-29.543467961217136
42
-0.99999999999999989
10
27.229541371898378
20
-26.643467961217144
10
34.429541371897798
20
-26.643467961217144
42
-0.99999999999999989
10
34.429541371898083
20
-29.543467961217136
0
LWPOLYLINE
5
115
100
AcDbEntity
8
0
100
AcDbPolyline
90
4
70
1
43
0.0
10
34.429541371897798
20
26.643467961217109
42
0.99999999999999989
10
34.429541371898083
20
29.5434679612171
10
27.229541371898662
20
29.543467961217065
42
0.99999999999999989
10
27.229541371898378
20
26.643467961217144
0
CIRCLE
5
116
100
AcDbEntity
8
0
100
AcDbCircle
10
41.32954137189806
20
-28.09346796121714
30
0
40
1.4499999999999997
0
CIRCLE
5
117
100
AcDbEntity
8
0
100
AcDbCircle
10
-41.32954137189806
20
28.093467961217105
30
0
40
1.4499999999999997
0
CIRCLE
5
118
100
AcDbEntity
8
0
100
AcDbCircle
10
20.329541371898401
20
-28.093467961217069
30
0
40
1.4499999999999997
0
CIRCLE
5
119
100
AcDbEntity
8
0
100
AcDbCircle
10
41.32954137189806
20
28.093467961217105
30
0
40
1.4499999999999997
0
CIRCLE
5
120
100
AcDbEntity
8
0
100
AcDbCircle
10
20.329541371898401
20
28.093467961217069
30
0
40
1.4499999999999997
0
LWPOLYLINE
5
121
100
AcDbEntity
8
0
100
AcDbPolyline
90
4
70
1
43
0.0
10
-143.95418142390491
20
35.17133487189615
42
0.18949546288659264
10
-143.6954838210317
20
35.430032474769448
42
-1.4675987714093972
10
-141.65542106756675
20
33.389969721304588
42
0.18949546288668703
10
-141.91411867044002
20
33.131272118431397
42
-1.4675987714116656
0
LWPOLYLINE
5
122
100
AcDbEntity
8
0
100
AcDbPolyline
90
4
70
1
43
0.0
10
-141.91411867043985
20
23.055663804003075
42
0.18949546288684288
10
-141.65542106756669
20
22.796966201130108
42
-1.4675987714093803
10
-143.6954838210317
20
20.756903447665039
42
0.18949546288667105
10
-143.95418142390491
20
21.015601050538351
42
-1.467598771411575
0
LWPOLYLINE
5
123
100
AcDbEntity
8
0
100
AcDbPolyline
90
4
70
1
43
0.0
10
-156.32855009467119
20
-22.796966201130104
42
-0.18949546288629371
10
-156.06985249179786
20
-23.055663804003032
42
1.467598771411615
10
-154.02978973833336
20
-21.015601050538297
42
-0.18949546288707797
10
-154.28848734120618
20
-20.756903447665028
42
1.4675987714093901
0
LWPOLYLINE
5
124
100
AcDbEntity
8
0
100
AcDbPolyline
90
4
70
1
43
0.0
10
-154.02978973833336
20
-35.171334871896079
42
1.4675987714115621
10
-156.06985249179775
20
-33.131272118431347
42
-0.18949546288642999
10
-156.32855009467113
20
-33.389969721304375
42
1.4675987714093881
10
-154.28848734120612
20
-35.430032474769455
42
-0.18949546288621666
0
LWPOLYLINE
5
125
100
AcDbEntity
8
0
100
AcDbPolyline
90
30
70
1
43
0.0
10
-123.82766456874272
20
35.649568034671773
42
0.026499738706026184
10
-122.76990549841948
20
35.593467961217172
10
-21.548897563064244
20
35.593467961217122
42
-0.17786859946679265
10
-18.959472616987728
20
34.642218270546522
42
-0.46267319747598668
10
-18.959472616987721
20
21.544717651887751
42
-0.17786859946676198
10
-21.548897563064386
20
20.593467961217176
10
-122.76990549841948
20
20.593467961217172
42
0.026499738706026406
10
-123.82766456874272
20
20.537367887762635
42
0.14498302280177211
10
-138.53876373641128
20
14.42254068374316
42
-0.023924779286554915
10
-139.82430148436259
20
13.507175357736493
42
-0.35163889639392504
10
-145.42605825290258
20
14.099468622715516
10
-146.92547353463067
20
15.587567604070394
42
0.11737104688020877
10
-148.11139264440578
20
16.311299376971697
42
0.28190029638586472
10
-151.71469746600843
20
15.447532707629197
10
-153.60999139480992
20
13.554187336606695
42
-0.32202663924069519
10
-158.79324957582531
20
12.708122475040064
42
-0.16365597488406855
10
-164.42665881628213
20
18.345080248996357
42
-0.32208896090469064
10
-163.57661132464165
20
23.528523145097875
10
-159.76907734429847
20
27.333459335127088
42
0.41441347880148627
10
-159.76907734429852
20
28.853476587307423
10
-163.5766113246417
20
32.658412777336771
42
-0.32208896090469413
10
-164.42665881628204
20
37.841855673438168
42
-0.16365597488406558
10
-158.79324957582531
20
43.478813447394423
42
-0.32202663924066977
10
-153.60999139480947
20
42.63274858582777
10
-151.71469746600843
20
40.739403214805272
42
0.28190029638586472
10
-148.11139264440578
20
39.875636545462754
42
0.11737104688025413
10
-146.92547353463061
20
40.599368318364085
10
-145.42605825290246
20
42.087467299718909
42
-0.35163889639393175
10
-139.82430148436271
20
42.679760564697958
42
-0.023924779286555804
10
-138.5387637364114
20
41.764395238691201
42
0.14498302280177719
0
LWPOLYLINE
5
126
100
AcDbEntity
8
0
100
AcDbPolyline
90
4
70
1
43
0.0
10
-156.32855009467116
20
33.389969721304375
42
-1.4675987714093643
10
-154.28848734120612
20
35.43003247476949
42
0.18949546288621666
10
-154.02978973833342
20
35.171334871895979
42
-1.4675987714115499
10
-156.06985249179777
20
33.131272118431355
42
0.18949546288713753
0
LWPOLYLINE
5
127
100
AcDbEntity
8
0
100
AcDbPolyline
90
4
70
1
43
0.0
10
-156.32855009467119
20
22.796966201130196
42
0.18949546288625782
10
-156.06985249179786
20
23.055663804003068
42
-1.467598771411615
10
-154.02978973833339
20
21.015601050538464
42
0.18949546288701424
10
-154.28848734120618
20
20.756903447665049
42
-1.4675987714093612
0
CIRCLE
5
128
100
AcDbEntity
8
0
100
AcDbCircle
10
-148.99198558111885
20
28.093467961217211
30
0
40
3.5000000000000009
0
CIRCLE
5
129
100
AcDbEntity
8
0
100
AcDbCircle
10
-20.329541371898401
20
28.093467961217069
30
0
40
1.4499999999999997
0
CIRCLE
5
130
100
AcDbEntity
8
0
100
AcDbCircle
10
-20.329541371898401
20
-28.093467961217069
30
0
40
1.4499999999999997
0
CIRCLE
5
131
100
AcDbEntity
8
0
100
AcDbCircle
10
-41.32954137189806
20
-28.09346796121714
30
0
40
1.4499999999999997
0
LWPOLYLINE
5
132
100
AcDbEntity
8
0
100
AcDbPolyline
90
4
70
1
43
0.0
10
-143.69548382103164
20
-35.430032474769376
42
1.4675987714093612
10
-141.65542106756669
20
-33.389969721304354
42
-0.18949546288661218
10
-141.9141186704399
20
-33.131272118431362
42
1.4675987714117491
10
-143.95418142390483
20
-35.171334871895972
42
-0.18949546288665714
0
LWPOLYLINE
5
133
100
AcDbEntity
8
0
100
AcDbPolyline
90
4
70
1
43
0.0
10
-141.65542106756669
20
-22.796966201130012
42
1.4675987714093901
10
-143.6954838210317
20
-20.756903447665003
42
-0.18949546288671429
10
-143.95418142390491
20
-21.015601050538343
42
1.4675987714115777
10
-141.91411867043988
20
-23.05566380400299
42
-0.18949546288685024
0
CIRCLE
5
134
100
AcDbEntity
8
0
100
AcDbCircle
10
-148.99198558111885
20
-28.09346796121714
30
0
40
3.5000000000000009
0
LWPOLYLINE
5
135
100
AcDbEntity
8
0
100
AcDbPolyline
90
4
70
1
43
0.0
10
143.69548382103153
20
35.430032474769405
42
1.4675987714093972
10
141.65542106756658
20
33.389969721304531
42
-0.18949546288702115
10
141.91411867043999
20
33.131272118431347
42
1.4675987714116727
10
143.95418142390491
20
35.171334871896114
42
-0.18949546288685276
0
ENDSEC
0
SECTION
2
OBJECTS
0
DICTIONARY
5
C
100
AcDbDictionary
3
ACAD_GROUP
350
D
3
ACAD_MLINESTYLE
350
17
0
DICTIONARY
5
D
100
AcDbDictionary
0
DICTIONARY
5
1A
330
C
100
AcDbDictionary
0
DICTIONARY
5
17
100
AcDbDictionary
0
ENDSEC
0
EOF
