0
SECTION
2
HEADER
9
$INSUNITS
70
4
9
$ACADVER
1
AC1014
9
$HANDSEED
5
FFFF
0
ENDSEC
0
SECTION
2
TABLES
0
TABLE
2
VPORT
5
8
100
AcDbSymbolTable
0
ENDTAB
0
TABLE
2
LTYPE
5
5
100
AcDbSymbolTable
0
LTYPE
5
14
100
AcDbSymbolTableRecord
100
AcDbLinetypeTableRecord
2
BYBLOCK
70
0
0
LTYPE
5
15
100
AcDbSymbolTableRecord
100
AcDbLinetypeTableRecord
2
BYLAYER
70
0
0
ENDTAB
0
TABLE
2
LAYER
5
2
100
AcDbSymbolTable
70
2
0
LAYER
5
50
100
AcDbSymbolTableRecord
100
AcDbLayerTableRecord
2
0
70
0
6
CONTINUOUS
0
ENDTAB
0
TABLE
2
STYLE
5
3
100
AcDbSymbolTable
70
1
0
STYLE
5
11
100
AcDbSymbolTableRecord
100
AcDbTextStyleTableRecord
2
STANDARD
70
0
0
ENDTAB
0
TABLE
2
VIEW
5
6
100
AcDbSymbolTable
70
0
0
ENDTAB
0
TABLE
2
UCS
5
7
100
AcDbSymbolTable
70
0
0
ENDTAB
0
TABLE
2
APPID
5
9
100
AcDbSymbolTable
70
2
0
APPID
5
12
100
AcDbSymbolTableRecord
100
AcDbRegAppTableRecord
2
ACAD
70
0
0
ENDTAB
0
TABLE
2
DIMSTYLE
5
A
100
AcDbSymbolTable
70
1
0
ENDTAB
0
TABLE
2
BLOCK_RECORD
5
1
100
AcDbSymbolTable
70
1
0
BLOCK_RECORD
5
1F
100
AcDbSymbolTableRecord
100
AcDbBlockTableRecord
2
*MODEL_SPACE
0
BLOCK_RECORD
5
1B
100
AcDbSymbolTableRecord
100
AcDbBlockTableRecord
2
*PAPER_SPACE
0
ENDTAB
0
ENDSEC
0
SECTION
2
BLOCKS
0
BLOCK
5
20
100
AcDbEntity
100
AcDbBlockBegin
2
*MODEL_SPACE
0
ENDBLK
5
21
100
AcDbEntity
100
AcDbBlockEnd
0
BLOCK
5
1C
100
AcDbEntity
100
AcDbBlockBegin
2
*PAPER_SPACE
0
ENDBLK
5
1D
100
AcDbEntity
100
AcDbBlockEnd
0
ENDSEC
0
SECTION
2
ENTITIES
0
LWPOLYLINE
5
100
100
AcDbEntity
8
0
100
AcDbPolyline
90
48
70
1
43
0.0
10
-122.36681232472196
20
14.306493213397214
42
0.10777563399007686
10
-117.38502427420985
20
9.3442342327713916
42
0.3519510383588258
10
-111.78594969611541
20
9.9959933788849753
10
-106.98409709258058
20
14.792909182326856
42
-0.28190029638587788
10
-103.38079227097822
20
15.656675851669263
42
-0.11737104688023162
10
-102.19487316120301
20
14.932944078767889
10
-100.69545787947506
20
13.444845097413074
42
0.35163889639393436
10
-95.0937011109352
20
12.852551832434296
42
0.023924779286602683
10
-93.808163362983734
20
13.767917158440852
42
-0.14498302280177186
10
-79.097064195314886
20
19.882744362460443
42
-0.026499738706020074
10
-78.039305124991699
20
19.938844435915115
10
-58.794650748909291
20
19.938844435915335
42
-0.035932549400233535
10
-44.47718449307645
20
18.908588095344712
10
-35.030596649966441
20
17.541996673809525
42
0.071958007245971331
10
-32.167103398772127
20
17.541996673813571
10
-22.836668601226521
20
18.891784805310166
42
0.15278044140755367
10
-22.298130791216856
20
19.149862050305014
42
-0.3128637046329894
10
-18.800910595250336
20
19.655787702884659
42
0.15278044140755118
10
-18.211312858170217
20
19.560912281295586
10
-15.598850024710247
20
19.938844435915541
10
-13.818297189636484
20
19.938844435915492
42
0.17786859946680825
10
-11.228872243559858
20
20.890094126586209
42
0.4626731974760066
10
-11.228872243559966
20
33.987594745245104
42
0.17786859946679473
10
-13.81829718963659
20
34.93884443591547
10
-15.609132390340035
20
34.938844435915541
10
-18.213097854935761
20
35.315821076155146
42
0.15267522405071043
10
-18.802337283113964
20
35.22118985824072
42
-0.31263795249826198
10
-22.297431456172248
20
35.727175393229295
42
0.15267522405060865
10
-22.835641761241952
20
35.985027751455902
10
-32.166084268874073
20
37.335797919608567
42
0.071987646013270692
10
-35.030744802131927
20
37.335923972117655
10
-44.476455320203939
20
35.969315112261448
42
-0.035936296596770598
10
-58.795403097690794
20
34.938844435915186
10
-78.039305124991913
20
34.938844435914973
42
-0.026499738706026964
10
-79.097064195314886
20
34.994944509369795
42
-0.14498302280176995
10
-93.808163362983933
20
41.109771713388945
42
0.023924779286610236
10
-95.093701110935314
20
42.025137039395801
42
0.35163889639392054
10
-100.69545787947519
20
41.43284377441681
10
-102.19487316120345
20
39.944744793061631
42
-0.11737104688025705
10
-103.38079227097833
20
39.221013020160399
42
-0.28190029638586761
10
-106.9840970925808
20
40.084779689502952
10
-111.78594969611574
20
44.881695492944615
42
0.35195103835882963
10
-117.38502427421011
20
45.533454639058149
42
0.10777563399006934
10
-122.36681232472235
20
40.571195658432238
42
0.35293001930682366
10
-121.79531982529195
20
34.951085882475112
10
-115.03847697087126
20
28.198853062004908
42
-0.41441347880153079
10
-115.03847697087112
20
26.678835809824761
10
-121.79531982529183
20
19.926602989354482
42
0.35293001930680906
0
LWPOLYLINE
5
101
100
AcDbEntity
8
0
100
AcDbPolyline
90
4
70
1
43
0.0
10
-99.223581050477279
20
20.360977525236269
42
-0.1894954628866998
10
-98.96488344760435
20
20.102279922362804
42
1.467598771409351
10
-96.924820694139214
20
22.142342675827816
42
-0.18949546288667843
10
-97.183518297012498
20
22.401040278701036
42
1.4675987714116323
0
LWPOLYLINE
5
102
100
AcDbEntity
8
0
100
AcDbPolyline
90
4
70
1
43
0.0
10
-109.29918936490553
20
20.360977525236216
42
1.4675987714116348
10
-111.3392521183705
20
22.401040278700851
42
-0.18949546288670269
10
-111.59794972124359
20
22.142342675827756
42
1.4675987714093424
10
-109.55788696777873
20
20.102279922362737
42
-0.18949546288689084
0
LWPOLYLINE
5
103
100
AcDbEntity
8
0
100
AcDbPolyline
90
4
70
1
43
0.0
10
-111.59794972124374
20
32.735346196002126
42
-0.18949546288677629
10
-111.33925211837038
20
32.476648593129283
42
1.4675987714116192
10
-109.2991893649056
20
34.516711346593823
42
-0.18949546288672811
10
-109.55788696777886
20
34.775408949467057
42
1.4675987714093846
0
LWPOLYLINE
5
104
100
AcDbEntity
8
0
100
AcDbPolyline
90
48
70
1
43
0.0
10
-58.795403097690794
20
-34.938844435915257
10
-78.039305124991941
20
-34.938844435914973
42
0.026499738706025407
10
-79.097064195314871
20
-34.994944509369795
42
0.14498302280177494
10
-93.808163362983933
20
-41.109771713389016
42
-0.023924779286607016
10
-95.093701110935314
20
-42.025137039395879
42
-0.35163889639393436
10
-100.69545787947519
20
-41.43284377441681
10
-102.19487316120343
20
-39.944744793061631
42
0.11737104688025851
10
-103.38079227097833
20
-39.221013020160399
42
0.28190029638586761
10
-106.9840970925808
20
-40.084779689502952
10
-111.78594969611572
20
-44.881695492944687
42
-0.35195103835883057
10
-117.38502427421018
20
-45.533454639058313
42
-0.10777563399007865
10
-122.36681232472242
20
-40.571195658432309
42
-0.35293001930682444
10
-121.79531982529195
20
-34.951085882475112
10
-115.03847697087119
20
-28.198853062004979
42
0.41441347880149654
10
-115.03847697087112
20
-26.678835809824761
10
-121.79531982529181
20
-19.926602989354549
42
-0.35293001930681045
10
-122.36681232472196
20
-14.306493213397287
42
-0.10777563399007012
10
-117.38502427420985
20
-9.3442342327713916
42
-0.3519510383588258
10
-111.78594969611541
20
-9.9959933788849753
10
-106.98409709258057
20
-14.792909182326904
42
0.28190029638586855
10
-103.38079227097822
20
-15.656675851669279
42
0.11737104688023409
10
-102.19487316120301
20
-14.932944078767889
10
-100.69545787947506
20
-13.444845097413074
42
-0.35163889639393436
10
-95.093701110935228
20
-12.852551832434283
42
-0.023924779286568356
10
-93.808163362983734
20
-13.767917158440914
42
0.14498302280176847
10
-79.097064195314886
20
-19.882744362460443
42
0.026499738706020074
10
-78.039305124991699
20
-19.938844435915115
10
-58.794650748909362
20
-19.938844435915339
42
0.035932549400233535
10
-44.47718449307645
20
-18.908588095344712
10
-35.030596649966441
20
-17.541996673809525
42
-0.071958007245971331
10
-32.167103398772127
20
-17.541996673813571
10
-22.836668601226499
20
-18.891784805310149
42
-0.15278044140755889
10
-22.29813079121687
20
-19.149862050305025
42
0.31286370463298968
10
-18.800910595250336
20
-19.655787702884659
42
-0.15278044140755118
10
-18.211312858170217
20
-19.560912281295586
10
-15.598850024710247
20
-19.938844435915541
10
-13.818297189636484
20
-19.938844435915478
42
-0.17786859946681466
10
-11.228872243559866
20
-20.89009412658622
42
-0.46267319747600716
10
-11.22887224355998
20
-33.987594745245104
42
-0.17786859946679712
10
-13.81829718963659
20
-34.93884443591547
10
-15.609132390340035
20
-34.938844435915541
10
-18.213097854935761
20
-35.31582107615521
42
-0.15267522405070635
10
-18.802337283113953
20
-35.221189858240798
42
0.31263795249823806
10
-22.297431456172255
20
-35.727175393229295
42
-0.15267522405059661
10
-22.835641761241952
20
-35.985027751455902
10
-32.166084268874066
20
-37.335797919608559
42
-0.071987646013270803
10
-35.030744802131927
20
-37.335923972117655
10
-44.476455320203868
20
-35.969315112261462
42
0.035936296596776489
0
CIRCLE
5
105
100
AcDbEntity
8
0
100
AcDbCircle
10
-104.26138520769157
20
27.438844435915115
30
0
40
3.5000000000000009
0
LWPOLYLINE
5
106
100
AcDbEntity
8
0
100
AcDbPolyline
90
4
70
1
43
0.0
10
-97.18351829701264
20
32.476648593129276
42
-0.18949546288674765
10
-96.924820694139328
20
32.735346196002155
42
1.467598771409377
10
-98.964883447604336
20
34.775408949467142
42
-0.18949546288688338
10
-99.223581050477378
20
34.516711346593752
42
1.4675987714116816
0
LWPOLYLINE
5
107
100
AcDbEntity
8
0
100
AcDbPolyline
90
48
70
1
43
0.0
10
58.79465074890939
20
-19.938844435915328
42
-0.03593254940023409
10
44.477184493076443
20
-18.908588095344712
10
35.030596649966427
20
-17.541996673809521
42
0.071958007245970887
10
32.167103398772127
20
-17.541996673813571
10
22.836668601226478
20
-18.891784805310149
42
0.15278044140755889
10
22.298130791216852
20
-19.149862050305025
42
-0.31286370463298968
10
18.800910595250318
20
-19.655787702884659
42
0.15278044140755118
10
18.211312858170203
20
-19.560912281295586
10
15.598850024710229
20
-19.938844435915541
10
13.818297189636468
20
-19.938844435915492
42
0.17786859946681385
10
11.228872243559858
20
-20.890094126586209
42
0.4626731974760076
10
11.228872243559952
20
-33.987594745245119
42
0.17786859946678854
10
13.81829718963659
20
-34.93884443591547
10
15.609132390340035
20
-34.938844435915541
10
18.213097854935747
20
-35.31582107615521
42
0.15267522405070635
10
18.802337283113935
20
-35.221189858240798
42
-0.31263795249823806
10
22.297431456172237
20
-35.727175393229295
42
0.15267522405059661
10
22.835641761241938
20
-35.985027751455902
10
32.166084268874073
20
-37.335797919608567
42
0.071987646013270248
10
35.030744802131906
20
-37.335923972117655
10
44.476455320203897
20
-35.969315112261448
42
-0.035936296596776267
10
58.795403097690809
20
-34.938844435915257
10
78.039305124991898
20
-34.938844435914973
42
-0.026499738706025629
10
79.097064195314871
20
-34.99494450936978
42
-0.14498302280177469
10
93.808163362983976
20
-41.109771713388994
42
0.02392477928659946
10
95.093701110935314
20
-42.02513703939583
42
0.35163889639393714
10
100.69545787947519
20
-41.43284377441681
10
102.19487316120345
20
-39.944744793061616
42
-0.11737104688024659
10
103.38079227097829
20
-39.22101302016037
42
-0.28190029638586378
10
106.9840970925808
20
-40.084779689502952
10
111.78594969611574
20
-44.881695492944687
42
0.35195103835882963
10
117.38502427421018
20
-45.533454639058341
42
0.10777563399007541
10
122.36681232472233
20
-40.571195658432345
42
0.35293001930681978
10
121.79531982529191
20
-34.951085882475112
10
115.03847697087117
20
-28.198853062004972
42
-0.4144134788014931
10
115.0384769708711
20
-26.678835809824761
10
121.79531982529184
20
-19.926602989354517
42
0.35293001930681078
10
122.36681232472196
20
-14.306493213397296
42
0.10777563399006743
10
117.38502427420985
20
-9.3442342327713863
42
0.35195103835882752
10
111.78594969611538
20
-9.9959933788849753
10
106.98409709258055
20
-14.792909182326888
42
-0.2819002963858705
10
103.38079227097819
20
-15.656675851669263
42
-0.11737104688024118
10
102.19487316120301
20
-14.932944078767889
10
100.69545787947506
20
-13.444845097413074
42
0.35163889639393436
10
95.093701110935257
20
-12.852551832434324
42
0.023924779286577911
10
93.808163362983692
20
-13.76791715844095
42
-0.14498302280177505
10
79.097064195314871
20
-19.882744362460446
42
-0.02649973870602252
10
78.039305124991685
20
-19.938844435915115
0
LWPOLYLINE
5
108
100
AcDbEntity
8
0
100
AcDbPolyline
90
48
70
1
43
0.0
10
58.794650748909305
20
19.938844435915357
42
0.035932549400233535
10
44.477184493076443
20
18.908588095344712
10
35.030596649966427
20
17.541996673809521
42
-0.071958007245970887
10
32.167103398772127
20
17.541996673813571
10
22.836668601226503
20
18.891784805310166
42
-0.15278044140755367
10
22.298130791216838
20
19.149862050305014
42
0.3128637046329894
10
18.800910595250318
20
19.655787702884659
42
-0.15278044140755118
10
18.211312858170203
20
19.560912281295586
10
15.598850024710229
20
19.938844435915541
10
13.818297189636466
20
19.938844435915502
42
-0.17786859946680733
10
11.228872243559858
20
20.890094126586209
42
-0.4626731974760076
10
11.228872243559959
20
33.987594745245104
42
-0.17786859946678832
10
13.81829718963659
20
34.93884443591547
10
15.609132390340035
20
34.938844435915541
10
18.213097854935743
20
35.315821076155146
42
-0.15267522405071043
10
18.80233728311395
20
35.22118985824072
42
0.31263795249826198
10
22.297431456172234
20
35.727175393229295
42
-0.15267522405060865
10
22.835641761241938
20
35.985027751455902
10
32.166084268874073
20
37.335797919608574
42
-0.071987646013270248
10
35.030744802131906
20
37.335923972117655
10
44.476455320203918
20
35.969315112261448
42
0.035936296596771264
10
58.795403097690809
20
34.938844435915186
10
78.039305124991898
20
34.938844435914973
42
0.026499738706025851
10
79.097064195314857
20
34.994944509369795
42
0.14498302280177017
10
93.808163362984018
20
41.109771713388909
42
-0.023924779286599682
10
95.093701110935328
20
42.025137039395759
42
-0.35163889639392137
10
100.69545787947519
20
41.43284377441681
10
102.19487316120345
20
39.944744793061616
42
0.11737104688026595
10
103.38079227097829
20
39.221013020160349
42
0.28190029638586928
10
106.9840970925808
20
40.084779689502952
10
111.78594969611574
20
44.881695492944615
42
-0.35195103835882963
10
117.38502427421012
20
45.533454639058171
42
-0.10777563399006844
10
122.36681232472225
20
40.571195658432288
42
-0.35293001930681905
10
121.79531982529191
20
34.951085882475112
10
115.03847697087122
20
28.198853062005007
42
0.41441347880152052
10
115.0384769708711
20
26.678835809824761
10
121.79531982529186
20
19.926602989354453
42
-0.35293001930681578
10
122.36681232472191
20
14.306493213397156
42
-0.10777563399007349
10
117.38502427420985
20
9.3442342327713863
42
-0.35195103835882752
10
111.78594969611538
20
9.9959933788849753
10
106.98409709258055
20
14.792909182326856
42
0.28190029638587788
10
103.38079227097819
20
15.656675851669258
42
0.11737104688023499
10
102.19487316120301
20
14.932944078767889
10
100.69545787947506
20
13.444845097413074
42
-0.35163889639393436
10
95.093701110935243
20
12.852551832434326
42
-0.023924779286615679
10
93.80816336298372
20
13.767917158440888
42
0.14498302280177255
10
79.097064195314871
20
19.882744362460446
42
0.02649973870602252
10
78.039305124991685
20
19.938844435915115
0
LWPOLYLINE
5
109
100
AcDbEntity
8
0
100
AcDbPolyline
90
4
70
1
43
0.0
10
-96.924820694139342
20
-32.735346196002212
42
-1.4675987714094028
10
-98.964883447604336
20
-34.775408949467078
42
0.18949546288683783
10
-99.223581050477435
20
-34.516711346593915
42
-1.4675987714115912
10
-97.18351829701264
20
-32.476648593129262
42
0.18949546288675501
0
LWPOLYLINE
5
110
100
AcDbEntity
8
0
100
AcDbPolyline
90
4
70
1
43
0.0
10
-99.223581050477293
20
-20.360977525236198
42
0.18949546288673202
10
-98.964883447604421
20
-20.102279922362744
42
-1.4675987714093002
10
-96.924820694139214
20
-22.142342675827816
42
0.18949546288667843
10
-97.183518297012654
20
-22.401040278700968
42
-1.467598771411587
0
LWPOLYLINE
5
111
100
AcDbEntity
8
0
100
AcDbPolyline
90
4
70
1
43
0.0
10
-111.33925211837047
20
-22.40104027870084
42
0.18949546288659791
10
-111.59794972124359
20
-22.142342675827756
42
-1.4675987714093424
10
-109.55788696777873
20
-20.102279922362737
42
0.18949546288689084
10
-109.29918936490549
20
-20.360977525236088
42
-1.4675987714116108
0
CIRCLE
5
112
100
AcDbEntity
8
0
100
AcDbCircle
10
12.59894099847064
20
-27.438844435915541
30
0
40
1.4750000000000001
0
CIRCLE
5
113
100
AcDbEntity
8
0
100
AcDbCircle
10
33.59894099847039
20
-27.43884443591547
30
0
40
1.4750000000000001
0
CIRCLE
5
114
100
AcDbEntity
8
0
100
AcDbCircle
10
-12.59894099847064
20
27.438844435915541
30
0
40
1.4750000000000001
0
LWPOLYLINE
5
115
100
AcDbEntity
8
0
100
AcDbPolyline
90
4
70
1
43
0.0
10
-26.698940998470412
20
25.988844435915581
42
-0.99999999999999989
10
-26.698940998470448
20
28.888844435915502
10
-19.498940998470509
20
28.888844435915431
42
-0.99999999999999989
10
-19.498940998470616
20
25.988844435915652
0
LWPOLYLINE
5
116
100
AcDbEntity
8
0
100
AcDbPolyline
90
4
70
1
43
0.0
10
-111.59794972124372
20
-32.735346196002098
42
0.18949546288642838
10
-111.33925211837025
20
-32.476648593129333
42
-1.4675987714115839
10
-109.2991893649056
20
-34.516711346593823
42
0.18949546288672811
10
-109.55788696777876
20
-34.775408949467092
42
-1.4675987714094823
0
CIRCLE
5
117
100
AcDbEntity
8
0
100
AcDbCircle
10
-104.26138520769157
20
-27.438844435915115
30
0
40
3.5000000000000009
0
LWPOLYLINE
5
118
100
AcDbEntity
8
0
100
AcDbPolyline
90
4
70
1
43
0.0
10
111.33925211837033
20
-32.476648593129291
42
1.4675987714115744
10
109.29918936490554
20
-34.516711346593937
42
-0.18949546288666588
10
109.55788696777876
20
-34.775408949467121
42
1.4675987714094301
10
111.59794972124367
20
-32.735346196002133
42
-0.18949546288678804
0
LWPOLYLINE
5
119
100
AcDbEntity
8
0
100
AcDbPolyline
90
4
70
1
43
0.0
10
99.223581050477335
20
-20.360977525236216
42
-0.18949546288665634
10
98.964883447604393
20
-20.102279922362744
42
1.4675987714093051
10
96.9248206941392
20
-22.142342675827834
42
-0.1894954628866499
10
97.183518297012682
20
-22.401040278700957
42
1.4675987714115941
0
LWPOLYLINE
5
120
100
AcDbEntity
8
0
100
AcDbPolyline
90
4
70
1
43
0.0
10
97.18351829701264
20
-32.476648593129198
42
-0.18949546288680044
10
96.924820694139299
20
-32.735346196002126
42
1.4675987714093972
10
98.964883447604308
20
-34.775408949467135
42
-0.18949546288682034
10
99.223581050477478
20
-34.516711346593972
42
1.4675987714115653
0
LWPOLYLINE
5
121
100
AcDbEntity
8
0
100
AcDbPolyline
90
4
70
1
43
0.0
10
111.59794972124367
20
-22.142342675827873
42
1.4675987714093952
10
109.5578869677787
20
-20.102279922362744
42
-0.18949546288682426
10
109.29918936490544
20
-20.360977525236088
42
1.4675987714116108
10
111.33925211837052
20
-22.401040278700883
42
-0.18949546288665037
0
CIRCLE
5
122
100
AcDbEntity
8
0
100
AcDbCircle
10
104.26138520769155
20
-27.438844435915115
30
0
40
3.5000000000000009
0
LWPOLYLINE
5
123
100
AcDbEntity
8
0
100
AcDbPolyline
90
4
70
1
43
0.0
10
109.29918936490564
20
34.516711346593738
42
0.18949546288663519
10
109.55788696777881
20
34.775408949467035
42
-1.4675987714093468
10
111.59794972124371
20
32.735346196002112
42
0.18949546288682609
10
111.33925211837041
20
32.476648593129255
42
-1.4675987714116221
0
LWPOLYLINE
5
124
100
AcDbEntity
8
0
100
AcDbPolyline
90
4
70
1
43
0.0
10
98.964883447604308
20
20.102279922362811
42
-1.4675987714093712
10
96.9248206941392
20
22.142342675827834
42
0.1894954628866499
10
97.183518297012554
20
22.401040278701014
42
-1.4675987714116179
10
99.223581050477279
20
20.360977525236301
42
0.18949546288671348
0
CIRCLE
5
125
100
AcDbEntity
8
0
100
AcDbCircle
10
104.26138520769155
20
27.438844435915115
30
0
40
3.5000000000000009
0
LWPOLYLINE
5
126
100
AcDbEntity
8
0
100
AcDbPolyline
90
4
70
1
43
0.0
10
109.5578869677787
20
20.102279922362744
42
0.18949546288686231
10
109.29918936490546
20
20.360977525236098
42
-1.4675987714115941
10
111.3392521183704
20
22.401040278700815
42
0.1894954628867434
10
111.59794972124361
20
22.142342675827788
42
-1.4675987714094465
0
LWPOLYLINE
5
127
100
AcDbEntity
8
0
100
AcDbPolyline
90
4
70
1
43
0.0
10
99.223581050477364
20
34.516711346593731
42
-1.4675987714116696
10
97.183518297012625
20
32.476648593129269
42
0.18949546288681435
10
96.924820694139285
20
32.735346196002098
42
-1.4675987714094043
10
98.96488344760435
20
34.775408949467135
42
0.18949546288687014
0
LWPOLYLINE
5
128
100
AcDbEntity
8
0
100
AcDbPolyline
90
4
70
1
43
0.0
10
26.698940998470427
20
-28.888844435915502
10
19.498940998470637
20
-28.888844435915573
42
-0.99999999999999989
10
19.498940998470601
20
-25.988844435915652
10
26.698940998470533
20
-25.988844435915723
42
-0.99999999999999989
0
CIRCLE
5
129
100
AcDbEntity
8
0
100
AcDbCircle
10
-33.598940998470404
20
27.43884443591547
30
0
40
1.4750000000000001
0
LWPOLYLINE
5
130
100
AcDbEntity
8
0
100
AcDbPolyline
90
4
70
1
43
0.0
10
-26.698940998470448
20
-28.888844435915502
10
-19.498940998470651
20
-28.888844435915573
42
0.99999999999999989
10
-19.498940998470616
20
-25.988844435915652
10
-26.698940998470555
20
-25.988844435915723
42
0.99999999999999989
0
CIRCLE
5
131
100
AcDbEntity
8
0
100
AcDbCircle
10
-12.59894099847064
20
-27.438844435915541
30
0
40
1.4750000000000001
0
CIRCLE
5
132
100
AcDbEntity
8
0
100
AcDbCircle
10
-33.598940998470404
20
-27.43884443591547
30
0
40
1.4750000000000001
0
CIRCLE
5
133
100
AcDbEntity
8
0
100
AcDbCircle
10
12.59894099847064
20
27.438844435915541
30
0
40
1.4750000000000001
0
LWPOLYLINE
5
134
100
AcDbEntity
8
0
100
AcDbPolyline
90
4
70
1
43
0.0
10
26.698940998470427
20
28.888844435915502
10
19.498940998470495
20
28.888844435915431
42
0.99999999999999989
10
19.498940998470601
20
25.988844435915652
10
26.698940998470391
20
25.988844435915581
42
0.99999999999999989
0
CIRCLE
5
135
100
AcDbEntity
8
0
100
AcDbCircle
10
33.59894099847039
20
27.43884443591547
30
0
40
1.4750000000000001
0
ENDSEC
0
SECTION
2
OBJECTS
0
DICTIONARY
5
C
100
AcDbDictionary
3
ACAD_GROUP
350
D
3
ACAD_MLINESTYLE
350
17
0
DICTIONARY
5
D
100
AcDbDictionary
0
DICTIONARY
5
1A
330
C
100
AcDbDictionary
0
DICTIONARY
5
17
100
AcDbDictionary
0
ENDSEC
0
EOF
