0
SECTION
2
HEADER
9
$INSUNITS
70
4
9
$ACADVER
1
AC1014
9
$HANDSEED
5
FFFF
0
ENDSEC
0
SECTION
2
TABLES
0
TABLE
2
VPORT
5
8
100
AcDbSymbolTable
0
ENDTAB
0
TABLE
2
LTYPE
5
5
100
AcDbSymbolTable
0
LTYPE
5
14
100
AcDbSymbolTableRecord
100
AcDbLinetypeTableRecord
2
BYBLOCK
70
0
0
LTYPE
5
15
100
AcDbSymbolTableRecord
100
AcDbLinetypeTableRecord
2
BYLAYER
70
0
0
ENDTAB
0
TABLE
2
LAYER
5
2
100
AcDbSymbolTable
70
2
0
LAYER
5
50
100
AcDbSymbolTableRecord
100
AcDbLayerTableRecord
2
0
70
0
6
CONTINUOUS
0
ENDTAB
0
TABLE
2
STYLE
5
3
100
AcDbSymbolTable
70
1
0
STYLE
5
11
100
AcDbSymbolTableRecord
100
AcDbTextStyleTableRecord
2
STANDARD
70
0
0
ENDTAB
0
TABLE
2
VIEW
5
6
100
AcDbSymbolTable
70
0
0
ENDTAB
0
TABLE
2
UCS
5
7
100
AcDbSymbolTable
70
0
0
ENDTAB
0
TABLE
2
APPID
5
9
100
AcDbSymbolTable
70
2
0
APPID
5
12
100
AcDbSymbolTableRecord
100
AcDbRegAppTableRecord
2
ACAD
70
0
0
ENDTAB
0
TABLE
2
DIMSTYLE
5
A
100
AcDbSymbolTable
70
1
0
ENDTAB
0
TABLE
2
BLOCK_RECORD
5
1
100
AcDbSymbolTable
70
1
0
BLOCK_RECORD
5
1F
100
AcDbSymbolTableRecord
100
AcDbBlockTableRecord
2
*MODEL_SPACE
0
BLOCK_RECORD
5
1B
100
AcDbSymbolTableRecord
100
AcDbBlockTableRecord
2
*PAPER_SPACE
0
ENDTAB
0
ENDSEC
0
SECTION
2
BLOCKS
0
BLOCK
5
20
100
AcDbEntity
100
AcDbBlockBegin
2
*MODEL_SPACE
0
ENDBLK
5
21
100
AcDbEntity
100
AcDbBlockEnd
0
BLOCK
5
1C
100
AcDbEntity
100
AcDbBlockBegin
2
*PAPER_SPACE
0
ENDBLK
5
1D
100
AcDbEntity
100
AcDbBlockEnd
0
ENDSEC
0
SECTION
2
ENTITIES
0
LWPOLYLINE
5
100
100
AcDbEntity
8
0
100
AcDbPolyline
90
34
70
1
43
0.0
10
165.02411575291461
20
43.860266572220411
42
-0.41441347880156276
10
164.71587556544975
20
45.348702138093842
10
167.67270697223896
20
49.8467019661826
42
0.32208896090473205
10
167.45395650062983
20
55.094826319354951
42
0.16365597488404895
10
160.79449024978786
20
59.472280130615999
42
0.32202663924068403
10
155.89049681056849
20
57.592695211241747
10
154.41852814961851
20
55.354346705824156
42
-0.2819002963858403
10
151.06525078137739
20
53.777822241031153
42
-0.11737104688027011
10
149.757208128743
20
54.246027573045197
10
147.98717891462812
20
55.399145670452931
42
0.35163889639393658
10
142.38170135805606
20
54.843167641761106
42
0.023924779286612234
10
141.3084979300707
20
53.686130311497067
42
-0.14498302280176983
10
128.14306332604602
20
44.715128018377818
42
-0.026144418989227102
10
127.11865789840871
20
44.445693445763865
10
51.067978989387662
20
28.696354971720197
42
-0.051095276375534432
10
44.984360128692487
20
28.073039290373103
10
18.919554411098858
20
28.07303929037338
42
0.17786859946680433
10
16.330129465022409
20
27.121789599702755
42
0.46267319747599489
10
16.330129465022104
20
14.0242889810441
42
0.17786859946679265
10
18.919554411098858
20
13.073039290373316
10
46.521230770048732
20
13.073039290373249
42
0.051095276375534321
10
52.6048496307439
20
13.696354971720197
10
130.16046732875637
20
29.757351286437341
42
-0.026499653861038974
10
131.20762552072404
20
29.916916915842741
42
-0.14498302280177233
10
146.85307866529965
20
26.912362646589287
42
0.023924779286579909
10
148.29753101073297
20
26.276706762297152
42
0.35163889639395435
10
153.66278946877912
20
27.992658942279363
10
154.82928354759056
20
29.753901778882977
42
-0.11737104688037546
10
155.84379898264427
20
30.703085768462618
42
-0.2819002963858544
10
159.5473981642759
20
30.587970181905462
10
161.78725959915647
20
29.118304735942324
42
0.32202663924071084
10
167.03439544832224
20
29.340917631893284
42
0.16365597488404529
10
171.40765485712546
20
36.003139090171466
42
0.32208896090472411
10
169.52413259766402
20
40.906505779835172
0
LWPOLYLINE
5
101
100
AcDbEntity
8
0
100
AcDbPolyline
90
4
70
1
43
0.0
10
160.68525580641193
20
36.509821014788471
42
-0.18949546288703334
10
160.99103898740023
20
36.308959008203622
42
1.4675987714093595
10
162.57501616256019
20
38.720333799629081
42
-0.18949546288696986
10
162.26923298157186
20
38.921195806213767
42
1.4675987714116381
0
CIRCLE
5
102
100
AcDbEntity
8
0
100
AcDbCircle
10
154.31682157251259
20
42.419027064693111
30
0
40
3.5000000000000044
0
LWPOLYLINE
5
103
100
AcDbEntity
8
0
100
AcDbPolyline
90
4
70
1
43
0.0
10
147.94838733861366
20
48.328233114597481
42
-0.18949546288687866
10
147.64260415762504
20
48.529095121182372
42
1.4675987714093026
10
146.05862698246528
20
46.117720329757141
42
-0.18949546288657387
10
146.36441016345373
20
45.916858323172541
42
1.4675987714117018
0
LWPOLYLINE
5
104
100
AcDbEntity
8
0
100
AcDbPolyline
90
4
70
1
43
0.0
10
148.2067535160233
20
35.744809649805546
42
1.4675987714094392
10
150.61812830744856
20
34.160832474645517
42
-0.18949546288687694
10
150.81899031403333
20
34.466615655634243
42
1.4675987714116125
10
148.40761552260807
20
36.050592830793839
42
-0.18949546288689095
0
LWPOLYLINE
5
105
100
AcDbEntity
8
0
100
AcDbPolyline
90
4
70
1
43
0.0
10
157.81465283099209
20
50.371438473751979
42
1.4675987714116714
10
160.22602762241718
20
48.787461298592341
42
-0.18949546288678676
10
160.42688962900203
20
49.093244479580619
42
1.4675987714093242
10
158.01551483757652
20
50.677221654740663
42
-0.18949546288678562
0
LWPOLYLINE
5
106
100
AcDbEntity
8
0
100
AcDbPolyline
90
4
70
1
43
0.0
10
146.36441016345381
20
-45.91685832317274
42
-1.4675987714117162
10
147.94838733861366
20
-48.32823311459741
42
0.18949546288700631
10
147.64260415762504
20
-48.529095121182444
42
-1.4675987714093026
10
146.05862698246528
20
-46.117720329757255
42
0.18949546288654387
0
LWPOLYLINE
5
107
100
AcDbEntity
8
0
100
AcDbPolyline
90
4
70
1
43
0.0
10
-162.2692329815718
20
-38.921195806213802
42
1.4675987714116305
10
-160.68525580641193
20
-36.509821014788635
42
-0.18949546288701136
10
-160.99103898740023
20
-36.308959008203686
42
1.4675987714092884
10
-162.57501616256036
20
-38.72033379962923
42
-0.18949546288666047
0
LWPOLYLINE
5
108
100
AcDbEntity
8
0
100
AcDbPolyline
90
4
70
1
43
0.0
10
-150.81899031403344
20
-34.466615655634129
42
1.4675987714116903
10
-148.4076155226079
20
-36.050592830793939
42
-0.189495462886974
10
-148.20675351602335
20
-35.744809649805632
42
1.4675987714093448
10
-150.61812830744896
20
-34.160832474645531
42
-0.18949546288664851
0
LWPOLYLINE
5
109
100
AcDbEntity
8
0
100
AcDbPolyline
90
34
70
1
43
0.0
10
-131.20762552072406
20
-29.916916915842847
42
-0.14498302280176939
10
-146.85307866529973
20
-26.912362646589443
42
0.023924779286577356
10
-148.29753101073311
20
-26.276706762297298
42
0.35163889639391221
10
-153.66278946877912
20
-27.992658942279363
10
-154.82928354759053
20
-29.753901778883005
42
-0.11737104688014427
10
-155.84379898264427
20
-30.703085768462689
42
-0.28190029638583258
10
-159.54739816427605
20
-30.587970181905462
10
-161.78725959915653
20
-29.118304735942282
42
0.32202663924066988
10
-167.03439544832236
20
-29.340917631893344
42
0.16365597488403652
10
-171.40765485712561
20
-36.003139090171537
42
0.32208896090472366
10
-169.52413259766388
20
-40.906505779835243
10
-165.02411575291461
20
-43.860266572220553
42
-0.4144134788016326
10
-164.71587556544989
20
-45.348702138093913
10
-167.67270697223896
20
-49.846701966182671
42
0.32208896090473205
10
-167.45395650062972
20
-55.094826319354922
42
0.16365597488404826
10
-160.79449024978786
20
-59.472280130615971
42
0.32202663924067204
10
-155.89049681056849
20
-57.592695211241818
10
-154.41852814961885
20
-55.354346705824199
42
-0.28190029638583142
10
-151.06525078137736
20
-53.777822241031217
42
-0.1173710468802225
10
-149.757208128743
20
-54.246027573045268
10
-147.98717891462815
20
-55.399145670453002
42
0.35163889639394208
10
-142.3817013580562
20
-54.843167641761028
42
0.023924779286517147
10
-141.30849793007084
20
-53.686130311497003
42
-0.14498302280176326
10
-128.14306332604602
20
-44.715128018377889
42
-0.026144418989185885
10
-127.11865789840886
20
-44.445693445763936
10
-51.06797898938764
20
-28.696354971720194
42
-0.051095276375536548
10
-44.984360128692487
20
-28.073039290373103
10
-18.919554411098861
20
-28.073039290373465
42
0.17786859946681649
10
-16.330129465022345
20
-27.121789599702723
42
0.4626731974759965
10
-16.330129465022235
20
-14.024288981044089
42
0.17786859946681752
10
-18.919554411098858
20
-13.073039290373316
10
-46.521230770048732
20
-13.073039290373245
42
0.051095276375536659
10
-52.6048496307439
20
-13.696354971720197
10
-130.16046732875648
20
-29.757351286437412
42
-0.026499653860959649
0
LWPOLYLINE
5
110
100
AcDbEntity
8
0
100
AcDbPolyline
90
34
70
1
43
0.0
10
16.330129465022409
20
-27.121789599702755
42
-0.46267319747599489
10
16.330129465022104
20
-14.0242889810441
42
-0.17786859946679265
10
18.919554411098858
20
-13.073039290373316
10
46.521230770048732
20
-13.073039290373247
42
-0.05109527637553421
10
52.6048496307439
20
-13.696354971720197
10
130.1604673287564
20
-29.757351286437277
42
0.026499653860971757
10
131.20762552072404
20
-29.916916915842741
42
0.14498302280177233
10
146.85307866529962
20
-26.912362646589294
42
-0.023924779286580242
10
148.29753101073297
20
-26.276706762297152
42
-0.35163889639395435
10
153.66278946877912
20
-27.992658942279363
10
154.82928354759056
20
-29.753901778882977
42
0.11737104688037546
10
155.84379898264427
20
-30.703085768462618
42
0.2819002963858544
10
159.5473981642759
20
-30.587970181905462
10
161.7872595991565
20
-29.11830473594236
42
-0.32202663924069586
10
167.03439544832221
20
-29.340917631893344
42
-0.16365597488403652
10
171.40765485712546
20
-36.003139090171537
42
-0.32208896090472411
10
169.52413259766402
20
-40.906505779835243
10
165.02411575291461
20
-43.860266572220482
42
0.41441347880156276
10
164.71587556544975
20
-45.348702138093913
10
167.67270697223896
20
-49.846701966182671
42
-0.32208896090473205
10
167.45395650062983
20
-55.094826319355022
42
-0.16365597488404895
10
160.79449024978786
20
-59.47228013061607
42
-0.32202663924068403
10
155.89049681056849
20
-57.592695211241818
10
154.41852814961851
20
-55.354346705824227
42
0.2819002963858403
10
151.06525078137739
20
-53.777822241031224
42
0.11737104688027011
10
149.757208128743
20
-54.246027573045268
10
147.98717891462812
20
-55.399145670453002
42
-0.35163889639393658
10
142.38170135805629
20
-54.843167641760971
42
-0.023924779286579132
10
141.30849793007079
20
-53.686130311497067
42
0.144983022801767
10
128.14306332604602
20
-44.715128018377889
42
0.026144418989227102
10
127.11865789840871
20
-44.445693445763936
10
51.067978989387626
20
-28.69635497172019
42
0.051095276375533988
10
44.984360128692487
20
-28.073039290373103
10
18.919554411098858
20
-28.073039290373316
42
-0.17786859946682942
0
LWPOLYLINE
5
111
100
AcDbEntity
8
0
100
AcDbPolyline
90
34
70
1
43
0.0
10
-131.20762552072406
20
29.916916915842847
42
0.14498302280176939
10
-146.85307866529971
20
26.912362646589454
42
-0.023924779286577689
10
-148.29753101073311
20
26.276706762297298
42
-0.35163889639391221
10
-153.66278946877912
20
27.992658942279363
10
-154.82928354759053
20
29.753901778883005
42
0.11737104688014427
10
-155.84379898264427
20
30.703085768462689
42
0.28190029638583258
10
-159.54739816427605
20
30.587970181905462
10
-161.7872595991565
20
29.118304735942473
42
-0.32202663924069269
10
-167.03439544832239
20
29.340917631893312
42
-0.1636559748840665
10
-171.40765485712561
20
36.003139090171466
42
-0.32208896090472366
10
-169.52413259766388
20
40.906505779835172
10
-165.02411575291461
20
43.860266572220482
42
0.4144134788016326
10
-164.71587556544989
20
45.348702138093842
10
-167.67270697223896
20
49.8467019661826
42
-0.32208896090473205
10
-167.45395650062972
20
55.094826319354851
42
-0.16365597488404826
10
-160.79449024978786
20
59.4722801306159
42
-0.32202663924067204
10
-155.89049681056849
20
57.592695211241747
10
-154.41852814961885
20
55.354346705824128
42
0.28190029638583142
10
-151.06525078137736
20
53.777822241031146
42
0.1173710468802225
10
-149.757208128743
20
54.246027573045197
10
-147.98717891462815
20
55.399145670452931
42
-0.35163889639394208
10
-142.38170135805626
20
54.843167641760942
42
-0.023924779286679666
10
-141.30849793007093
20
53.686130311497124
42
0.14498302280177619
10
-128.14306332604602
20
44.715128018377818
42
0.026144418989185885
10
-127.11865789840886
20
44.445693445763865
10
-51.067978989387662
20
28.696354971720197
42
0.051095276375536881
10
-44.984360128692487
20
28.073039290373103
10
-18.919554411098861
20
28.073039290373476
42
-0.17786859946683642
10
-16.330129465022345
20
27.121789599702723
42
-0.4626731974759965
10
-16.330129465022235
20
14.024288981044089
42
-0.17786859946681752
10
-18.919554411098858
20
13.073039290373316
10
-46.521230770048732
20
13.073039290373245
42
-0.05109527637553677
10
-52.6048496307439
20
13.696354971720197
10
-130.16046732875648
20
29.757351286437491
42
0.026499653861026085
0
LWPOLYLINE
5
112
100
AcDbEntity
8
0
100
AcDbPolyline
90
4
70
1
43
0.0
10
-147.64260415762519
20
-48.529095121182507
42
1.4675987714092023
10
-146.05862698246523
20
-46.117720329756864
42
-0.18949546288657906
10
-146.36441016345347
20
-45.916858323172406
42
1.4675987714115797
10
-147.9483873386138
20
-48.328233114597587
42
-0.18949546288720759
0
LWPOLYLINE
5
113
100
AcDbEntity
8
0
100
AcDbPolyline
90
4
70
1
43
0.0
10
-160.42688962900232
20
-49.093244479580449
42
1.467598771409472
10
-158.01551483757663
20
-50.677221654740706
42
-0.18949546288682126
10
-157.8146528309922
20
-50.371438473752022
42
1.4675987714115237
10
-160.22602762241735
20
-48.787461298592369
42
-0.18949546288699309
0
CIRCLE
5
114
100
AcDbEntity
8
0
100
AcDbCircle
10
-154.31682157251259
20
-42.419027064693182
30
0
40
3.5000000000000044
0
LWPOLYLINE
5
115
100
AcDbEntity
8
0
100
AcDbPolyline
90
4
70
1
43
0.0
10
-24.600198219933876
20
22.023039290373234
42
-0.99990343766115786
10
-24.60019819832624
20
19.123039290373214
10
-31.800198219932412
20
19.123039290373356
42
-0.99999999999999989
10
-31.80019821993298
20
22.023039290373276
0
LWPOLYLINE
5
116
100
AcDbEntity
8
0
100
AcDbPolyline
90
4
70
1
43
0.0
10
-24.60019819832624
20
-19.123039290373214
10
-31.800198219932696
20
-19.123039290373285
42
0.99999999999999989
10
-31.80019821993298
20
-22.023039290373276
10
-24.600198219932992
20
-22.023039290373205
42
0.99990343766115786
0
LWPOLYLINE
5
117
100
AcDbEntity
8
0
100
AcDbPolyline
90
4
70
1
43
0.0
10
-162.57501616256036
20
38.720333799629159
42
0.18949546288666047
10
-162.2692329815718
20
38.921195806213731
42
-1.4675987714116305
10
-160.68525580641193
20
36.509821014788564
42
0.18949546288701136
10
-160.99103898740023
20
36.308959008203615
42
-1.4675987714092884
0
LWPOLYLINE
5
118
100
AcDbEntity
8
0
100
AcDbPolyline
90
4
70
1
43
0.0
10
-147.94838733861383
20
48.328233114597623
42
0.18949546288652741
10
-147.64260415762519
20
48.529095121182436
42
-1.4675987714092023
10
-146.05862698246523
20
46.117720329756828
42
0.18949546288654903
10
-146.36441016345347
20
45.916858323172406
42
-1.4675987714115797
0
CIRCLE
5
119
100
AcDbEntity
8
0
100
AcDbCircle
10
-17.700198219933014
20
20.573039290373103
30
0
40
1.4500000000000002
0
CIRCLE
5
120
100
AcDbEntity
8
0
100
AcDbCircle
10
-38.700198219932815
20
20.573039290373103
30
0
40
1.4500000000000002
0
CIRCLE
5
121
100
AcDbEntity
8
0
100
AcDbCircle
10
-38.700198219932815
20
-20.573039290373103
30
0
40
1.4500000000000002
0
LWPOLYLINE
5
122
100
AcDbEntity
8
0
100
AcDbPolyline
90
4
70
1
43
0.0
10
24.600198198326382
20
-19.123039290373214
10
31.800198219932412
20
-19.123039290373356
42
-0.99999999999999989
10
31.80019821993298
20
-22.023039290373276
10
24.600198219933734
20
-22.023039290373234
42
-0.99990343766115786
0
CIRCLE
5
123
100
AcDbEntity
8
0
100
AcDbCircle
10
-17.700198219933014
20
-20.573039290373103
30
0
40
1.4500000000000002
0
CIRCLE
5
124
100
AcDbEntity
8
0
100
AcDbCircle
10
17.700198219933014
20
-20.573039290373103
30
0
40
1.4500000000000002
0
LWPOLYLINE
5
125
100
AcDbEntity
8
0
100
AcDbPolyline
90
4
70
1
43
0.0
10
31.80019821993298
20
22.023039290373276
10
24.600198219932992
20
22.023039290373205
42
0.99990343766115786
10
24.600198198326382
20
19.123039290373214
10
31.800198219932696
20
19.123039290373285
42
0.99999999999999989
0
CIRCLE
5
126
100
AcDbEntity
8
0
100
AcDbCircle
10
154.31682157251259
20
-42.419027064693182
30
0
40
3.5000000000000044
0
LWPOLYLINE
5
127
100
AcDbEntity
8
0
100
AcDbPolyline
90
4
70
1
43
0.0
10
150.61812830744856
20
-34.160832474645588
42
0.18949546288687694
10
150.81899031403333
20
-34.466615655634314
42
-1.4675987714116125
10
148.40761552260807
20
-36.05059283079391
42
0.18949546288689095
10
148.2067535160233
20
-35.744809649805617
42
-1.4675987714094392
0
LWPOLYLINE
5
128
100
AcDbEntity
8
0
100
AcDbPolyline
90
4
70
1
43
0.0
10
157.81465283099209
20
-50.37143847375205
42
-1.4675987714116714
10
160.22602762241718
20
-48.787461298592412
42
0.18949546288678676
10
160.42688962900203
20
-49.09324447958069
42
-1.4675987714093242
10
158.01551483757652
20
-50.677221654740734
42
0.18949546288678562
0
LWPOLYLINE
5
129
100
AcDbEntity
8
0
100
AcDbPolyline
90
4
70
1
43
0.0
10
162.26923298157186
20
-38.921195806213838
42
-1.4675987714116381
10
160.68525580641193
20
-36.509821014788542
42
0.18949546288703334
10
160.99103898740023
20
-36.308959008203693
42
-1.4675987714093595
10
162.57501616256019
20
-38.720333799629152
42
0.18949546288696986
0
CIRCLE
5
130
100
AcDbEntity
8
0
100
AcDbCircle
10
38.700198219932815
20
-20.573039290373103
30
0
40
1.4500000000000002
0
CIRCLE
5
131
100
AcDbEntity
8
0
100
AcDbCircle
10
38.700198219932815
20
20.573039290373103
30
0
40
1.4500000000000002
0
CIRCLE
5
132
100
AcDbEntity
8
0
100
AcDbCircle
10
17.700198219933014
20
20.573039290373103
30
0
40
1.4500000000000002
0
CIRCLE
5
133
100
AcDbEntity
8
0
100
AcDbCircle
10
-154.31682157251259
20
42.419027064693111
30
0
40
3.5000000000000044
0
LWPOLYLINE
5
134
100
AcDbEntity
8
0
100
AcDbPolyline
90
4
70
1
43
0.0
10
-158.01551483757663
20
50.677221654740634
42
0.18949546288682126
10
-157.8146528309922
20
50.371438473751951
42
-1.4675987714115237
10
-160.22602762241735
20
48.787461298592298
42
0.18949546288699309
10
-160.42688962900232
20
49.093244479580378
42
-1.467598771409472
0
LWPOLYLINE
5
135
100
AcDbEntity
8
0
100
AcDbPolyline
90
4
70
1
43
0.0
10
-150.61812830744896
20
34.16083247464546
42
0.18949546288664851
10
-150.81899031403344
20
34.466615655634058
42
-1.4675987714116903
10
-148.4076155226079
20
36.050592830793867
42
0.189495462886974
10
-148.20675351602335
20
35.744809649805561
42
-1.4675987714093448
0
ENDSEC
0
SECTION
2
OBJECTS
0
DICTIONARY
5
C
100
AcDbDictionary
3
ACAD_GROUP
350
D
3
ACAD_MLINESTYLE
350
17
0
DICTIONARY
5
D
100
AcDbDictionary
0
DICTIONARY
5
1A
330
C
100
AcDbDictionary
0
DICTIONARY
5
17
100
AcDbDictionary
0
ENDSEC
0
EOF
