0
SECTION
2
HEADER
9
$INSUNITS
70
4
9
$ACADVER
1
AC1014
9
$HANDSEED
5
FFFF
0
ENDSEC
0
SECTION
2
TABLES
0
TABLE
2
VPORT
5
8
100
AcDbSymbolTable
0
ENDTAB
0
TABLE
2
LTYPE
5
5
100
AcDbSymbolTable
0
LTYPE
5
14
100
AcDbSymbolTableRecord
100
AcDbLinetypeTableRecord
2
BYBLOCK
70
0
0
LTYPE
5
15
100
AcDbSymbolTableRecord
100
AcDbLinetypeTableRecord
2
BYLAYER
70
0
0
ENDTAB
0
TABLE
2
LAYER
5
2
100
AcDbSymbolTable
70
2
0
LAYER
5
50
100
AcDbSymbolTableRecord
100
AcDbLayerTableRecord
2
0
70
0
6
CONTINUOUS
0
ENDTAB
0
TABLE
2
STYLE
5
3
100
AcDbSymbolTable
70
1
0
STYLE
5
11
100
AcDbSymbolTableRecord
100
AcDbTextStyleTableRecord
2
STANDARD
70
0
0
ENDTAB
0
TABLE
2
VIEW
5
6
100
AcDbSymbolTable
70
0
0
ENDTAB
0
TABLE
2
UCS
5
7
100
AcDbSymbolTable
70
0
0
ENDTAB
0
TABLE
2
APPID
5
9
100
AcDbSymbolTable
70
2
0
APPID
5
12
100
AcDbSymbolTableRecord
100
AcDbRegAppTableRecord
2
ACAD
70
0
0
ENDTAB
0
TABLE
2
DIMSTYLE
5
A
100
AcDbSymbolTable
70
1
0
ENDTAB
0
TABLE
2
BLOCK_RECORD
5
1
100
AcDbSymbolTable
70
1
0
BLOCK_RECORD
5
1F
100
AcDbSymbolTableRecord
100
AcDbBlockTableRecord
2
*MODEL_SPACE
0
BLOCK_RECORD
5
1B
100
AcDbSymbolTableRecord
100
AcDbBlockTableRecord
2
*PAPER_SPACE
0
ENDTAB
0
ENDSEC
0
SECTION
2
BLOCKS
0
BLOCK
5
20
100
AcDbEntity
100
AcDbBlockBegin
2
*MODEL_SPACE
0
ENDBLK
5
21
100
AcDbEntity
100
AcDbBlockEnd
0
BLOCK
5
1C
100
AcDbEntity
100
AcDbBlockBegin
2
*PAPER_SPACE
0
ENDBLK
5
1D
100
AcDbEntity
100
AcDbBlockEnd
0
ENDSEC
0
SECTION
2
ENTITIES
0
LINE
5
100
100
AcDbEntity
8
0
100
AcDbLine
10
-12.660980591044222
20
7.2586997026168376
30
0
11
-13.669569002462794
21
3.6121774039999721
31
0
0
LWPOLYLINE
5
101
100
AcDbEntity
8
0
100
AcDbPolyline
90
8
70
1
43
0.0
10
-7.8638657173338959
20
-3.917735509647474
42
-0.50154121987857836
10
-9.3575479105042803
20
-3.3360396429530148
10
-10.205998240271299
20
-0.26641234748732184
42
-0.13565756356959666
10
-10.205998240271299
20
0.26641234748732145
10
-9.3575479105042465
20
3.3360396429529517
42
-0.50154121987849876
10
-7.86386571733388
20
3.9177355096475708
10
-2.950194714360066
20
0.84810821418191318
42
-0.55438321313538508
10
-2.950194714360066
20
-0.84810821418187743
0
LINE
5
102
100
AcDbEntity
8
0
100
AcDbLine
10
-13.669569002462651
20
-3.6121774039999899
30
0
11
-12.66098059104408
21
-7.2586997026167843
31
0
0
ARC
5
103
100
AcDbEntity
8
0
100
AcDbCircle
10
-13.52841207465616
20
7.498621817559723
30
0
40
0.89999999999993041
100
AcDbArc
50
-15.460865408217773
51
90.863844958981147
0
ELLIPSE
5
104
100
AcDbEntity
8
0
100
AcDbEllipse
10
0
20
0
30
0
11
-87.899327384149814
21
8.8518166141752726e-13
31
0.0
40
0.096701536324698009
41
4.867067428123363
42
4.9469300601759034
0
LWPOLYLINE
5
105
100
AcDbEntity
8
0
100
AcDbPolyline
90
8
70
1
43
0.0
10
-19.219217449959849
20
0.84810821418186466
42
-0.55438321313530936
10
-19.219217449959842
20
-0.84810821418193072
10
-25.669207019229226
20
-4.8774915459749799
42
-0.49873989764222726
10
-27.160462613657899
20
-4.3044241456981069
10
-28.313164245842426
20
-0.2750408139049309
42
-0.14022445672348552
10
-28.313164245842444
20
0.27504081390494761
10
-27.160462613657881
20
4.3044241456981549
42
-0.49873989764237664
10
-25.669207019229106
20
4.8774915459751256
0
LWPOLYLINE
5
106
100
AcDbEntity
8
0
100
AcDbPolyline
90
4
70
1
43
0.0
10
-20.999999999999943
20
14.499999999954785
42
-0.99999999999999989
10
-20.999999999999943
20
16.499999999954778
10
16.100000000000136
20
16.499999999954831
42
-0.99999999999999989
10
16.100000000000136
20
14.499999999954838
0
LINE
5
107
100
AcDbEntity
8
0
100
AcDbLine
10
-20.883560761193962
20
-6.6042220642168559
30
0
11
-15.16320480516697
21
-3.0306493175324078
31
0
0
ARC
5
108
100
AcDbEntity
8
0
100
AcDbCircle
10
-13.52841207465616
20
-7.4986218175597763
30
0
40
0.89999999999994851
100
AcDbArc
50
-90.863844958981232
51
15.460865408221935
0
ARC
5
109
100
AcDbEntity
8
0
100
AcDbCircle
10
-14.633381762031519
20
3.8787575317143208
30
0
40
0.99999999999998146
100
AcDbArc
50
238.0065006541785
51
344.53913459177903
0
LWPOLYLINE
5
110
100
AcDbEntity
8
0
100
AcDbPolyline
90
4
70
1
43
0.0
10
-20.999999999999943
20
-16.499999999954884
42
-0.99999999999999989
10
-20.999999999999943
20
-14.499999999954856
10
16.100000000000136
20
-14.499999999954873
42
-0.99999999999999989
10
16.100000000000136
20
-16.499999999954866
0
ELLIPSE
5
111
100
AcDbEntity
8
0
100
AcDbEllipse
10
0
20
0
30
0
11
-87.899327384149814
21
-8.3236462373515122e-13
31
0.0
40
0.096701536324698009
41
1.3362552470036784
42
1.4161178790562237
0
ARC
5
112
100
AcDbEntity
8
0
100
AcDbCircle
10
-20.406720022372156
20
7.3675194569805136
30
0
40
0.89999999999998725
100
AcDbArc
50
91.323624557535467
51
238.00650065416949
0
ARC
5
113
100
AcDbEntity
8
0
100
AcDbCircle
10
-14.633381762031519
20
-3.8787575317143386
30
0
40
0.99999999999997669
100
AcDbArc
50
15.460865408218808
51
121.99349934582739
0
ARC
5
114
100
AcDbEntity
8
0
100
AcDbCircle
10
-20.406720022372156
20
-7.3675194569805491
30
0
40
0.89999999999998792
100
AcDbArc
50
121.99349934582348
51
268.67637544243735
0
LWPOLYLINE
5
115
100
AcDbEntity
8
0
100
AcDbPolyline
90
4
70
1
43
0.0
10
27.305173797481075
20
-16.499999999954937
42
-0.99999999999999989
10
27.305173797481075
20
-14.49999999995498
10
55.405173797480955
20
-14.499999999954749
42
-0.99999999999999989
10
55.405173797480955
20
-16.499999999954742
0
LINE
5
116
100
AcDbEntity
8
0
100
AcDbLine
10
-15.163204805166828
20
3.0306493175324256
30
0
11
-20.883560761194104
21
6.6042220642168026
31
0
0
LWPOLYLINE
5
117
100
AcDbEntity
8
0
100
AcDbPolyline
90
8
70
1
43
0.0
10
25.669207019230811
20
-4.8774915459718748
10
19.219217449961413
20
-0.84810821418211335
42
-0.55438321313553462
10
19.219217449961405
20
0.84810821418207283
10
25.66920701923053
20
4.8774915459717585
42
-0.4987398976421194
10
27.160462613659178
20
4.3044241456946786
10
28.31316424584271
20
0.2750408139049309
42
-0.14022445672348552
10
28.313164245842728
20
-0.27504081390494761
10
27.160462613659007
20
-4.3044241456946528
42
-0.49873989764211885
0
LWPOLYLINE
5
118
100
AcDbEntity
8
0
100
AcDbPolyline
90
6
70
1
43
0.0
10
20.88356076119895
20
-6.6042220642160867
42
-0.74458234901000109
10
20.427509619013051
20
-8.2672793097583508
10
13.54197149694798
20
-8.3985196684664771
42
-0.50034863992215528
10
12.660980591044506
20
-7.2586997026165712
10
13.669569002462927
20
-3.6121774039994685
42
-0.50148675529755349
10
15.163204805166828
20
-3.0306493175317684
0
LWPOLYLINE
5
119
100
AcDbEntity
8
0
100
AcDbPolyline
90
6
70
1
43
0.0
10
-4.968881866464443
20
6.8255847735340147
10
-0.52982304313502482
20
4.0524532142535818
42
0.28668399343149614
10
0.52982304313545114
20
4.0524532142535818
10
4.968881866464443
20
6.8255847735339259
42
0.75165468882327624
10
4.4965084173097125
20
8.4888710791866373
10
-4.4964990086246814
20
8.4888711258395944
42
0.75165877900625266
0
LWPOLYLINE
5
120
100
AcDbEntity
8
0
100
AcDbPolyline
90
8
70
1
43
0.0
10
10.205998240271441
20
-0.26641234748732145
10
9.3575479105042749
20
-3.336039642953013
42
-0.5015412198785455
10
7.8638657173340221
20
-3.9177355096475708
10
2.9501947143602001
20
-0.84810821418194349
42
-0.55438321313530936
10
2.9501947143602081
20
0.84810821418187743
10
7.8638657173340469
20
3.9177355096474784
42
-0.50154121987850397
10
9.3575479105042803
20
3.3360396429529615
10
10.205998240271441
20
0.26641234748732195
42
-0.13565756356961597
0
LWPOLYLINE
5
121
100
AcDbEntity
8
0
100
AcDbPolyline
90
6
70
1
43
0.0
10
-4.4964990086248235
20
-8.4888711258395819
42
-0.75165877900619049
10
-4.968881866464443
20
-6.825584773534068
10
-0.52982304313512707
20
-4.0524532142536636
42
-0.28668399343156131
10
0.52982304313559325
20
-4.0524532142535996
10
4.9688818664644598
20
-6.8255847735339703
42
-0.75165877900625655
10
4.4964990086246814
20
-8.4888711258395766
0
LWPOLYLINE
5
122
100
AcDbEntity
8
0
100
AcDbPolyline
90
6
70
1
43
0.0
10
12.660980591044364
20
7.2586997026165356
10
13.669569002462936
20
3.6121774039994925
42
0.50148675529759423
10
15.16320480516697
20
3.0306493175316973
10
20.883560761198936
20
6.604222064216092
42
0.74457839147168636
10
20.427518782249905
20
8.2672790979884958
10
13.541980805467091
20
8.3985195281600511
42
0.5003518733200425
0
LWPOLYLINE
5
123
100
AcDbEntity
8
0
100
AcDbPolyline
90
8
70
1
43
0.0
10
-48.175000016372707
20
16.250000000000036
10
-48.175000016372707
20
14.249999999999883
42
0.99999999999999989
10
-47.175000016372763
20
14.250000000000025
10
-43.175000016372564
20
14.250000000000274
42
0.99999999999999989
10
-42.175000016372621
20
14.25000000000006
10
-42.175000016372479
20
16.250000000000018
42
0.99999999999999989
10
-43.175000016372707
20
16.249999999999947
10
-47.175000016372763
20
16.250000000000178
42
0.99999999999999989
0
LWPOLYLINE
5
124
100
AcDbEntity
8
0
100
AcDbPolyline
90
8
70
1
43
0.0
10
-48.175000016372707
20
-16.25000000000016
42
0.99999999999999989
10
-47.175000016372763
20
-16.250000000000018
10
-43.175000016372564
20
-16.24999999999984
42
0.99999999999999989
10
-42.175000016372621
20
-16.250000000000053
10
-42.175000016372479
20
-14.250000000000007
42
0.99999999999999989
10
-43.175000016372707
20
-14.250000000000078
10
-47.175000016372763
20
-14.249999999999883
42
0.99999999999999989
10
-48.175000016372707
20
-14.250000000000025
0
LWPOLYLINE
5
125
100
AcDbEntity
8
0
100
AcDbPolyline
90
6
70
1
43
0.0
10
-38.383722633966684
20
4.680284806278534
42
-0.69417649550536265
10
-38.009241219714909
20
6.5162538296519124
10
-31.484312845901599
20
7.5423022288831776
42
-0.54805725652009496
10
-30.367538665725107
20
6.2794006057869822
10
-31.605854572900714
20
1.9507440510026357
42
-0.49873989764211352
10
-33.097110167328907
20
1.3776766507254301
0
CIRCLE
5
126
100
AcDbEntity
8
0
100
AcDbCircle
10
-34.750000032745447
20
15.250000000000039
30
0
40
1.5499999999999936
0
LWPOLYLINE
5
127
100
AcDbEntity
8
0
100
AcDbPolyline
90
8
70
1
43
0.0
10
-42.158818036364494
20
3.5013462592225686
10
-37.911677393211683
20
0.84810821418190019
42
-0.55438321313530936
10
-37.911677393211676
20
-0.84810821418189519
10
-42.15881803636448
20
-3.5013462592227502
42
-0.49873989764224802
10
-43.650073630793287
20
-2.9282788589456388
10
-44.409095936008356
20
-0.2750408139049122
42
-0.14022445672347988
10
-44.409095936008356
20
0.27504081390494761
10
-43.650073630793322
20
2.9282788589455793
42
-0.49873989764214688
0
LWPOLYLINE
5
128
100
AcDbEntity
8
0
100
AcDbPolyline
90
8
70
1
43
0.0
10
-63.025000016372701
20
16.249999999999911
42
0.99999999999999989
10
-64.025000016372644
20
16.250000000000053
10
-68.025000016372701
20
16.249999999999911
42
0.99999999999999989
10
-69.025000016372644
20
16.249999999999982
10
-69.025000016372644
20
14.250000000000167
42
0.99999999999999989
10
-68.025000016372701
20
14.250000000000025
10
-64.025000016372644
20
14.250000000000025
42
0.99999999999999989
10
-63.025000016372701
20
14.249999999999883
0
LINE
5
129
100
AcDbEntity
8
0
100
AcDbLine
10
-76.44999999999996
20
-19.250000000000025
30
0
11
64.060000000000201
21
-19.250000000000025
31
0
0
LINE
5
130
100
AcDbEntity
8
0
100
AcDbLine
10
64.060000000000201
20
19.249999999999954
30
0
11
-76.44999999999996
21
19.250000000000096
31
0
0
LWPOLYLINE
5
131
100
AcDbEntity
8
0
100
AcDbPolyline
90
8
70
1
43
0.0
10
-68.025000016372701
20
-14.25000000000022
42
0.99999999999999989
10
-69.025000016372644
20
-14.249999999999972
10
-69.025000016372644
20
-16.249999999999876
42
0.99999999999999989
10
-68.025000016372701
20
-16.250000000000018
10
-64.025000016372644
20
-16.249999999999947
42
0.99999999999999989
10
-63.025000016372701
20
-16.250000000000089
10
-63.025000016372701
20
-14.250000000000167
42
0.99999999999999989
10
-64.025000016372644
20
-14.249999999999989
0
LINE
5
132
100
AcDbEntity
8
0
100
AcDbLine
10
-60.774653527602567
20
-9.863305536650806
30
0
11
-76.798622970990493
21
-11.265221207633029
31
0
0
ARC
5
133
100
AcDbEntity
8
0
100
AcDbCircle
10
-76.44999999999996
20
15.250000000000092
30
0
40
4.0000000000000036
100
AcDbArc
50
90
51
264.99999999999937
0
CIRCLE
5
134
100
AcDbEntity
8
0
100
AcDbCircle
10
-76.44999999999996
20
15.250000000000092
30
0
40
1.5499999999999936
0
LINE
5
135
100
AcDbEntity
8
0
100
AcDbLine
10
-76.798622970990635
20
11.265221207633118
30
0
11
-60.774653527602567
21
9.8633055366507527
31
0
0
ARC
5
136
100
AcDbEntity
8
0
100
AcDbCircle
10
-86.450000000000102
20
-3.5527136788005009e-14
30
0
40
30.000000000000139
100
AcDbArc
50
-13.067404819885997
51
13.067404819886873
0
ARC
5
137
100
AcDbEntity
8
0
100
AcDbCircle
10
-76.44999999999996
20
-15.250000000000021
30
0
40
4.0000000000000018
100
AcDbArc
50
94.999999999998579
51
270
0
CIRCLE
5
138
100
AcDbEntity
8
0
100
AcDbCircle
10
-76.44999999999996
20
-15.250000000000021
30
0
40
1.5499999999999936
0
ARC
5
139
100
AcDbEntity
8
0
100
AcDbCircle
10
-61.123276498593242
20
5.8785267442829081
30
0
40
4.0000000000007869
100
AcDbArc
50
13.067404819887773
51
85.000000000000469
0
ARC
5
140
100
AcDbEntity
8
0
100
AcDbCircle
10
-61.123276498593242
20
-5.8785267442829969
30
0
40
4.0000000000008278
100
AcDbArc
50
274.99999999999955
51
346.93259518011945
0
LWPOLYLINE
5
141
100
AcDbEntity
8
0
100
AcDbPolyline
90
6
70
1
43
0.0
10
55.405173797480955
20
14.499999999954678
10
30.405173797480955
20
14.499999999954891
10
27.306993853067389
20
14.500001656257435
42
-1.0018217149061488
10
27.306993853067354
20
16.499998343652376
10
30.405173797480955
20
16.499999999954902
10
55.405173797480955
20
16.499999999954671
42
-0.99999999999999989
0
LWPOLYLINE
5
142
100
AcDbEntity
8
0
100
AcDbPolyline
90
4
70
1
43
0.0
10
47.550000016372991
20
-3.9000000000000234
10
57.550000016372991
20
-3.9000000000000234
42
-0.99999999999999989
10
57.550000016372991
20
-6.1000000000000476
10
47.550000016372991
20
-6.1000000000000476
42
-0.99999999999999989
0
LWPOLYLINE
5
143
100
AcDbEntity
8
0
100
AcDbPolyline
90
6
70
1
43
0.0
10
-31.484312845901599
20
-7.5423022288831554
10
-38.009241219714895
20
-6.5162538296519115
42
-0.69417649550536464
10
-38.383722633966642
20
-4.6802848062786673
10
-33.097110167329035
20
-1.3776766507253002
42
-0.49873989764211263
10
-31.60585457290054
20
-1.9507440510025731
10
-30.367538665725135
20
-6.2794006057869716
42
-0.5480572565201014
0
CIRCLE
5
144
100
AcDbEntity
8
0
100
AcDbCircle
10
-34.750000032745447
20
-15.250000000000057
30
0
40
1.5499999999999936
0
LWPOLYLINE
5
145
100
AcDbEntity
8
0
100
AcDbPolyline
90
4
70
1
43
0.0
10
57.550000016372991
20
6.0999999999999766
42
-0.99999999999999989
10
57.550000016372991
20
3.8999999999999524
10
47.550000016372991
20
3.9000000000000057
42
-0.99999999999999989
10
47.550000016372991
20
6.0999999999999943
0
LINE
5
146
100
AcDbEntity
8
0
100
AcDbLine
10
68.059999999999974
20
12.50727450069391
30
0
11
68.059999999999974
21
15.249999999999968
31
0
0
LWPOLYLINE
5
147
100
AcDbEntity
8
0
100
AcDbPolyline
90
8
70
1
43
0.0
10
65.134509810196576
20
6.6675496399874445
42
0.41421356237299278
10
65.775366192252278
20
6.3687134012573487
10
66.245212502645217
20
6.5397234729202003
42
0.41421356237331552
10
66.544048741375263
20
7.1805798549759459
10
65.688998383061133
20
9.5298114069407092
42
0.41421356237301771
10
65.048142001005402
20
9.8286476456708627
10
64.578295690612322
20
9.6576375740079694
42
0.41421356237330575
10
64.279459451882275
20
9.0167811919522478
0
CIRCLE
5
148
100
AcDbEntity
8
0
100
AcDbCircle
10
21.75000003274576
20
15.249999999999968
30
0
40
1.549999999999998
0
CIRCLE
5
149
100
AcDbEntity
8
0
100
AcDbCircle
10
21.75000003274576
20
-15.250000000000057
30
0
40
1.5500000000000025
0
LWPOLYLINE
5
150
100
AcDbEntity
8
0
100
AcDbPolyline
90
6
70
1
43
0.0
10
38.383722633966883
20
-4.6802848062787392
42
-0.69417649550522809
10
38.009241219715051
20
-6.5162538296520189
10
31.484312845901741
20
-7.5423022288832628
42
-0.54805725651995518
10
30.367538665725391
20
-6.279400605787
10
31.605854572900824
20
-1.9507440510026275
42
-0.49873989764199872
10
33.097110167329191
20
-1.3776766507254123
0
LWPOLYLINE
5
151
100
AcDbEntity
8
0
100
AcDbPolyline
90
8
70
1
43
0.0
10
43.650073630794033
20
-2.9282788589431568
42
-0.49873989764214732
10
42.158818036365631
20
-3.5013462592203304
10
37.911677393213246
20
-0.84810821418211335
42
-0.5543832131357771
10
37.911677393213239
20
0.84810821418210836
10
42.158818036365673
20
3.50134625922023
42
-0.49873989764211274
10
43.650073630793997
20
2.9282788589431163
10
44.409095936008484
20
0.2750408139049309
42
-0.14022445672348552
10
44.409095936008498
20
-0.27504081390494761
0
LWPOLYLINE
5
152
100
AcDbEntity
8
0
100
AcDbPolyline
90
6
70
1
43
0.0
10
38.383722633966926
20
4.6802848062785962
10
33.097110167329198
20
1.3776766507253335
42
-0.49873989764210258
10
31.605854572900682
20
1.9507440510025553
10
30.367538665725434
20
6.2794006057869591
42
-0.54805725652015935
10
31.484312845901741
20
7.5423022288831376
10
38.009241219715065
20
6.5162538296520323
42
-0.69417649550522709
0
LINE
5
153
100
AcDbEntity
8
0
100
AcDbLine
10
68.060000000000116
20
-6.2657191057210504
30
0
11
68.059999999999974
21
-6.2500000000000178
31
0
0
LWPOLYLINE
5
154
100
AcDbEntity
8
0
100
AcDbPolyline
90
8
70
1
43
0.0
10
66.245212502645217
20
-6.5397234729202225
10
65.775366192252278
20
-6.368713401257331
42
0.41421356237309503
10
65.13450981019659
20
-6.66754963998752
10
64.279459451882303
20
-9.0167811919522283
42
0.41421356237325152
10
64.578295690612322
20
-9.6576375740080778
10
65.048142001005402
20
-9.8286476456709657
42
0.41421356237307194
10
65.68899838306109
20
-9.529811406940798
10
66.544048741375221
20
-7.1805798549760027
42
0.41421356237283097
0
CIRCLE
5
155
100
AcDbEntity
8
0
100
AcDbCircle
10
64.060000000000201
20
-15.250000000000021
30
0
40
1.5500000000000005
0
ARC
5
156
100
AcDbEntity
8
0
100
AcDbCircle
10
68.543774475755157
20
-10.256799255475038
30
-1.6571141202571613e-47
40
1.4999999999999716
100
AcDbArc
50
159.9999999999977
51
228.60410215562371
0
ARC
5
157
100
AcDbEntity
8
0
100
AcDbCircle
10
65.060000000000002
20
-6.2500000000000533
30
0
40
2.9999999999999716
100
AcDbArc
50
0
51
80.603716766905464
0
ARC
5
158
100
AcDbEntity
8
0
100
AcDbCircle
10
62.760000000000247
20
-6.2657191057210504
30
0
40
5.2999999999996605
100
AcDbArc
50
-20.00000000000237
51
0
0
ARC
5
159
100
AcDbEntity
8
0
100
AcDbCircle
10
64.060000000000201
20
-15.250000000000021
30
0
40
4.0000000000000036
100
AcDbArc
50
-90
51
0
0
ARC
5
160
100
AcDbEntity
8
0
100
AcDbCircle
10
66.559999999999917
20
12.50727450069391
30
0
40
1.5000000000002109
100
AcDbArc
50
-48.604102155621405
51
0
0
LINE
5
161
100
AcDbEntity
8
0
100
AcDbLine
10
68.060000000000258
20
-15.250000000000021
30
0
11
68.059999999999974
21
-12.507274500693928
31
0
0
LINE
5
162
100
AcDbEntity
8
0
100
AcDbLine
10
67.134235544576342
20
-9.7437690404864874
30
-1.6571141202571613e-47
11
67.740370890165167
21
-8.0784258653471852
31
0
0
LINE
5
163
100
AcDbEntity
8
0
100
AcDbLine
10
68.059999999999974
20
6.2499999999999822
30
0
11
68.059999999999974
21
6.2657191057209438
31
0
0
ARC
5
164
100
AcDbEntity
8
0
100
AcDbCircle
10
67.322355195344983
20
-6.5516307152679509
30
0
40
9.9999999999997904
100
AcDbArc
50
100.0220592792502
51
112.72951953596251
0
ARC
5
165
100
AcDbEntity
8
0
100
AcDbCircle
10
67.32425178615955
20
6.5542825934696225
30
0
40
10.003178764532358
100
AcDbArc
50
247.26632985133347
51
259.78221682190718
0
ARC
5
166
100
AcDbEntity
8
0
100
AcDbCircle
10
62.75999999999982
20
6.2657191057208728
30
0
40
5.3000000000001535
100
AcDbArc
50
0
51
20.000000000000643
0
LINE
5
167
100
AcDbEntity
8
0
100
AcDbLine
10
67.740370890165309
20
8.0784258653470431
30
0
11
67.134235544576342
21
9.7437690404864519
31
0
0
ARC
5
168
100
AcDbEntity
8
0
100
AcDbCircle
10
65.060000000000002
20
6.2499999999999822
30
0
40
3.0000000000000475
100
AcDbArc
50
-79.977940720756806
51
0
0
ARC
5
169
100
AcDbEntity
8
0
100
AcDbCircle
10
68.543774475755157
20
10.256799255474984
30
-1.6410775319966081e-47
40
1.4999999999999827
100
AcDbArc
50
131.39589784437177
51
200.00000000000168
0
ARC
5
170
100
AcDbEntity
8
0
100
AcDbCircle
10
64.060000000000201
20
15.249999999999968
30
0
40
3.9999999999997726
100
AcDbArc
50
0
51
90
0
CIRCLE
5
171
100
AcDbEntity
8
0
100
AcDbCircle
10
64.060000000000201
20
15.249999999999968
30
0
40
1.5500000000000005
0
ARC
5
172
100
AcDbEntity
8
0
100
AcDbCircle
10
66.560000000000201
20
-12.50727450069391
30
0
40
1.4999999999997726
100
AcDbArc
50
0
51
48.604102155632745
0
ARC
5
173
100
AcDbEntity
8
0
100
AcDbCircle
10
65.309000216144142
20
-4.7961634663806763e-13
30
0
40
3.250000003103179
100
AcDbArc
50
124.70642285224753
51
235.29357740578268
0
ENDSEC
0
SECTION
2
OBJECTS
0
DICTIONARY
5
C
100
AcDbDictionary
3
ACAD_GROUP
350
D
3
ACAD_MLINESTYLE
350
17
0
DICTIONARY
5
D
100
AcDbDictionary
0
DICTIONARY
5
1A
330
C
100
AcDbDictionary
0
DICTIONARY
5
17
100
AcDbDictionary
0
ENDSEC
0
EOF
