0
SECTION
2
HEADER
9
$INSUNITS
70
4
9
$ACADVER
1
AC1014
9
$HANDSEED
5
FFFF
0
ENDSEC
0
SECTION
2
TABLES
0
TABLE
2
VPORT
5
8
100
AcDbSymbolTable
0
ENDTAB
0
TABLE
2
LTYPE
5
5
100
AcDbSymbolTable
0
LTYPE
5
14
100
AcDbSymbolTableRecord
100
AcDbLinetypeTableRecord
2
BYBLOCK
70
0
0
LTYPE
5
15
100
AcDbSymbolTableRecord
100
AcDbLinetypeTableRecord
2
BYLAYER
70
0
0
ENDTAB
0
TABLE
2
LAYER
5
2
100
AcDbSymbolTable
70
2
0
LAYER
5
50
100
AcDbSymbolTableRecord
100
AcDbLayerTableRecord
2
0
70
0
6
CONTINUOUS
0
ENDTAB
0
TABLE
2
STYLE
5
3
100
AcDbSymbolTable
70
1
0
STYLE
5
11
100
AcDbSymbolTableRecord
100
AcDbTextStyleTableRecord
2
STANDARD
70
0
0
ENDTAB
0
TABLE
2
VIEW
5
6
100
AcDbSymbolTable
70
0
0
ENDTAB
0
TABLE
2
UCS
5
7
100
AcDbSymbolTable
70
0
0
ENDTAB
0
TABLE
2
APPID
5
9
100
AcDbSymbolTable
70
2
0
APPID
5
12
100
AcDbSymbolTableRecord
100
AcDbRegAppTableRecord
2
ACAD
70
0
0
ENDTAB
0
TABLE
2
DIMSTYLE
5
A
100
AcDbSymbolTable
70
1
0
ENDTAB
0
TABLE
2
BLOCK_RECORD
5
1
100
AcDbSymbolTable
70
1
0
BLOCK_RECORD
5
1F
100
AcDbSymbolTableRecord
100
AcDbBlockTableRecord
2
*MODEL_SPACE
0
BLOCK_RECORD
5
1B
100
AcDbSymbolTableRecord
100
AcDbBlockTableRecord
2
*PAPER_SPACE
0
ENDTAB
0
ENDSEC
0
SECTION
2
BLOCKS
0
BLOCK
5
20
100
AcDbEntity
100
AcDbBlockBegin
2
*MODEL_SPACE
0
ENDBLK
5
21
100
AcDbEntity
100
AcDbBlockEnd
0
BLOCK
5
1C
100
AcDbEntity
100
AcDbBlockBegin
2
*PAPER_SPACE
0
ENDBLK
5
1D
100
AcDbEntity
100
AcDbBlockEnd
0
ENDSEC
0
SECTION
2
ENTITIES
0
LWPOLYLINE
5
100
100
AcDbEntity
8
0
100
AcDbPolyline
90
8
70
1
43
0.0
10
-2.9501947143544527
20
-0.84810821418336968
42
0.55438321313548233
10
-2.9501947143544527
20
0.8481082141805274
10
-7.8638657173282835
20
3.9177355096462643
42
0.50154121987853573
10
-9.357547910498667
20
3.3360396429515049
10
-10.205998240265524
20
0.26641234748587767
42
0.13565756356966313
10
-10.205998240265544
20
-0.26641234748879583
10
-9.3575479104987007
20
-3.336039642954459
42
0.50154121987834588
10
-7.8638657173284088
20
-3.9177355096490629
0
LINE
5
101
100
AcDbEntity
8
0
100
AcDbLine
10
-21.413738986795394
20
36.680313149894985
30
0
11
-21.355384865662117
21
36.599104797209421
31
0
0
LINE
5
102
100
AcDbEntity
8
0
100
AcDbLine
10
18.098913244369825
20
21.699511092018824
30
2.7796752984958829e-48
11
22.300409966133614
21
27.546512485639241
31
3.6349600057253855e-48
0
CIRCLE
5
103
100
AcDbEntity
8
0
100
AcDbCircle
10
27.504365438494673
20
32.303754064724117
30
0
40
1.4749999999999996
0
LWPOLYLINE
5
104
100
AcDbEntity
8
0
100
AcDbPolyline
90
8
70
1
43
0.0
10
7.8638657173396354
20
3.9177355096460786
10
2.9501947143656797
20
0.84810821418031423
42
0.55438321313530026
10
2.9501947143656793
20
-0.84810821418344062
10
7.8638657173396185
20
-3.9177355096490176
42
0.50154121987853773
10
9.3575479105098935
20
-3.3360396429544892
10
10.20599824027693
20
-0.26641234748880116
42
0.13565756356964392
10
10.205998240276912
20
0.26641234748588261
10
9.3575479105099273
20
3.3360396429514747
42
0.50154121987834588
0
LWPOLYLINE
5
105
100
AcDbEntity
8
0
100
AcDbPolyline
90
4
70
1
43
0.0
10
-24.655452194120002
20
25.854242972706629
10
-20.453955472355979
20
20.007241579085854
42
0.9999999925494194
10
-18.098913231761529
20
21.699511074472397
10
-22.30040996613404
20
27.546512485639312
42
0.99999999999999989
0
LINE
5
106
100
AcDbEntity
8
0
100
AcDbLine
10
14.225588176875945
20
26.676942782994715
30
0
11
21.413738840978951
21
36.680312946955311
31
0
0
ARC
5
107
100
AcDbEntity
8
0
100
AcDbCircle
10
-51.898372726389184
20
-2.2026824808563106e-12
30
0
40
31.162315425389245
100
AcDbArc
50
-35.088948273917786
51
35.088948273921439
0
ARC
5
108
100
AcDbEntity
8
0
100
AcDbCircle
10
51.898372726399842
20
-2.2026824808563106e-12
30
0
40
31.162315425389252
100
AcDbArc
50
144.91105172607857
51
215.08894827391788
0
LINE
5
109
100
AcDbEntity
8
0
100
AcDbLine
10
-21.336530921635344
20
36.572900713317082
30
0
11
-12.895401653483063
21
24.82953867282049
31
0
0
ARC
5
110
100
AcDbEntity
8
0
100
AcDbCircle
10
-0.00015590003123122642
20
35.519493628669636
30
0
40
16.750000000000036
100
AcDbArc
50
219.65819494399955
51
328.13541459468036
0
ARC
5
111
100
AcDbEntity
8
0
100
AcDbCircle
10
19.276434358362806
20
20.85337633555234
30
2.7796752984958829e-48
40
1.4499999999999538
100
AcDbArc
50
144.29999999999322
51
324.30000085376679
0
LINE
5
112
100
AcDbEntity
8
0
100
AcDbLine
10
24.65545219411986
20
25.8542429727067
30
3.6349600057253855e-48
11
20.453955484964084
21
20.007241596632355
31
0
0
CIRCLE
5
113
100
AcDbEntity
8
0
100
AcDbCircle
10
15.24984409997451
20
15.249999999998636
30
0
40
1.4749999999999996
0
ARC
5
114
100
AcDbEntity
8
0
100
AcDbCircle
10
-1.799173077188243e-07
20
51.944505406456258
30
0
40
26.297029773995714
100
AcDbArc
50
215.6999999996284
51
215.77033571586219
0
CIRCLE
5
115
100
AcDbEntity
8
0
100
AcDbCircle
10
-15.250155900024893
20
15.249999999998636
30
0
40
1.4749999999999996
0
LINE
5
116
100
AcDbEntity
8
0
100
AcDbLine
10
33.59499189018301
20
27.927194979553249
30
0
11
26.399477360389412
21
17.913576912069402
31
0
0
ARC
5
117
100
AcDbEntity
8
0
100
AcDbCircle
10
23.477931080126737
20
26.70037772917297
30
3.6349600057253855e-48
40
1.4499999999999447
100
AcDbArc
50
-35.699999999996713
51
144.30000000000331
0
ARC
5
118
100
AcDbEntity
8
0
100
AcDbCircle
10
27.504365438494531
20
32.303754064724188
30
0
40
7.5000000000000231
100
AcDbArc
50
-35.700000000000678
51
144.3000019090963
0
LWPOLYLINE
5
119
100
AcDbEntity
8
0
100
AcDbPolyline
90
4
70
1
43
0.0
10
-22.300409966133898
20
-27.546512485639312
10
-18.098913244369825
20
-21.699511092018895
42
0.99999999999999989
10
-20.453955472355929
20
-20.007241579085999
10
-24.655452194120144
20
-25.854242972706771
42
0.99999999999999989
0
CIRCLE
5
120
100
AcDbEntity
8
0
100
AcDbCircle
10
9.9999999999999289
20
10
30
0
40
2.1000000000000001
0
CIRCLE
5
121
100
AcDbEntity
8
0
100
AcDbCircle
10
-9.9999999999999289
20
10
30
0
40
2.1000000000000001
0
ARC
5
122
100
AcDbEntity
8
0
100
AcDbCircle
10
-27.504365438483873
20
32.303754064724188
30
0
40
7.4999999999998668
100
AcDbArc
50
35.699999999999775
51
215.70000170754867
0
LINE
5
123
100
AcDbEntity
8
0
100
AcDbLine
10
-26.399477360378754
20
17.913576912069402
30
0
11
-33.59499175974058
21
27.927194798038428
31
0
0
CIRCLE
5
124
100
AcDbEntity
8
0
100
AcDbCircle
10
-27.504365438483731
20
32.303754064724117
30
0
40
1.4749999999999996
0
LINE
5
125
100
AcDbEntity
8
0
100
AcDbLine
10
-21.355392153136066
20
-36.59909956161691
30
0
11
-21.413738856363764
21
-36.680312968382864
31
0
0
CIRCLE
5
126
100
AcDbEntity
8
0
100
AcDbCircle
10
15.24984409997451
20
-15.250000000000341
30
0
40
1.4749999999999996
0
LWPOLYLINE
5
127
100
AcDbEntity
8
0
100
AcDbPolyline
90
4
70
1
43
0.0
10
18.098913244369825
20
-21.699511092018895
10
22.300409966133756
20
-27.546512485639525
42
0.99999999999999989
10
24.655452194119718
20
-25.854242972706558
10
20.453955472355787
20
-20.007241579085928
42
0.99999999999999989
0
CIRCLE
5
128
100
AcDbEntity
8
0
100
AcDbCircle
10
27.504365438494673
20
-32.303754064726817
30
0
40
1.4749999999999996
0
CIRCLE
5
129
100
AcDbEntity
8
0
100
AcDbCircle
10
-10.000155900025121
20
-10.000000000000924
30
0
40
2.1000000000000001
0
CIRCLE
5
130
100
AcDbEntity
8
0
100
AcDbCircle
10
9.9999999999999289
20
-10
30
0
40
2.1000000000000001
0
LINE
5
131
100
AcDbEntity
8
0
100
AcDbLine
10
-14.219123003488576
20
-26.666049411262094
30
0
11
-21.355392153136066
21
-36.59909956161691
31
0
0
LINE
5
132
100
AcDbEntity
8
0
100
AcDbLine
10
21.355384865670359
20
-36.599104797208426
30
0
11
14.23179276052899
21
-26.686932430289616
31
0
0
CIRCLE
5
133
100
AcDbEntity
8
0
100
AcDbCircle
10
-15.250155900024893
20
-15.250000000000341
30
0
40
1.4749999999999996
0
CIRCLE
5
134
100
AcDbEntity
8
0
100
AcDbCircle
10
-27.504365438483731
20
-32.303754064726817
30
0
40
1.4749999999999996
0
ARC
5
135
100
AcDbEntity
8
0
100
AcDbCircle
10
27.504365438494531
20
-32.303754064726675
30
0
40
7.5000000000000853
100
AcDbArc
50
-144.30000000000194
51
35.69999999999807
0
LINE
5
136
100
AcDbEntity
8
0
100
AcDbLine
10
-33.594991890172494
20
-27.927194979555878
30
0
11
-26.399477360377617
21
-17.913576912072173
31
0
0
ARC
5
137
100
AcDbEntity
8
0
100
AcDbCircle
10
-0.00015590003123122642
20
-35.519493628672123
30
0
40
16.749999999999822
100
AcDbArc
50
31.824359754530629
51
148.09152986752463
0
LINE
5
138
100
AcDbEntity
8
0
100
AcDbLine
10
26.399477360388275
20
-17.913576912072244
30
0
11
33.594991890183294
21
-27.927194979555949
31
0
0
LINE
5
139
100
AcDbEntity
8
0
100
AcDbLine
10
21.413738986805768
20
-36.680313149897401
30
0
11
21.355384865670359
21
-36.599104797208426
31
0
0
ARC
5
140
100
AcDbEntity
8
0
100
AcDbCircle
10
-27.504365438483873
20
-32.303754064726675
30
0
40
7.5000000000000231
100
AcDbArc
50
144.30000000000086
51
324.30000170754624
0
ENDSEC
0
SECTION
2
OBJECTS
0
DICTIONARY
5
C
100
AcDbDictionary
3
ACAD_GROUP
350
D
3
ACAD_MLINESTYLE
350
17
0
DICTIONARY
5
D
100
AcDbDictionary
0
DICTIONARY
5
1A
330
C
100
AcDbDictionary
0
DICTIONARY
5
17
100
AcDbDictionary
0
ENDSEC
0
EOF
