0
SECTION
2
HEADER
9
$INSUNITS
70
4
9
$ACADVER
1
AC1014
9
$HANDSEED
5
FFFF
0
ENDSEC
0
SECTION
2
TABLES
0
TABLE
2
VPORT
5
8
100
AcDbSymbolTable
0
ENDTAB
0
TABLE
2
LTYPE
5
5
100
AcDbSymbolTable
0
LTYPE
5
14
100
AcDbSymbolTableRecord
100
AcDbLinetypeTableRecord
2
BYBLOCK
70
0
0
LTYPE
5
15
100
AcDbSymbolTableRecord
100
AcDbLinetypeTableRecord
2
BYLAYER
70
0
0
ENDTAB
0
TABLE
2
LAYER
5
2
100
AcDbSymbolTable
70
2
0
LAYER
5
50
100
AcDbSymbolTableRecord
100
AcDbLayerTableRecord
2
0
70
0
6
CONTINUOUS
0
ENDTAB
0
TABLE
2
STYLE
5
3
100
AcDbSymbolTable
70
1
0
STYLE
5
11
100
AcDbSymbolTableRecord
100
AcDbTextStyleTableRecord
2
STANDARD
70
0
0
ENDTAB
0
TABLE
2
VIEW
5
6
100
AcDbSymbolTable
70
0
0
ENDTAB
0
TABLE
2
UCS
5
7
100
AcDbSymbolTable
70
0
0
ENDTAB
0
TABLE
2
APPID
5
9
100
AcDbSymbolTable
70
2
0
APPID
5
12
100
AcDbSymbolTableRecord
100
AcDbRegAppTableRecord
2
ACAD
70
0
0
ENDTAB
0
TABLE
2
DIMSTYLE
5
A
100
AcDbSymbolTable
70
1
0
ENDTAB
0
TABLE
2
BLOCK_RECORD
5
1
100
AcDbSymbolTable
70
1
0
BLOCK_RECORD
5
1F
100
AcDbSymbolTableRecord
100
AcDbBlockTableRecord
2
*MODEL_SPACE
0
BLOCK_RECORD
5
1B
100
AcDbSymbolTableRecord
100
AcDbBlockTableRecord
2
*PAPER_SPACE
0
ENDTAB
0
ENDSEC
0
SECTION
2
BLOCKS
0
BLOCK
5
20
100
AcDbEntity
100
AcDbBlockBegin
2
*MODEL_SPACE
0
ENDBLK
5
21
100
AcDbEntity
100
AcDbBlockEnd
0
BLOCK
5
1C
100
AcDbEntity
100
AcDbBlockBegin
2
*PAPER_SPACE
0
ENDBLK
5
1D
100
AcDbEntity
100
AcDbBlockEnd
0
ENDSEC
0
SECTION
2
ENTITIES
0
LWPOLYLINE
5
100
100
AcDbEntity
8
0
100
AcDbPolyline
90
52
70
1
43
0.0
10
-33.824066836479069
20
-28.265019827404501
42
0.97314916308914889
10
-21.413738986767328
20
-36.680313149910688
10
-21.307820863165045
20
-36.532912483594558
42
-0.51086953742058838
10
21.307509062957593
20
-36.532912483351865
10
21.413427186734356
20
-36.680313149910489
42
0.97314916308857369
10
33.823755036520133
20
-28.265019827357065
42
-0.077782389360676052
10
33.326805816556771
20
-27.132193841835146
42
-0.49201142728630981
10
39.397914644942915
20
-19.25000000002278
10
69.949844099983807
20
-19.250000000003737
42
0.35265198786961371
10
73.858044218195317
20
-16.102039808942418
42
0.033946451557166857
10
75.357605677809545
20
-5.9596684684154155
42
0.4117713106952029
10
74.447874058673591
20
-4.8846347715987548
10
73.745035473036609
20
-4.8231443630672164
42
-0.4038595595520581
10
72.833531848957165
20
-3.7751860769462908
42
0.025899154646983107
10
72.83353184895708
20
3.7751860769416323
42
-0.40385955955197611
10
73.745035473036609
20
4.8231443630619708
10
74.447874058673591
20
4.8846347715937988
42
0.41177131069534262
10
75.357605677809687
20
5.9596684684070045
42
0.033946451557217427
10
73.858044218193641
20
16.102039808943953
42
0.35265198786916102
10
69.949844099983807
20
19.249999999998693
10
39.397914644939512
20
19.250000000017813
42
-0.49201142728631364
10
33.326805816556664
20
27.132193841830059
42
-0.077782389360787518
10
33.823755036446379
20
28.26501982739935
42
0.97314916308852095
10
21.413427186805905
20
36.680313149854697
10
21.307509062964776
20
36.532912483357663
42
-0.51086953742283048
10
-21.30782086326775
20
36.532912483732431
10
-21.413738986767061
20
36.680313149905757
42
0.97314916308918864
10
-33.824066836478877
20
28.265019827399215
42
-0.077782389360781037
10
-33.327117616588907
20
27.132193841829832
42
-0.49201142728631225
10
-39.398226444972124
20
19.250000000017877
10
-70.560347595575053
20
19.249999999997168
42
0.41708396926167468
10
-74.560155900016127
20
15.210839717481619
10
-74.560155900016113
20
12.507274500692063
42
0.21531309579459584
10
-74.052043137893563
20
11.382036878082559
42
-0.30861528587751441
10
-73.634391444592353
20
9.7437690404846222
10
-74.240526790181463
20
8.078425865345265
42
0.087488663525900068
10
-74.560155900016127
20
6.2657191057191142
10
-74.560155900016127
20
6.2499999999980815
42
0.41421356237309503
10
-71.560155900016156
20
3.24999999999811
10
-65.309156116160096
20
3.2499999999971152
42
-0.99999999999999989
10
-65.309156116160096
20
-3.250000000002089
10
-71.560155900016156
20
-3.2500000000019469
42
0.41421356237309503
10
-74.560155900016127
20
-6.2500000000019185
10
-74.560155900016142
20
-6.2657191057228108
42
0.087488663525900068
10
-74.240526790181463
20
-8.0784258653489616
10
-73.634391444592325
20
-9.7437690404883046
42
-0.30861528587749465
10
-74.052043137893534
20
-11.382036878086346
42
0.21531309579455021
10
-74.560155900016127
20
-12.507274500695829
10
-74.560155900016142
20
-15.210839717505849
42
0.4170839692602723
10
-70.560347595575053
20
-19.250000000002103
10
-39.398226444972131
20
-19.250000000022979
42
-0.4920114272863399
10
-33.327117616589177
20
-27.132193841835125
42
-0.077782389360631476
0
CIRCLE
5
101
100
AcDbEntity
8
0
100
AcDbCircle
10
-27.50436543845808
20
-32.303754064743231
30
0
40
2.2499999999999964
0
ARC
5
102
100
AcDbEntity
8
0
100
AcDbCircle
10
-9.3589472952115216
20
-23.487640288549869
30
6.4146353042212696e-49
40
1.0000000000000044
100
AcDbArc
50
-55.000000000003091
51
124.99999906393533
0
LINE
5
103
100
AcDbEntity
8
0
100
AcDbLine
10
-11.980403842284915
20
-24.102429335138496
30
0
11
-9.9325237181797377
21
-22.668488234890134
31
6.4146353042212696e-49
0
LWPOLYLINE
5
104
100
AcDbEntity
8
0
100
AcDbPolyline
90
4
70
1
43
0.0
10
58.618582272545439
20
4.749999999997101
10
65.118582272545495
20
4.749999999997101
42
0.99999999999999989
10
65.118582272545495
20
7.7499999999970726
10
58.618582272545439
20
7.7499999999970726
42
0.99999999999999989
0
LINE
5
105
100
AcDbEntity
8
0
100
AcDbLine
10
-18.098913244360659
20
-21.699511092021737
30
-1.9243905912663806e-48
11
-22.300409983955944
21
-27.546512510457006
31
2.2340787492784104e-33
0
ARC
5
106
100
AcDbEntity
8
0
100
AcDbCircle
10
-23.477931080117997
20
-26.700377729176097
30
-9.4081317795245275e-48
40
1.4499999999999122
100
AcDbArc
50
144.29999999999549
51
324.29999879257485
0
CIRCLE
5
107
100
AcDbEntity
8
0
100
AcDbCircle
10
27.504053638458856
20
-32.303754064714525
30
0
40
3.1499999999999995
0
ARC
5
108
100
AcDbEntity
8
0
100
AcDbCircle
10
-19.276434358353924
20
-20.853376335555396
30
-1.9243905912663806e-48
40
1.4500000000001014
100
AcDbArc
50
-35.69999999999569
51
144.30000000000661
0
LWPOLYLINE
5
109
100
AcDbEntity
8
0
100
AcDbPolyline
90
4
70
1
43
0.0
10
65.118582272545495
20
1.4999999999970726
10
56.200000016387435
20
1.4999999999970726
42
0.99999999999999989
10
56.200000016387435
20
-1.500000000002899
10
65.118582272545495
20
-1.500000000002899
42
0.99999999999999989
0
LWPOLYLINE
5
110
100
AcDbEntity
8
0
100
AcDbPolyline
90
6
70
1
43
0.0
10
30.367382765708868
20
-6.2794006057889362
10
31.605698672884589
20
-1.9507440510044927
42
-0.49873989764205084
10
33.09695426731281
20
-1.3776766507273663
10
38.383566733950708
20
-4.6802848062803877
42
-0.69417649550521843
10
38.009085319698812
20
-6.5162538296537775
10
31.484156945885506
20
-7.5423022288848802
42
-0.54805725652008874
0
ARC
5
111
100
AcDbEntity
8
0
100
AcDbCircle
10
-11.40682740593391
20
-24.921581379427522
30
0
40
1.0000000000000044
100
AcDbArc
50
124.9999999999969
51
305.00000000000159
0
CIRCLE
5
112
100
AcDbEntity
8
0
100
AcDbCircle
10
-27.50436543845808
20
-32.303754064743231
30
0
40
3.1499999999999995
0
LWPOLYLINE
5
113
100
AcDbEntity
8
0
100
AcDbPolyline
90
8
70
1
43
0.0
10
44.518530570888686
20
14.249999999996987
10
53.518530570888458
20
14.249999999997058
42
0.99999999999999989
10
54.518530570888686
20
14.249999999997058
10
54.518530570888544
20
16.249999999996803
42
0.99999999999999989
10
53.518530570888601
20
16.249999999997087
10
44.518530570888544
20
16.249999999996803
42
0.99999999999999989
10
43.518530570888601
20
16.249999999997087
10
43.518530570888458
20
14.249999999996845
42
0.99999999999999989
0
LINE
5
114
100
AcDbEntity
8
0
100
AcDbLine
10
-8.7853708588605173
20
-24.306792332838896
30
6.4146353042212696e-49
11
-10.833250969582906
21
-25.740733423716406
31
0
0
CIRCLE
5
115
100
AcDbEntity
8
0
100
AcDbCircle
10
57.059156116189911
20
9.9999999999975131
30
0
40
0.99999999999999645
0
ARC
5
116
100
AcDbEntity
8
0
100
AcDbCircle
10
-23.47793108011814
20
26.700377729171123
30
0
40
1.4499999999999864
100
AcDbArc
50
35.699999999998965
51
215.69999999999897
0
CIRCLE
5
117
100
AcDbEntity
8
0
100
AcDbCircle
10
69.949844099983807
20
15.249999999998138
30
0
40
1.5500000000000025
0
LINE
5
118
100
AcDbEntity
8
0
100
AcDbLine
10
-9.9325237315575521
20
22.668488244256224
30
-4.0626023577470449e-48
11
-11.980403842280083
21
24.102429335133877
31
0
0
LWPOLYLINE
5
119
100
AcDbEntity
8
0
100
AcDbPolyline
90
8
70
1
43
0.0
10
-70.779615351898286
20
-9.0167811919541663
10
-71.634665710212346
20
-6.6675496399892733
42
0.41421356237328
10
-72.275522092268289
20
-6.3687134012592139
10
-72.745368402661242
20
-6.5397234729220113
42
0.41421356237313417
10
-73.044204641391417
20
-7.1805798549777933
10
-72.189154283077073
20
-9.5298114069426898
42
0.41421356237305595
10
-71.548297901021414
20
-9.8286476456728167
10
-71.078451590628475
20
-9.6576375740098541
42
0.41421356237309503
0
CIRCLE
5
120
100
AcDbEntity
8
0
100
AcDbCircle
10
-9.9999999999852207
20
9.9999999999975131
30
0
40
1.5500000000000005
0
CIRCLE
5
121
100
AcDbEntity
8
0
100
AcDbCircle
10
-28.249999999986528
20
15.249999999997002
30
0
40
1.5500000000000025
0
LWPOLYLINE
5
122
100
AcDbEntity
8
0
100
AcDbPolyline
90
6
70
1
43
0.0
10
-38.383878533982944
20
4.6802848062769336
42
-0.69417649550522409
10
-38.009397119731148
20
6.5162538296500827
10
-31.484468745917845
20
7.5423022288813186
42
-0.54805725651993198
10
-30.367694565741488
20
6.2794006057851703
10
-31.606010472917067
20
1.9507440510007978
42
-0.49873989764212656
10
-33.097266067345288
20
1.3776766507235294
0
LWPOLYLINE
5
123
100
AcDbEntity
8
0
100
AcDbPolyline
90
4
70
1
43
0.0
10
-42.40517379777998
20
-16.500000000002117
10
-62.405173797780122
20
-16.50000000000226
42
-0.99999999999999989
10
-62.405173797780122
20
-14.500000000002089
10
-42.40517379777998
20
-14.500000000002231
42
-0.99999999999999989
0
LWPOLYLINE
5
124
100
AcDbEntity
8
0
100
AcDbPolyline
90
8
70
1
43
0.0
10
-71.078451590628475
20
9.6576375740061593
10
-71.548297901021414
20
9.8286476456690508
42
0.41421356237309503
10
-72.189154283077102
20
9.5298114069388618
10
-73.044204641391474
20
7.1805798549741926
42
0.41421356237310925
10
-72.745368402661228
20
6.5397234729184106
10
-72.275522092268289
20
6.3687134012556506
42
0.41421356237331908
10
-71.63466571021246
20
6.6675496399856371
10
-70.779615351898315
20
9.0167811919504075
42
0.41421356237313417
0
LWPOLYLINE
5
125
100
AcDbEntity
8
0
100
AcDbPolyline
90
4
70
1
43
0.0
10
-58.31597820568291
20
-3.5000000000022879
42
0.99999999999999989
10
-58.31597820568291
20
-5.5000000000040217
10
-52.315978205683962
20
-5.5000000000008953
42
0.99999999999999989
10
-52.315978205683962
20
-3.5000000000027143
0
LINE
5
126
100
AcDbEntity
8
0
100
AcDbLine
10
-10.833250969577932
20
25.74073342371193
30
-1.0691058840368783e-49
11
-8.7853708549756959
21
24.306792330117517
31
-4.0626023577470449e-48
0
LWPOLYLINE
5
127
100
AcDbEntity
8
0
100
AcDbPolyline
90
6
70
1
43
0.0
10
-20.883716661215047
20
6.6042220642141372
42
-0.74209813194903185
10
-20.42766551902929
20
8.2672793097564323
10
-13.542127396963933
20
8.3985196684646581
42
-0.50034863992211764
10
-12.661136491060603
20
7.258699702614706
10
-13.669724902479121
20
3.6121774039976486
42
-0.50148675529763631
10
-15.163360705183209
20
3.0306493175299209
0
ARC
5
128
100
AcDbEntity
8
0
100
AcDbCircle
10
-19.276434358353924
20
20.853376335550493
30
0
40
1.4500000000001432
100
AcDbArc
50
-144.300000000002
51
35.700000000003534
0
ARC
5
129
100
AcDbEntity
8
0
100
AcDbCircle
10
-11.406827405928937
20
24.921581379422904
30
-1.0691058840368783e-49
40
1.0000000000000044
100
AcDbArc
50
55.000000000003105
51
234.99999999999642
0
CIRCLE
5
130
100
AcDbEntity
8
0
100
AcDbCircle
10
-57.059156116160494
20
9.9999999999975131
30
0
40
1.5500000000000025
0
LWPOLYLINE
5
131
100
AcDbEntity
8
0
100
AcDbPolyline
90
4
70
1
43
0.0
10
-58.31597820568291
20
5.4999999999991189
42
0.99999999999999989
10
-58.31597820568291
20
3.499999999997101
10
-52.315978205683962
20
3.4999999999977405
42
0.99999999999999989
10
-52.315978205683962
20
5.4999999999959215
0
LINE
5
132
100
AcDbEntity
8
0
100
AcDbLine
10
-24.655452194111263
20
25.854242972704782
30
0
11
-20.453955472347189
21
20.007241579084081
31
0
0
ARC
5
133
100
AcDbEntity
8
0
100
AcDbCircle
10
-9.3589472952065478
20
23.487640288545251
30
-4.0626023577470449e-48
40
1.0000000000000044
100
AcDbArc
50
-124.9999999999969
51
54.999999728624246
0
CIRCLE
5
134
100
AcDbEntity
8
0
100
AcDbCircle
10
-15.250155900026812
20
15.249999999995723
30
0
40
2.2499999999999987
0
LWPOLYLINE
5
135
100
AcDbEntity
8
0
100
AcDbPolyline
90
4
70
1
43
0.0
10
-62.405173797780122
20
16.499999999997073
10
-42.40517379777998
20
16.499999999997002
42
-0.99999999999999989
10
-42.40517379777998
20
14.499999999997115
10
-62.405173797779838
20
14.499999999996902
42
-0.99999999999999989
0
LWPOLYLINE
5
136
100
AcDbEntity
8
0
100
AcDbPolyline
90
8
70
1
43
0.0
10
-44.409251836024623
20
-0.27504081390685153
42
-0.14022445672340506
10
-44.409251836024595
20
0.27504081390311796
10
-43.650229530810087
20
2.928278858941197
42
-0.49873989764212656
10
-42.158973936381869
20
3.5013462592184652
10
-37.911833293229449
20
0.8481082141802232
42
-0.55438321313562255
10
-37.911833293229478
20
-0.84810821418408011
10
-42.158973936381855
20
-3.5013462592222639
42
-0.4987398976420182
10
-43.650229530810236
20
-2.9282788589450348
0
LWPOLYLINE
5
137
100
AcDbEntity
8
0
100
AcDbPolyline
90
8
70
1
43
0.0
10
-9.3577038105205528
20
3.3360396429510484
42
-0.50154121987834588
10
-7.8640216173502608
20
3.9177355096456523
10
-2.9503506143763047
20
0.84810821418003024
42
-0.55438321313537897
10
-2.9503506143763047
20
-0.84810821418372484
10
-7.8640216173502333
20
-3.917735509649463
42
-0.50154121987859235
10
-9.357703810520519
20
-3.3360396429548445
10
-10.206154140287556
20
-0.26641234748915615
42
-0.13565756356968608
10
-10.206154140287538
20
0.26641234748538523
0
CIRCLE
5
138
100
AcDbEntity
8
0
100
AcDbCircle
10
-15.250155900026812
20
15.249999999995723
30
0
40
3.1499999999999995
0
CIRCLE
5
139
100
AcDbEntity
8
0
100
AcDbCircle
10
-37.059156116160636
20
9.9999999999975131
30
0
40
1.5500000000000025
0
CIRCLE
5
140
100
AcDbEntity
8
0
100
AcDbCircle
10
-70.560347595575053
20
15.249999999997002
30
0
40
1.5500000000000025
0
CIRCLE
5
141
100
AcDbEntity
8
0
100
AcDbCircle
10
-70.560347595575053
20
-15.250000000002117
30
0
40
1.5500000000000025
0
CIRCLE
5
142
100
AcDbEntity
8
0
100
AcDbCircle
10
28.250000000014381
20
-15.250000000002117
30
0
40
1.5500000000000025
0
LINE
5
143
100
AcDbEntity
8
0
100
AcDbLine
10
22.300409966142638
20
-27.546512485642509
30
-4.2764235361475123e-49
11
18.098913244378707
21
-21.699511092021666
31
0
0
LINE
5
144
100
AcDbEntity
8
0
100
AcDbLine
10
10.832939169551139
20
-25.740733423716549
30
-1.0691058840368783e-49
11
8.7850590549490448
21
-24.306792330122207
31
-1.7105694144590049e-48
0
ARC
5
145
100
AcDbEntity
8
0
100
AcDbCircle
10
11.406515605902143
20
-24.921581379427522
30
-1.0691058840368783e-49
40
1.0000000000000044
100
AcDbArc
50
-124.9999999999969
51
54.999999146224198
0
LWPOLYLINE
5
146
100
AcDbEntity
8
0
100
AcDbPolyline
90
6
70
1
43
0.0
10
0.52966714311900653
20
4.05245321425173
42
-0.28668399343151346
10
-0.52997894315154781
20
4.05245321425177
10
-4.9690377664807004
20
6.8255847735320829
42
-0.75165877900623601
10
-4.4966549086409202
20
8.4888711258375338
10
4.4963431086085857
20
8.4888711258377771
42
-0.75165877900626177
10
4.9687259664486305
20
6.8255847735321851
0
LWPOLYLINE
5
147
100
AcDbEntity
8
0
100
AcDbPolyline
90
8
70
1
43
0.0
10
10.20584234025506
20
-0.2664123474891511
10
9.3573920104880841
20
-3.336039642954856
42
-0.50154121987835543
10
7.8637098173177833
20
-3.9177355096494892
10
2.9500388143438272
20
-0.84810821418379612
42
-0.55438321313537897
10
2.9500388143438272
20
0.84810821417995896
10
7.8637098173177513
20
3.9177355096458473
42
-0.50154121987847644
10
9.3573920104880415
20
3.3360396429510786
10
10.205842340255042
20
0.26641234748538023
42
-0.13565756356968608
0
LWPOLYLINE
5
148
100
AcDbEntity
8
0
100
AcDbPolyline
90
8
70
1
43
0.0
10
27.16030671364166
20
4.3044241456962595
10
28.313008345826187
20
0.27504081390297103
42
-0.14022445672346007
10
28.313008345826205
20
-0.27504081390688384
10
27.160306713641621
20
-4.3044241456999845
42
-0.49873989764241566
10
25.669051119213151
20
-4.8774915459770085
10
19.219061549943572
20
-0.84810821418384696
42
-0.55438321313547001
10
19.219061549943603
20
0.84810821418003002
10
25.669051119213027
20
4.8774915459732791
42
-0.49873989764227467
0
LWPOLYLINE
5
149
100
AcDbEntity
8
0
100
AcDbPolyline
90
6
70
1
43
0.0
10
-4.4966643173262355
20
-8.4888710791886073
42
-0.75165468882309616
10
-4.9690377664808238
20
-6.8255847735358799
10
-0.52997894315151572
20
-4.0524532142555163
42
-0.28668399343152356
10
0.52966714311907026
20
-4.0524532142555358
10
4.9687259664483072
20
-6.825584773535784
42
-0.75165877900648081
10
4.4963431086084427
20
-8.4888711258415128
0
CIRCLE
5
150
100
AcDbEntity
8
0
100
AcDbCircle
10
10.000000000014921
20
-10.000000000002487
30
0
40
1.5500000000000005
0
ARC
5
151
100
AcDbEntity
8
0
100
AcDbCircle
10
20.406564122355917
20
-7.3675194569823788
30
0
40
0.90000000000002289
100
AcDbArc
50
-88.67637544246459
51
58.006500654165848
0
ELLIPSE
5
152
100
AcDbEntity
8
0
100
AcDbEllipse
10
-0.0001559000162387747
20
-1.9184653865522705e-12
30
0
11
87.899327384149814
21
-8.813080458437059e-13
31
0.0
40
0.096701536324698009
41
4.867067428123363
42
4.9469300601759034
0
LINE
5
153
100
AcDbEntity
8
0
100
AcDbLine
10
12.660824691027983
20
-7.258699702618685
30
0
11
13.669413102446555
21
-3.6121774040019261
31
0
0
LINE
5
154
100
AcDbEntity
8
0
100
AcDbLine
10
15.163048905150731
20
-3.0306493175342553
30
0
11
20.883404861177866
21
-6.6042220642187743
31
0
0
ARC
5
155
100
AcDbEntity
8
0
100
AcDbCircle
10
14.633225862015422
20
3.8787575317124379
30
0
40
0.99999999999997669
100
AcDbArc
50
195.46086540821878
51
301.99349934581988
0
ARC
5
156
100
AcDbEntity
8
0
100
AcDbCircle
10
13.528256174639921
20
-7.4986218175616415
30
0
40
0.89999999999994929
100
AcDbArc
50
164.53913459177789
51
270.86384495898113
0
ARC
5
157
100
AcDbEntity
8
0
100
AcDbCircle
10
14.633225862015422
20
-3.8787575317162037
30
0
40
1.0000000000000266
100
AcDbArc
50
58.006500654180094
51
164.53913459178509
0
ARC
5
158
100
AcDbEntity
8
0
100
AcDbCircle
10
19.27643435837183
20
-20.853376335555396
30
6.4146353042212696e-49
40
1.4499999999999447
100
AcDbArc
50
35.699999999996692
51
215.69999999999666
0
ARC
5
159
100
AcDbEntity
8
0
100
AcDbCircle
10
9.3586354951797546
20
-23.487640288549869
30
-1.7105694144590049e-48
40
0.99999999999994638
100
AcDbArc
50
55.00000000000076
51
234.99999972863324
0
ARC
5
160
100
AcDbEntity
8
0
100
AcDbCircle
10
23.477931080135761
20
-26.700377729176097
30
-4.2764235361475123e-49
40
1.4500000000000277
100
AcDbArc
50
-144.29999999999876
51
35.699999999994695
0
CIRCLE
5
161
100
AcDbEntity
8
0
100
AcDbCircle
10
15.249844099995187
20
-15.249999999999986
30
0
40
2.2499999999999987
0
LINE
5
162
100
AcDbEntity
8
0
100
AcDbLine
10
9.9322119315307589
20
-22.668488244260914
30
-1.7105694144590049e-48
11
11.980092054459561
21
-24.102429343685472
31
-1.5407439555097824e-33
0
LINE
5
163
100
AcDbEntity
8
0
100
AcDbLine
10
20.453955472364953
20
-20.007241579089126
30
0
11
24.655452194129168
21
-25.854242972709685
31
0
0
CIRCLE
5
164
100
AcDbEntity
8
0
100
AcDbCircle
10
27.504053638458856
20
-32.303754064714525
30
0
40
2.2499999999999964
0
CIRCLE
5
165
100
AcDbEntity
8
0
100
AcDbCircle
10
37.059156116189911
20
9.9999999999975131
30
0
40
1.0000000000000009
0
LWPOLYLINE
5
166
100
AcDbEntity
8
0
100
AcDbPolyline
90
8
70
1
43
0.0
10
44.408940035991961
20
0.27504081390297103
42
-0.14022445672346007
10
44.408940035991975
20
-0.27504081390688384
10
43.649917730777176
20
-2.9282788589474462
42
-0.49873989764222076
10
42.158662136348397
20
-3.5013462592245048
10
37.911521493195693
20
-0.84810821418384696
42
-0.55438321313547001
10
37.911521493195721
20
0.84810821418003002
10
42.158662136348433
20
3.5013462592206865
42
-0.49873989764222032
10
43.649917730777048
20
2.9282788589437558
0
LWPOLYLINE
5
167
100
AcDbEntity
8
0
100
AcDbPolyline
90
6
70
1
43
0.0
10
31.605698672884444
20
1.9507440510007257
10
30.367382765708861
20
6.2794006057850247
42
-0.5480572565201518
10
31.484156945885502
20
7.5423022288812547
10
38.009085319698791
20
6.5162538296499264
42
-0.69417649550530114
10
38.383566733950687
20
4.6802848062768021
10
33.096954267312945
20
1.3776766507233207
42
-0.49873989764199517
0
ELLIPSE
5
168
100
AcDbEntity
8
0
100
AcDbEllipse
10
-0.0001559000162387747
20
-1.9184653865522705e-12
30
0
11
87.899327384149814
21
8.3623823930897359e-13
31
0.0
40
0.096701536324698009
41
1.3362552470036781
42
1.4161178790562239
0
LINE
5
169
100
AcDbEntity
8
0
100
AcDbLine
10
20.883404861177723
20
6.6042220642149374
30
0
11
15.163048905150731
21
3.0306493175304894
31
0
0
ARC
5
170
100
AcDbEntity
8
0
100
AcDbCircle
10
20.406564122355917
20
7.3675194569786129
30
0
40
0.89999999999997282
100
AcDbArc
50
-58.00650065417593
51
88.676375442437362
0
ARC
5
171
100
AcDbEntity
8
0
100
AcDbCircle
10
13.528256174639921
20
7.4986218175578756
30
0
40
0.89999999999994851
100
AcDbArc
50
89.136155041018796
51
195.46086540822455
0
CIRCLE
5
172
100
AcDbEntity
8
0
100
AcDbCircle
10
10.000000000014921
20
9.9999999999975131
30
0
40
1.5500000000000005
0
LINE
5
173
100
AcDbEntity
8
0
100
AcDbLine
10
13.669413102446555
20
3.6121774039980892
30
0
11
12.660824691028125
21
7.2586997026149191
31
0
0
CIRCLE
5
174
100
AcDbEntity
8
0
100
AcDbCircle
10
15.249844099995187
20
-15.249999999999986
30
0
40
3.1499999999999995
0
LINE
5
175
100
AcDbEntity
8
0
100
AcDbLine
10
24.655452194128884
20
25.85424297270464
30
2.1382117680737561e-49
11
20.453955472364953
21
20.007241579084152
31
0
0
LWPOLYLINE
5
176
100
AcDbEntity
8
0
100
AcDbPolyline
90
8
70
1
43
0.0
10
43.518530570888601
20
-14.250000000002032
10
43.518530570888458
20
-16.250000000002203
42
0.99999999999999989
10
44.518530570888686
20
-16.250000000002203
10
53.518530570888458
20
-16.250000000002203
42
0.99999999999999989
10
54.518530570888686
20
-16.250000000002203
10
54.518530570888544
20
-14.250000000002387
42
0.99999999999999989
10
53.518530570888601
20
-14.250000000002245
10
44.518530570888544
20
-14.250000000002316
42
0.99999999999999989
0
CIRCLE
5
177
100
AcDbEntity
8
0
100
AcDbCircle
10
37.059156116189911
20
-10.000000000002558
30
0
40
1.0000000000000009
0
CIRCLE
5
178
100
AcDbEntity
8
0
100
AcDbCircle
10
57.059156116189911
20
-10.000000000002558
30
0
40
0.99999999999999645
0
LWPOLYLINE
5
179
100
AcDbEntity
8
0
100
AcDbPolyline
90
4
70
1
43
0.0
10
58.618582272545439
20
-7.7500000000021174
10
65.11858227254578
20
-7.7500000000021174
42
0.99999999999999989
10
65.118582272545495
20
-4.7500000000021458
10
58.618582272545154
20
-4.7500000000021458
42
0.99999999999999989
0
CIRCLE
5
180
100
AcDbEntity
8
0
100
AcDbCircle
10
69.949844099983807
20
-15.250000000003112
30
0
40
1.5500000000000025
0
ARC
5
181
100
AcDbEntity
8
0
100
AcDbCircle
10
9.3586354951801809
20
23.48764028854653
30
1.817480002862693e-48
40
0.9999999999999889
100
AcDbArc
50
125.00000027136443
51
304.99999941759216
0
ARC
5
182
100
AcDbEntity
8
0
100
AcDbCircle
10
11.406515605902712
20
24.921581379424111
30
2.1382117680737561e-49
40
1.0000000000000044
100
AcDbArc
50
-55.000000000003091
51
124.99999879258819
0
CIRCLE
5
183
100
AcDbEntity
8
0
100
AcDbCircle
10
15.249844099995187
20
15.249999999995723
30
0
40
3.1499999999999995
0
LINE
5
184
100
AcDbEntity
8
0
100
AcDbLine
10
11.980092042253716
20
24.102429335135085
30
2.1382117680737561e-49
11
9.9322119232046191
21
22.668488238427145
31
-9.509873403220816e-42
0
ARC
5
185
100
AcDbEntity
8
0
100
AcDbCircle
10
23.477931080135761
20
26.700377729171052
30
2.1382117680737561e-49
40
1.4500000000000277
100
AcDbArc
50
-35.700000000001239
51
144.2999999999922
0
CIRCLE
5
186
100
AcDbEntity
8
0
100
AcDbCircle
10
15.249844099995187
20
15.249999999995723
30
0
40
2.2499999999999987
0
LINE
5
187
100
AcDbEntity
8
0
100
AcDbLine
10
18.098913244378707
20
21.699511092016692
30
0
11
22.300409966142922
21
27.546512485637464
31
0
0
LINE
5
188
100
AcDbEntity
8
0
100
AcDbLine
10
-18.098913244360801
20
21.699511092016976
30
0
11
-22.300409966125017
21
27.546512485637464
31
0
0
LINE
5
189
100
AcDbEntity
8
0
100
AcDbLine
10
8.7850590549494711
20
24.306792330118938
30
1.817480002862693e-48
11
10.832939186813917
21
25.740733435800252
31
2.1382117680737561e-49
0
CIRCLE
5
190
100
AcDbEntity
8
0
100
AcDbCircle
10
28.250000000014381
20
15.249999999997002
30
0
40
1.5500000000000025
0
ARC
5
191
100
AcDbEntity
8
0
100
AcDbCircle
10
19.27643435837183
20
20.853376335550422
30
0
40
1.4499999999999447
100
AcDbArc
50
144.30000000000331
51
324.30000000000331
0
LWPOLYLINE
5
192
100
AcDbEntity
8
0
100
AcDbPolyline
90
6
70
1
43
0.0
10
-12.661136491060525
20
-7.2586997026183475
42
-0.50035187332006037
10
-13.542136705483188
20
-8.3985195281618985
10
-20.427674682266002
20
-8.2672790979903397
42
-0.7445783914716182
10
-20.883716661215175
20
-6.6042220642179927
10
-15.163360705183024
20
-3.0306493175336833
42
-0.5014867552975536
10
-13.669724902479174
20
-3.6121774040014287
0
LWPOLYLINE
5
193
100
AcDbEntity
8
0
100
AcDbPolyline
90
8
70
1
43
0.0
10
-19.219373349977502
20
0.84810821418024318
42
-0.55438321313561034
10
-19.219373349977502
20
-0.848108214183938
10
-25.669362919246758
20
-4.8774915459737596
42
-0.49873989764206755
10
-27.160618513675274
20
-4.3044241456966148
10
-28.313320145858853
20
-0.27504081390685153
42
-0.14022445672340506
10
-28.313320145858825
20
0.27504081390311796
10
-27.160618513675129
20
4.304424145692777
42
-0.49873989764212656
10
-25.669362919246907
20
4.8774915459700452
0
CIRCLE
5
194
100
AcDbEntity
8
0
100
AcDbCircle
10
-57.059156116160494
20
-10.000000000002558
30
0
40
1.5500000000000025
0
CIRCLE
5
195
100
AcDbEntity
8
0
100
AcDbCircle
10
-28.249999999986528
20
-15.250000000002117
30
0
40
1.5500000000000025
0
LWPOLYLINE
5
196
100
AcDbEntity
8
0
100
AcDbPolyline
90
6
70
1
43
0.0
10
-33.097266067345309
20
-1.3776766507270479
42
-0.49873989764209398
10
-31.606010472916921
20
-1.9507440510044205
10
-30.367694565741459
20
-6.2794006057889291
42
-0.54805725652006176
10
-31.48446874591798
20
-7.5423022288850206
10
-38.009397119731176
20
-6.5162538296540031
42
-0.69417649550522409
10
-38.383878533983022
20
-4.680284806280568
0
CIRCLE
5
197
100
AcDbEntity
8
0
100
AcDbCircle
10
-15.250155900026812
20
-15.249999999999986
30
0
40
2.2499999999999987
0
CIRCLE
5
198
100
AcDbEntity
8
0
100
AcDbCircle
10
27.504053638458856
20
32.303754064709622
30
0
40
3.1499999999999995
0
CIRCLE
5
199
100
AcDbEntity
8
0
100
AcDbCircle
10
27.504053638458856
20
32.303754064709622
30
0
40
2.2499999999999964
0
CIRCLE
5
200
100
AcDbEntity
8
0
100
AcDbCircle
10
-27.50436543845808
20
32.303754064738257
30
0
40
2.2499999999999964
0
LINE
5
201
100
AcDbEntity
8
0
100
AcDbLine
10
-24.655452194110978
20
-25.854242972709685
30
-9.4081317795245275e-48
11
-20.453955472347189
21
-20.007241579089126
31
-1.9243905912663806e-48
0
CIRCLE
5
202
100
AcDbEntity
8
0
100
AcDbCircle
10
-27.50436543845808
20
32.303754064738257
30
0
40
3.1499999999999995
0
CIRCLE
5
203
100
AcDbEntity
8
0
100
AcDbCircle
10
-9.9999999999852207
20
-10.000000000002487
30
0
40
1.5500000000000005
0
CIRCLE
5
204
100
AcDbEntity
8
0
100
AcDbCircle
10
-37.059156116160636
20
-10.000000000002558
30
0
40
1.5500000000000025
0
CIRCLE
5
205
100
AcDbEntity
8
0
100
AcDbCircle
10
-15.250155900026812
20
-15.249999999999986
30
0
40
3.1499999999999995
0
LINE
5
206
100
AcDbEntity
8
0
100
AcDbLine
10
-55.746180620016958
20
-57.564488417457376
30
0
11
-55.746180620016958
21
-59.164488417457378
31
0
0
LWPOLYLINE
5
207
100
AcDbEntity
8
0
100
AcDbPolyline
90
4
70
1
43
0.0
10
-41.396180620016949
20
-69.064488417457369
10
-76.396180620016949
20
-69.064488417457369
10
-76.396180620016949
20
-49.064488417457369
10
-41.396180620016949
20
-49.064488417457369
0
LINE
5
208
100
AcDbEntity
8
0
100
AcDbLine
10
-62.046180620016941
20
-59.164488417457378
30
0
11
-61.146180620016949
21
-59.164488417457378
31
0
0
LINE
5
209
100
AcDbEntity
8
0
100
AcDbLine
10
-62.046180620016941
20
-57.564488417457376
30
0
11
-67.046180620016941
21
-57.564488417457376
31
0
0
LINE
5
210
100
AcDbEntity
8
0
100
AcDbLine
10
-56.646180620016949
20
-60.564488417457376
30
0
11
-50.646180620016956
21
-60.564488417457376
31
0
0
LINE
5
211
100
AcDbEntity
8
0
100
AcDbLine
10
-58.896180620016949
20
-55.564488417457376
30
0
11
-58.896180620016949
21
-62.564488417457376
31
0
0
LINE
5
212
100
AcDbEntity
8
0
100
AcDbLine
10
-61.146180620016949
20
-60.564488417457376
30
0
11
-61.146180620016949
21
-59.164488417457378
31
0
0
LINE
5
213
100
AcDbEntity
8
0
100
AcDbLine
10
-55.746180620016958
20
-59.164488417457378
30
0
11
-56.646180620016949
21
-59.164488417457378
31
0
0
LINE
5
214
100
AcDbEntity
8
0
100
AcDbLine
10
-61.146180620016949
20
-60.564488417457376
30
0
11
-67.146180620016935
21
-60.564488417457376
31
0
0
LINE
5
215
100
AcDbEntity
8
0
100
AcDbLine
10
-62.046180620016941
20
-57.564488417457376
30
0
11
-62.046180620016941
21
-59.164488417457378
31
0
0
LINE
5
216
100
AcDbEntity
8
0
100
AcDbLine
10
-55.746180620016958
20
-57.564488417457376
30
0
11
-50.746180620016958
21
-57.564488417457376
31
0
0
LINE
5
217
100
AcDbEntity
8
0
100
AcDbLine
10
-56.646180620016949
20
-60.564488417457376
30
0
11
-56.646180620016949
21
-59.164488417457378
31
0
0
ENDSEC
0
SECTION
2
OBJECTS
0
DICTIONARY
5
C
100
AcDbDictionary
3
ACAD_GROUP
350
D
3
ACAD_MLINESTYLE
350
17
0
DICTIONARY
5
D
100
AcDbDictionary
0
DICTIONARY
5
1A
330
C
100
AcDbDictionary
0
DICTIONARY
5
17
100
AcDbDictionary
0
ENDSEC
0
EOF
