0
SECTION
2
HEADER
9
$INSUNITS
70
4
9
$ACADVER
1
AC1014
9
$HANDSEED
5
FFFF
0
ENDSEC
0
SECTION
2
TABLES
0
TABLE
2
VPORT
5
8
100
AcDbSymbolTable
0
ENDTAB
0
TABLE
2
LTYPE
5
5
100
AcDbSymbolTable
0
LTYPE
5
14
100
AcDbSymbolTableRecord
100
AcDbLinetypeTableRecord
2
BYBLOCK
70
0
0
LTYPE
5
15
100
AcDbSymbolTableRecord
100
AcDbLinetypeTableRecord
2
BYLAYER
70
0
0
ENDTAB
0
TABLE
2
LAYER
5
2
100
AcDbSymbolTable
70
2
0
LAYER
5
50
100
AcDbSymbolTableRecord
100
AcDbLayerTableRecord
2
0
70
0
6
CONTINUOUS
0
ENDTAB
0
TABLE
2
STYLE
5
3
100
AcDbSymbolTable
70
1
0
STYLE
5
11
100
AcDbSymbolTableRecord
100
AcDbTextStyleTableRecord
2
STANDARD
70
0
0
ENDTAB
0
TABLE
2
VIEW
5
6
100
AcDbSymbolTable
70
0
0
ENDTAB
0
TABLE
2
UCS
5
7
100
AcDbSymbolTable
70
0
0
ENDTAB
0
TABLE
2
APPID
5
9
100
AcDbSymbolTable
70
2
0
APPID
5
12
100
AcDbSymbolTableRecord
100
AcDbRegAppTableRecord
2
ACAD
70
0
0
ENDTAB
0
TABLE
2
DIMSTYLE
5
A
100
AcDbSymbolTable
70
1
0
ENDTAB
0
TABLE
2
BLOCK_RECORD
5
1
100
AcDbSymbolTable
70
1
0
BLOCK_RECORD
5
1F
100
AcDbSymbolTableRecord
100
AcDbBlockTableRecord
2
*MODEL_SPACE
0
BLOCK_RECORD
5
1B
100
AcDbSymbolTableRecord
100
AcDbBlockTableRecord
2
*PAPER_SPACE
0
ENDTAB
0
ENDSEC
0
SECTION
2
BLOCKS
0
BLOCK
5
20
100
AcDbEntity
100
AcDbBlockBegin
2
*MODEL_SPACE
0
ENDBLK
5
21
100
AcDbEntity
100
AcDbBlockEnd
0
BLOCK
5
1C
100
AcDbEntity
100
AcDbBlockBegin
2
*PAPER_SPACE
0
ENDBLK
5
1D
100
AcDbEntity
100
AcDbBlockEnd
0
ENDSEC
0
SECTION
2
ENTITIES
0
ARC
5
100
100
AcDbEntity
8
0
100
AcDbCircle
10
10.548228363666682
20
-31.977533493437704
30
0
40
3.000000000000016
100
AcDbArc
50
-3.5274969796983773
51
38.405981602933394
0
ARC
5
101
100
AcDbEntity
8
0
100
AcDbCircle
10
15.250000000000917
20
-28.250155932770802
30
0
40
3
100
AcDbArc
50
135.5079418726865
51
218.40598160293339
0
ARC
5
102
100
AcDbEntity
8
0
100
AcDbCircle
10
10.96991442030652
20
-24.045293577057869
30
0
40
2.9999999999999716
100
AcDbArc
50
315.50794187268616
51
357.42702973935059
0
ELLIPSE
5
103
100
AcDbEntity
8
0
100
AcDbEllipse
10
9.0774610050914362e-13
20
-0.00015590002524490387
30
0
11
0
21
-90
31
0.0
40
0.1611111111106093
41
1.2987899492861492
42
1.7884218962196523
0
ELLIPSE
5
104
100
AcDbEntity
8
0
100
AcDbEllipse
10
9.0469298719142444e-13
20
18.748884593069928
30
0
11
14.181872228713242
21
2.2204460492503127e-15
31
0.0
40
0.83017413264161088
41
0.058046903584639757
42
3.0835456964151193
0
ELLIPSE
5
105
100
AcDbEntity
8
0
100
AcDbEllipse
10
9.0774610050914362e-13
20
-0.00015590002524490387
30
0
11
0
21
-90
31
0.0
40
0.1611111111106093
41
4.4947633037803154
42
4.9843953578934368
0
ARC
5
106
100
AcDbEntity
8
0
100
AcDbCircle
10
-10.969914420304645
20
-24.045293577057851
30
0
40
3.00000000000002
100
AcDbArc
50
182.57297026064853
51
224.49205812731347
0
ARC
5
107
100
AcDbEntity
8
0
100
AcDbCircle
10
-15.249999999999101
20
-28.250155932770802
30
0
40
3.0000000000000067
100
AcDbArc
50
-38.405981602933338
51
44.492058127313307
0
ARC
5
108
100
AcDbEntity
8
0
100
AcDbCircle
10
-10.548228363664897
20
-31.97753349343769
30
0
40
2.9999999999999809
100
AcDbArc
50
141.59401839706641
51
183.52749697969651
0
ELLIPSE
5
109
100
AcDbEntity
8
0
100
AcDbEllipse
10
9.0774610050914362e-13
20
-0.00015590002524490387
30
0
11
0
21
-90
31
0.0
40
0.1611111111106093
41
5.0778234549851957
42
5.4343433842389155
0
ARC
5
110
100
AcDbEntity
8
0
100
AcDbCircle
10
-5.4369988552530826
20
-58.70438873303609
30
0
40
5.5
100
AcDbArc
50
188.07429806071079
51
300.18346942490035
0
ARC
5
111
100
AcDbEntity
8
0
100
AcDbCircle
10
4.5297099404706387e-13
20
-65.309156116169319
30
0
40
3.249999999999603
100
AcDbArc
50
34.70642286385241
51
145.29357713616704
0
ARC
5
112
100
AcDbEntity
8
0
100
AcDbCircle
10
5.4369988552548945
20
-58.704388733036069
30
0
40
5.5000000000000018
100
AcDbArc
50
239.81653057508123
51
351.92570193928805
0
ELLIPSE
5
113
100
AcDbEntity
8
0
100
AcDbEllipse
10
9.0774610050914362e-13
20
-0.00015590002524490387
30
0
11
0
21
-90
31
0.0
40
0.1611111111106093
41
0.84884192294066951
42
1.205361852194389
0
LWPOLYLINE
5
114
100
AcDbEntity
8
0
100
AcDbPolyline
90
6
70
1
43
0.0
10
-1.9507440510016518
20
-31.606010472925917
42
-0.49873989764212784
10
-1.3776766507244897
20
-33.097266067354312
10
-4.6802848062777223
20
-38.383878533992053
42
-0.69417649550522886
10
-6.5162538296510597
20
-38.009397119740186
10
-7.5423022288822503
20
-31.484468745926932
42
-0.54805725652005377
10
-6.2794006057860718
20
-30.367694565750426
0
LWPOLYLINE
5
115
100
AcDbEntity
8
0
100
AcDbPolyline
90
8
70
1
43
0.0
10
4.3044241456990218
20
27.160306713632707
42
-0.49873989764224169
10
4.8774915459759969
20
25.669051119204003
10
0.84810821418281046
20
19.219061549934597
42
-0.55438321313536976
10
-0.84810821418099869
20
19.219061549934597
10
-4.8774915459741832
20
25.669051119203985
42
-0.4987398976422498
10
-4.3044241456972152
20
27.160306713632707
10
-0.27504081390402529
20
28.313008345817373
42
-0.14022445672350003
10
0.27504081390583135
20
28.313008345817376
0
ARC
5
116
100
AcDbEntity
8
0
100
AcDbCircle
10
-7.4986218175585693
20
-13.528567974681573
30
0
40
0.90000000000000058
100
AcDbArc
50
74.539134591780964
51
180.86354862535813
0
LINE
5
117
100
AcDbEntity
8
0
100
AcDbLine
10
-7.2586997026156466
20
-12.661136491069573
30
0
11
-3.6121774039985786
21
-13.669724902488189
31
0
0
ARC
5
118
100
AcDbEntity
8
0
100
AcDbCircle
10
-3.8787575317129313
20
-14.633537662057083
30
0
40
1.0000000000000027
100
AcDbArc
50
-31.993499345800352
51
74.539134591781362
0
LINE
5
119
100
AcDbEntity
8
0
100
AcDbLine
10
-3.0306493175308225
20
-15.16336070519209
30
0
11
-6.6042220642151985
21
-20.883716661224007
31
0
0
ARC
5
120
100
AcDbEntity
8
0
100
AcDbCircle
10
-7.3675194569790881
20
-20.406875922402495
30
0
40
0.89999999999999414
100
AcDbArc
50
181.32362455756035
51
328.0065006541991
0
ELLIPSE
5
121
100
AcDbEntity
8
0
100
AcDbEllipse
10
9.0774610050914362e-13
20
-0.00015590002524490387
30
0
11
-8.5138229752024901e-13
21
87.899327384149785
31
0.0
40
0.096701536324697995
41
1.7254747209439927
42
1.8053373529963785
0
LWPOLYLINE
5
122
100
AcDbEntity
8
0
100
AcDbPolyline
90
4
70
1
43
0.0
10
-3.8999999999991006
20
-57.550155916398055
42
-0.99999999999999989
10
-6.0999999999991052
20
-57.55015591639804
10
-6.0999999999991061
20
-47.550155916398026
42
-0.99999999999999989
10
-3.8999999999991086
20
-47.550155916398026
0
LWPOLYLINE
5
123
100
AcDbEntity
8
0
100
AcDbPolyline
90
8
70
1
43
0.0
10
-0.84810821418099869
20
-2.9503506143853913
42
-0.55438321313537653
10
0.84810821418281279
20
-2.9503506143853886
10
3.9177355096484821
20
-7.8640216173592146
42
-0.50154121987849576
10
3.336039642953903
20
-9.3577038105295873
10
0.26641234748822751
20
-10.206154140296576
42
-0.13565756356945374
10
-0.26641234748641274
20
-10.206154140296569
10
-3.3360396429520867
20
-9.3577038105295891
42
-0.50154121987849798
10
-3.9177355096466684
20
-7.8640216173592039
0
LWPOLYLINE
5
124
100
AcDbEntity
8
0
100
AcDbPolyline
90
6
70
1
43
0.0
10
6.516253829652884
20
-38.0093971197402
42
-0.69417649550522509
10
4.6802848062795546
20
-38.383878533992075
10
1.3776766507263085
20
-33.097266067354319
42
-0.49873989764212479
10
1.9507440510034617
20
-31.606010472925917
10
6.2794006057878917
20
-30.367694565750433
42
-0.54805725652006176
10
7.5423022288840667
20
-31.484468745926936
0
ARC
5
125
100
AcDbEntity
8
0
100
AcDbCircle
10
-7.367519456979589
20
20.406564122347049
30
0
40
0.8999999999999958
100
AcDbArc
50
31.993499345822105
51
178.67637544244295
0
LINE
5
126
100
AcDbEntity
8
0
100
AcDbLine
10
-6.604222064215878
20
20.883404861168842
30
0
11
-3.0306493175315152
21
15.16304890514178
31
0
0
ARC
5
127
100
AcDbEntity
8
0
100
AcDbCircle
10
-3.8787575317134335
20
14.633225862006453
30
0
40
1.0000000000000129
100
AcDbArc
50
-74.539134591781774
51
31.993499345821686
0
LINE
5
128
100
AcDbEntity
8
0
100
AcDbLine
10
-3.6121774039990857
20
13.669413102437549
30
0
11
-7.2586997026159157
21
12.66082469101903
31
0
0
ARC
5
129
100
AcDbEntity
8
0
100
AcDbCircle
10
-7.498621817558826
20
13.528256174631023
30
0
40
0.89999999999998948
100
AcDbArc
50
179.13615504102447
51
285.46086540821835
0
ELLIPSE
5
130
100
AcDbEntity
8
0
100
AcDbEllipse
10
9.0774610050914362e-13
20
-0.00015590002524490387
30
0
11
-8.5138229752024901e-13
21
87.899327384149785
31
0.0
40
0.096701536324697995
41
1.3362552470036775
42
1.4161178790562232
0
ARC
5
131
100
AcDbEntity
8
0
100
AcDbCircle
10
7.3675194569808955
20
-20.406875922402495
30
0
40
0.90000000000000202
100
AcDbArc
50
211.99349934580081
51
358.67608369138475
0
LINE
5
132
100
AcDbEntity
8
0
100
AcDbLine
10
6.6042220642170024
20
-20.883716661224007
30
0
11
3.0306493175326281
21
-15.163360705192083
31
0
0
ARC
5
133
100
AcDbEntity
8
0
100
AcDbCircle
10
3.8787575317147365
20
-14.633537662057075
30
0
40
1.0000000000000038
100
AcDbArc
50
105.46086540821869
51
211.99349934580044
0
LINE
5
134
100
AcDbEntity
8
0
100
AcDbLine
10
3.6121774040003829
20
-13.669724902488181
30
0
11
7.2586997026174584
21
-12.661136491069589
31
0
0
ARC
5
135
100
AcDbEntity
8
0
100
AcDbCircle
10
7.4986218175603678
20
-13.528567974681593
30
0
40
0.89999999999999969
100
AcDbArc
50
-0.86384495898143976
51
105.46086540821815
0
ELLIPSE
5
136
100
AcDbEntity
8
0
100
AcDbEllipse
10
9.0774610050914362e-13
20
-0.00015590002524490387
30
0
11
8.5138229752024901e-13
21
87.899327384149785
31
0.0
40
0.096701536324697995
41
4.4778478470026766
42
4.5577104790562233
0
LWPOLYLINE
5
137
100
AcDbEntity
8
0
100
AcDbPolyline
90
4
70
1
43
0.0
10
3.9000000000009427
20
-47.550155916398069
42
-0.99999999999999989
10
6.1000000000009313
20
-47.550155916398033
10
6.1000000000009322
20
-57.550155916398033
42
-0.99999999999999989
10
3.9000000000009063
20
-57.550155916398033
0
ARC
5
138
100
AcDbEntity
8
0
100
AcDbCircle
10
7.5888821662986032
20
-4.4921970276679977
30
0
40
0.90000000000000135
100
AcDbArc
50
211.99349934581963
51
359.71590182988791
0
LINE
5
139
100
AcDbEntity
8
0
100
AcDbLine
10
6.8255847735348665
20
-4.9690377664897598
30
0
11
4.0524532142545082
21
-0.52997894316061611
31
0
0
ARC
5
140
100
AcDbEntity
8
0
100
AcDbCircle
10
4.9005614284364443
20
-0.00015590002532719915
30
0
40
1.0000000000000058
100
AcDbArc
50
148.0065006541812
51
211.99349934581929
0
LINE
5
141
100
AcDbEntity
8
0
100
AcDbLine
10
4.0524532142545038
20
0.52966714310995511
30
0
11
6.8255847735349464
21
4.9687259664393402
31
0
0
ARC
5
142
100
AcDbEntity
8
0
100
AcDbCircle
10
7.5888821662986867
20
4.4918852276175878
30
0
40
0.90000000000000013
100
AcDbArc
50
0.28379867806558606
51
148.00650065418105
0
ELLIPSE
5
143
100
AcDbEntity
8
0
100
AcDbEllipse
10
9.0774610050914362e-13
20
-0.00015590002524490387
30
0
11
8.5138229752024901e-13
21
87.899327384149785
31
0.0
40
0.096701536324697995
41
4.661211488219914
42
4.7635664189594538
0
LWPOLYLINE
5
144
100
AcDbEntity
8
0
100
AcDbPolyline
90
8
70
1
43
0.0
10
4.8774915459727648
20
-25.669362919255782
42
-0.4987398976421395
10
4.3044241456955836
20
-27.160618513684192
10
0.27504081390583157
20
-28.313320145867866
42
-0.14022445672350864
10
-0.27504081390402391
20
-28.313320145867866
10
-4.3044241456937655
20
-27.160618513684188
42
-0.49873989764213134
10
-4.877491545970944
20
-25.669362919255786
10
-0.84810821418118854
20
-19.219373349986533
42
-0.55438321313561922
10
0.84810821418301097
20
-19.219373349986533
0
LWPOLYLINE
5
145
100
AcDbEntity
8
0
100
AcDbPolyline
90
8
70
1
43
0.0
10
-0.26641234748641252
20
10.205842340246081
42
-0.13565756356944605
10
0.26641234748822296
20
10.205842340246079
10
3.3360396429538959
20
9.3573920104790975
42
-0.50154121987849709
10
3.9177355096484856
20
7.863709817308715
10
0.84810821418281312
20
2.9500388143349028
42
-0.55438321313537542
10
-0.84810821418099536
20
2.9500388143349001
10
-3.9177355096466671
20
7.8637098173087141
42
-0.50154121987849765
10
-3.3360396429520867
20
9.3573920104790993
0
LWPOLYLINE
5
146
100
AcDbEntity
8
0
100
AcDbPolyline
90
8
70
1
43
0.0
10
0.27504081390584711
20
-44.409251836033626
42
-0.14022445672350681
10
-0.27504081390401613
20
-44.409251836033626
10
-2.9282788589422379
20
-43.650229530819274
42
-0.4987398976421421
10
-3.5013462592194107
20
-42.158973936390865
10
-0.84810821418119009
20
-37.911833293238494
42
-0.55438321313562244
10
0.84810821418301596
20
-37.911833293238487
10
3.5013462592212319
20
-42.158973936390886
42
-0.498739897642131
10
2.9282788589440552
20
-43.65022953081926
0
ARC
5
147
100
AcDbEntity
8
0
100
AcDbCircle
10
7.4986218175606325
20
13.528256174631021
30
0
40
0.9000000000000008
100
AcDbArc
50
-105.46086540821864
51
0.86384495897470381
0
LINE
5
148
100
AcDbEntity
8
0
100
AcDbLine
10
7.258699702617716
20
12.66082469101902
30
0
11
3.6121774040008914
21
13.669413102437549
31
0
0
ARC
5
149
100
AcDbEntity
8
0
100
AcDbCircle
10
3.8787575317152401
20
14.633225862006443
30
0
40
1.0000000000000013
100
AcDbArc
50
148.00650065417787
51
254.53913459178156
0
LINE
5
150
100
AcDbEntity
8
0
100
AcDbLine
10
3.0306493175333338
20
15.163048905141771
30
0
11
6.6042220642176854
21
20.883404861168842
31
0
0
ARC
5
151
100
AcDbEntity
8
0
100
AcDbCircle
10
7.3675194569813973
20
20.406564122347042
30
0
40
0.89999999999999858
100
AcDbArc
50
1.3236245575575836
51
148.00650065417756
0
ELLIPSE
5
152
100
AcDbEntity
8
0
100
AcDbEllipse
10
9.0774610050914362e-13
20
-0.00015590002524490387
30
0
11
8.5138229752024901e-13
21
87.899327384149785
31
0.0
40
0.096701536324697995
41
4.867067428123363
42
4.9469300601759087
0
ARC
5
153
100
AcDbEntity
8
0
100
AcDbCircle
10
-7.5888821662968811
20
4.4918852276175878
30
0
40
0.89999999999999702
100
AcDbArc
50
31.993499345818975
51
179.71620132193311
0
LINE
5
154
100
AcDbEntity
8
0
100
AcDbLine
10
-6.8255847735331425
20
4.9687259664393393
30
0
11
-4.0524532142527026
21
0.52966714310995755
31
0
0
ARC
5
155
100
AcDbEntity
8
0
100
AcDbCircle
10
-4.9005614284346368
20
-0.00015590002533389519
30
0
40
1.0000000000000056
100
AcDbArc
50
-31.993499345819437
51
31.99349934581949
0
LINE
5
156
100
AcDbEntity
8
0
100
AcDbLine
10
-4.0524532142527017
20
-0.52997894316062499
30
0
11
-6.8255847735330537
21
-4.9690377664897589
31
0
0
ARC
5
157
100
AcDbEntity
8
0
100
AcDbCircle
10
-7.5888821662967931
20
-4.4921970276680065
30
0
40
0.89999999999999902
100
AcDbArc
50
180.28379867806558
51
328.00650065418102
0
ELLIPSE
5
158
100
AcDbEntity
8
0
100
AcDbEllipse
10
9.0774610050914362e-13
20
-0.00015590002524490387
30
0
11
-8.5138229752024901e-13
21
87.899327384149785
31
0.0
40
0.096701536324697995
41
1.5196188882201325
42
1.6219737117798649
0
ENDSEC
0
SECTION
2
OBJECTS
0
DICTIONARY
5
C
100
AcDbDictionary
3
ACAD_GROUP
350
D
3
ACAD_MLINESTYLE
350
17
0
DICTIONARY
5
D
100
AcDbDictionary
0
DICTIONARY
5
1A
330
C
100
AcDbDictionary
0
DICTIONARY
5
17
100
AcDbDictionary
0
ENDSEC
0
EOF
