0
SECTION
2
HEADER
9
$INSUNITS
70
4
9
$ACADVER
1
AC1014
9
$HANDSEED
5
FFFF
0
ENDSEC
0
SECTION
2
TABLES
0
TABLE
2
VPORT
5
8
100
AcDbSymbolTable
0
ENDTAB
0
TABLE
2
LTYPE
5
5
100
AcDbSymbolTable
0
LTYPE
5
14
100
AcDbSymbolTableRecord
100
AcDbLinetypeTableRecord
2
BYBLOCK
70
0
0
LTYPE
5
15
100
AcDbSymbolTableRecord
100
AcDbLinetypeTableRecord
2
BYLAYER
70
0
0
ENDTAB
0
TABLE
2
LAYER
5
2
100
AcDbSymbolTable
70
2
0
LAYER
5
50
100
AcDbSymbolTableRecord
100
AcDbLayerTableRecord
2
0
70
0
6
CONTINUOUS
0
ENDTAB
0
TABLE
2
STYLE
5
3
100
AcDbSymbolTable
70
1
0
STYLE
5
11
100
AcDbSymbolTableRecord
100
AcDbTextStyleTableRecord
2
STANDARD
70
0
0
ENDTAB
0
TABLE
2
VIEW
5
6
100
AcDbSymbolTable
70
0
0
ENDTAB
0
TABLE
2
UCS
5
7
100
AcDbSymbolTable
70
0
0
ENDTAB
0
TABLE
2
APPID
5
9
100
AcDbSymbolTable
70
2
0
APPID
5
12
100
AcDbSymbolTableRecord
100
AcDbRegAppTableRecord
2
ACAD
70
0
0
ENDTAB
0
TABLE
2
DIMSTYLE
5
A
100
AcDbSymbolTable
70
1
0
ENDTAB
0
TABLE
2
BLOCK_RECORD
5
1
100
AcDbSymbolTable
70
1
0
BLOCK_RECORD
5
1F
100
AcDbSymbolTableRecord
100
AcDbBlockTableRecord
2
*MODEL_SPACE
0
BLOCK_RECORD
5
1B
100
AcDbSymbolTableRecord
100
AcDbBlockTableRecord
2
*PAPER_SPACE
0
ENDTAB
0
ENDSEC
0
SECTION
2
BLOCKS
0
BLOCK
5
20
100
AcDbEntity
100
AcDbBlockBegin
2
*MODEL_SPACE
0
ENDBLK
5
21
100
AcDbEntity
100
AcDbBlockEnd
0
BLOCK
5
1C
100
AcDbEntity
100
AcDbBlockBegin
2
*PAPER_SPACE
0
ENDBLK
5
1D
100
AcDbEntity
100
AcDbBlockEnd
0
ENDSEC
0
SECTION
2
ENTITIES
0
ARC
5
100
100
AcDbEntity
8
0
100
AcDbCircle
10
23.797638437714976
20
11.228173554692425
30
1.3898376492479417e-48
40
3.0000000000000062
100
AcDbArc
50
42.09056347049588
51
88.182434024290529
0
ELLIPSE
5
101
100
AcDbEntity
8
0
100
AcDbEllipse
10
6.5001559000309683
20
-5.8612409124149166e-13
30
0
11
90
21
1.9984014443252818e-14
31
0.0
40
0.16111111111060933
41
1.3763212943395358
42
1.7884218962196523
0
ELLIPSE
5
102
100
AcDbEntity
8
0
100
AcDbEllipse
10
-12.248430512536959
20
-3.6246419287300983e-05
30
0
11
-0.0016641243800411553
21
14.181903243019566
31
0.0
40
0.83018725450070818
41
0.057942746791791171
42
3.0833664195487858
0
ELLIPSE
5
103
100
AcDbEntity
8
0
100
AcDbEllipse
10
6.5001559000309683
20
-5.8612409124149166e-13
30
0
11
90
21
1.9984014443252818e-14
31
0.0
40
0.16111111111060933
41
4.4947633037803154
42
4.9068640128400514
0
ARC
5
104
100
AcDbEntity
8
0
100
AcDbCircle
10
23.797638437714987
20
-11.228173554693569
30
2.309268709519657e-47
40
3.0000000000000115
100
AcDbArc
50
271.81756597571018
51
317.90943652950375
0
ARC
5
105
100
AcDbEntity
8
0
100
AcDbCircle
10
28.250155932776533
20
-15.25000000000059
30
-1.870935297064537e-48
40
3
100
AcDbArc
50
46.678510615699075
51
137.90943652950409
0
ARC
5
106
100
AcDbEntity
8
0
100
AcDbCircle
10
32.366703513810521
20
-10.884907101437804
30
-3.8487811825327617e-48
40
3.0000000000000062
100
AcDbArc
50
226.67851061569903
51
272.77856267662486
0
ELLIPSE
5
107
100
AcDbEntity
8
0
100
AcDbEllipse
10
6.5001559000309683
20
-5.8612409124149166e-13
30
0
11
89.900621933545523
21
-0.019073758351143423
31
0.0
40
0.16124537252159843
41
5.0059619734671035
42
5.4353513704658933
0
ARC
5
108
100
AcDbEntity
8
0
100
AcDbCircle
10
65.20438873304181
20
-5.4369988552545578
30
0
40
5.5000000000000089
100
AcDbArc
50
-81.925701939289468
51
30.183469424900192
0
ARC
5
109
100
AcDbEntity
8
0
100
AcDbCircle
10
71.80915611617506
20
-1.0144662887512368e-12
30
4.5437000071567326e-49
40
3.2499999999996092
100
AcDbArc
50
124.70642286385264
51
235.29357713616716
0
ARC
5
110
100
AcDbEntity
8
0
100
AcDbCircle
10
65.204388733041796
20
5.436998855253421
30
0
40
5.5000000000000062
100
AcDbArc
50
-30.183469424918702
51
81.92570193928735
0
ELLIPSE
5
111
100
AcDbEntity
8
0
100
AcDbEllipse
10
6.5001559000309683
20
-5.8612409124149166e-13
30
0
11
90.02430958221791
21
-0.0046611456208313848
31
0.0
40
0.16107828489214662
41
0.84908801123660449
42
1.2776794896304775
0
ARC
5
112
100
AcDbEntity
8
0
100
AcDbCircle
10
32.366447180553564
20
10.884665377834214
30
-6.8422776578360209e-48
40
2.9999999999999947
100
AcDbArc
50
87.213785033659093
51
133.31812487237227
0
ARC
5
113
100
AcDbEntity
8
0
100
AcDbCircle
10
28.250155932776536
20
15.249999999999433
30
0
40
3.0000000000000009
100
AcDbArc
50
222.09056347049591
51
313.31812487237192
0
LWPOLYLINE
5
114
100
AcDbEntity
8
0
100
AcDbPolyline
90
8
70
1
43
0.0
10
-3.7058423402403609
20
-0.26641234748786469
42
-0.13565756356944775
10
-3.7058423402403582
20
0.26641234748676967
10
-2.8573920104733794
20
3.3360396429524277
42
-0.50154121987850175
10
-1.3637098173029916
20
3.9177355096470343
10
3.5499611856708175
20
0.84810821418138649
42
-0.55438321313537497
10
3.5499611856708051
20
-0.84810821418242421
10
-1.3637098173030193
20
-3.9177355096481374
42
-0.50154121987849498
10
-2.8573920104734012
20
-3.3360396429535495
0
ARC
5
115
100
AcDbEntity
8
0
100
AcDbCircle
10
-7.0282561746253087
20
7.4986218175591892
30
-4.276423536147513e-49
40
0.89999999999999736
100
AcDbArc
50
-15.460865408217263
51
90.863844958973758
0
LINE
5
116
100
AcDbEntity
8
0
100
AcDbLine
10
-6.1608246910133051
20
7.258699702616294
30
-4.6121593307777926e-35
11
-7.1694131024318253
21
3.6121774039994214
31
0
0
ARC
5
117
100
AcDbEntity
8
0
100
AcDbCircle
10
-8.1332258620007192
20
3.8787575317137701
30
0
40
1.0000000000000022
100
AcDbArc
50
238.00650065417918
51
344.53913459178165
0
LINE
5
118
100
AcDbEntity
8
0
100
AcDbLine
10
-8.6630489051360282
20
3.0306493175318505
30
1.5722851147642001e-34
11
-14.3834048611631
21
6.6042220642162519
31
0
0
ARC
5
119
100
AcDbEntity
8
0
100
AcDbCircle
10
-13.906564122341328
20
7.3675194569799807
30
3.6082323586244641e-49
40
0.9000000000000018
100
AcDbArc
50
91.323624557544591
51
238.00650065417955
0
ELLIPSE
5
120
100
AcDbEntity
8
0
100
AcDbEllipse
10
6.5001559000309683
20
-5.8612409124149166e-13
30
0
11
-87.899327384149814
21
8.8030226856197998e-13
31
0.0
40
0.096701536324698009
41
4.8670674281233621
42
4.9469300601759043
0
ARC
5
121
100
AcDbEntity
8
0
100
AcDbCircle
10
-13.906564122341338
20
-7.367519456981082
30
0
40
0.89999999999999103
100
AcDbArc
50
121.99349934582163
51
268.67637544244116
0
LINE
5
122
100
AcDbEntity
8
0
100
AcDbLine
10
-14.383404861163122
20
-6.604222064217371
30
1.4484513021268716e-34
11
-8.6630489051360726
21
-3.0306493175329585
31
0
0
ARC
5
123
100
AcDbEntity
8
0
100
AcDbCircle
10
-8.1332258620007369
20
-3.8787575317148737
30
-1.0691058840368783e-49
40
1.0000000000000124
100
AcDbArc
50
15.460865408217854
51
121.99349934582223
0
LINE
5
124
100
AcDbEntity
8
0
100
AcDbLine
10
-7.1694131024318306
20
-3.6121774040005317
30
-5.4804534676693928e-35
11
-6.1608246910133069
21
-7.258699702617335
31
0
0
ARC
5
125
100
AcDbEntity
8
0
100
AcDbCircle
10
-7.0282561746252812
20
-7.4986218175603083
30
4.276423536147513e-49
40
0.89999999999999014
100
AcDbArc
50
-90.863844958974369
51
15.460865408222581
0
ELLIPSE
5
126
100
AcDbEntity
8
0
100
AcDbEllipse
10
6.5001559000309683
20
-5.8612409124149166e-13
30
0
11
-87.899327384149814
21
-8.372440165906986e-13
31
0.0
40
0.096701536324698009
41
1.336255247003677
42
1.4161178790562237
0
LWPOLYLINE
5
127
100
AcDbEntity
8
0
100
AcDbPolyline
90
8
70
1
43
0.0
10
-12.719061549928856
20
0.8481082141813362
42
-0.55438321313536743
10
-12.719061549928856
20
-0.84810821418247306
10
-19.169051119198258
20
-4.8774915459756265
42
-0.49873989764224502
10
-20.660306713626984
20
-4.304424145698647
10
-21.813008345811657
20
-0.27504081390544466
42
-0.14022445672349856
10
-21.813008345811653
20
0.27504081390440194
10
-20.660306713626984
20
4.3044241456976087
42
-0.49873989764224569
10
-19.169051119198265
20
4.8774915459745944
0
ELLIPSE
5
128
100
AcDbEntity
8
0
100
AcDbEllipse
10
6.5001559000309683
20
-5.8612409124149166e-13
30
0
11
-87.899329355656519
21
-3.8102838440181372e-13
31
0.0
40
0.096701534150074542
41
1.5196188893690015
42
1.621973764220789
0
ARC
5
129
100
AcDbEntity
8
0
100
AcDbCircle
10
2.0081147723881192
20
-7.5888821662983652
30
8.3523897190381114e-52
40
0.89999999999999791
100
AcDbArc
50
121.99349934581706
51
269.71620132192976
0
LINE
5
130
100
AcDbEntity
8
0
100
AcDbLine
10
1.5312740335663932
20
-6.8255847735346098
30
-7.2315006354863504e-37
11
5.9703328568957659
21
-4.0524532142541503
31
0
0
ARC
5
131
100
AcDbEntity
8
0
100
AcDbCircle
10
6.5001559000310571
20
-4.9005614284360988
30
5.6128058911936109e-49
40
1.0000000000000084
100
AcDbArc
50
58.006500654180627
51
121.99349934581906
0
LINE
5
132
100
AcDbEntity
8
0
100
AcDbLine
10
7.0299789431663484
20
-4.0524532142541609
30
8.8615785364768674e-35
11
11.469037766495465
21
-6.8255847735345476
31
0
0
ARC
5
133
100
AcDbEntity
8
0
100
AcDbCircle
10
10.992197027673729
20
-7.5888821662982942
30
-2.0045735325691467e-49
40
0.89999999999999902
100
AcDbArc
50
-89.716201321934406
51
58.006500654182155
0
ARC
5
134
100
AcDbEntity
8
0
100
AcDbCircle
10
10.992197027673711
20
7.5888821662971209
30
0
40
0.89999999999999925
100
AcDbArc
50
-58.006500654180314
51
89.715602339078103
0
LINE
5
135
100
AcDbEntity
8
0
100
AcDbLine
10
11.469037766495473
20
6.8255847735333859
30
0
11
7.0299789431663484
21
4.0524532142530489
31
0
0
ARC
5
136
100
AcDbEntity
8
0
100
AcDbCircle
10
6.5001559000310571
20
4.9005614284349992
30
7.7510176592673674e-49
40
1.0000000000000122
100
AcDbArc
50
238.00650065418125
51
301.99349934581898
0
LINE
5
137
100
AcDbEntity
8
0
100
AcDbLine
10
5.970332856895773
20
4.0524532142530525
30
-8.8615785364765467e-35
11
1.5312740335663921
21
6.825584773533464
31
0
0
ARC
5
138
100
AcDbEntity
8
0
100
AcDbCircle
10
2.008114772388137
20
7.5888821662972283
30
2.6727647100921956e-50
40
0.90000000000001079
100
AcDbArc
50
90.283798678059739
51
238.00650065418225
0
ELLIPSE
5
139
100
AcDbEntity
8
0
100
AcDbEllipse
10
6.5001559000309683
20
-5.8612409124149166e-13
30
0
11
-87.899327384149814
21
8.8030226856197998e-13
31
0.0
40
0.096701536324698009
41
4.6612114346299753
42
4.763566418959452
0
ARC
5
140
100
AcDbEntity
8
0
100
AcDbCircle
10
26.906875922408226
20
7.36751945697943
30
2.6727647100921956e-49
40
0.89999999999999925
100
AcDbArc
50
-58.006500654199648
51
88.675791936894043
0
LINE
5
141
100
AcDbEntity
8
0
100
AcDbLine
10
27.38371666122973
20
6.6042220642155343
30
1.4781943943773908e-34
11
21.663360705197814
21
3.0306493175311644
31
0
0
ARC
5
142
100
AcDbEntity
8
0
100
AcDbCircle
10
21.133537662062807
20
3.8787575317132723
30
1.3363823550460978e-49
40
1.000000000000004
100
AcDbArc
50
195.46086540821872
51
301.99349934580039
0
LINE
5
143
100
AcDbEntity
8
0
100
AcDbLine
10
20.169724902493911
20
3.6121774039989174
30
-5.4804534676620234e-35
11
19.161136491075297
21
7.258699702615985
31
0
0
ARC
5
144
100
AcDbEntity
8
0
100
AcDbCircle
10
20.02856856530029
20
7.4986213610638224
30
-3.0521459118616299e-49
40
0.90000044754801878
100
AcDbArc
50
89.135896740972626
51
195.46082737520561
0
ELLIPSE
5
145
100
AcDbEntity
8
0
100
AcDbEllipse
10
6.5001559000309683
20
-5.8612409124149166e-13
30
0
11
-87.899327384149814
21
8.8030226856197998e-13
31
0.0
40
0.096701536324698009
41
4.4778477934106773
42
4.5577104790562224
0
LWPOLYLINE
5
146
100
AcDbEntity
8
0
100
AcDbPolyline
90
6
70
1
43
0.0
10
44.509397119745913
20
6.5162538296513972
42
-0.69417649550523186
10
44.883878533997787
20
4.6802848062780642
10
39.597266067360039
20
1.377676650724825
42
-0.49873989764210985
10
38.106010472931658
20
1.9507440510019902
10
36.867694565756167
20
6.2794006057864147
42
-0.54805725652006243
10
37.984468745932666
20
7.5423022288826171
0
LWPOLYLINE
5
147
100
AcDbEntity
8
0
100
AcDbPolyline
90
4
70
1
43
0.0
10
64.050155916403796
20
-3.9000000000005852
42
-0.99999999999999989
10
64.050155916403753
20
-6.1000000000005876
10
54.050155916403718
20
-6.100000000000585
42
-0.99999999999999989
10
54.050155916403739
20
-3.900000000000587
0
LWPOLYLINE
5
148
100
AcDbEntity
8
0
100
AcDbPolyline
90
8
70
1
43
0.0
10
48.658973936396606
20
3.5013462592197628
42
-0.4987398976421325
10
50.150229530824987
20
2.928278858942583
10
50.909251836039353
20
0.27504081390436647
42
-0.1402244567235075
10
50.90925183603936
20
-0.27504081390549939
10
50.150229530824987
20
-2.9282788589437194
42
-0.49873989764212917
10
48.658973936396578
20
-3.5013462592208757
10
44.411833293244229
20
-0.84810821418266147
42
-0.55438321313562999
10
44.411833293244207
20
0.84810821418154991
0
ARC
5
149
100
AcDbEntity
8
0
100
AcDbCircle
10
20.028567974687288
20
-7.4986218175600428
30
1.8792876867835751e-51
40
0.89999999999999958
100
AcDbArc
50
164.53913459178116
51
270.86325229293374
0
LINE
5
150
100
AcDbEntity
8
0
100
AcDbLine
10
19.16113649107529
20
-7.2586997026171227
30
-2.5991578908224948e-36
11
20.169724902493922
21
-3.6121774040000609
31
0
0
ARC
5
151
100
AcDbEntity
8
0
100
AcDbCircle
10
21.133537662062807
20
-3.8787575317144101
30
2.6727647100921956e-50
40
1.0000000000000042
100
AcDbArc
50
58.006500654199691
51
164.53913459178145
0
LINE
5
152
100
AcDbEntity
8
0
100
AcDbLine
10
21.663360705197814
20
-3.0306493175322995
30
-1.8463077881478363e-34
11
27.383716661229744
21
-6.6042220642166605
31
0
0
ARC
5
153
100
AcDbEntity
8
0
100
AcDbCircle
10
26.906875922408201
20
-7.3675194569805305
30
0
40
0.90000000001169089
100
AcDbArc
50
-88.676667190074852
51
58.006500654196671
0
ELLIPSE
5
154
100
AcDbEntity
8
0
100
AcDbEllipse
10
6.5001559000309683
20
-5.8612409124149166e-13
30
0
11
-87.899327384149814
21
-8.372440165906986e-13
31
0.0
40
0.096701536324698009
41
1.7254746673550649
42
1.8053373529963797
0
LWPOLYLINE
5
155
100
AcDbEntity
8
0
100
AcDbPolyline
90
4
70
1
43
0.0
10
64.050155916403767
20
6.0999999999994445
42
-0.99999999999999989
10
64.050155916403767
20
3.8999999999994186
10
54.050155916403767
20
3.8999999999994506
42
-0.99999999999999989
10
54.050155916403767
20
6.0999999999994481
0
LWPOLYLINE
5
156
100
AcDbEntity
8
0
100
AcDbPolyline
90
8
70
1
43
0.0
10
14.364021617364919
20
3.9177355096469872
42
-0.50154121987849787
10
15.857703810535293
20
3.33603964295241
10
16.70615414030231
20
0.26641234748677289
42
-0.13565756356944683
10
16.706154140302296
20
-0.26641234748785936
10
15.857703810535291
20
-3.3360396429535619
42
-0.50154121987849232
10
14.364021617364902
20
-3.9177355096481046
10
9.4503506143911018
20
-0.84810821418248927
42
-0.55438321313537753
10
9.4503506143911054
20
0.84810821418131899
0
LWPOLYLINE
5
157
100
AcDbEntity
8
0
100
AcDbPolyline
90
8
70
1
43
0.0
10
25.719373349992249
20
-0.84810821418268501
42
-0.55438321313561911
10
25.719373349992271
20
0.84810821418152549
10
32.169362919261488
20
4.8774915459712966
42
-0.49873989764213272
10
33.660618513689904
20
4.304424145694135
10
34.813320145873575
20
0.27504081390436186
42
-0.14022445672350511
10
34.813320145873561
20
-0.27504081390549717
10
33.660618513689926
20
-4.3044241456952683
42
-0.49873989764213034
10
32.169362919261516
20
-4.8774915459724149
0
LWPOLYLINE
5
158
100
AcDbEntity
8
0
100
AcDbPolyline
90
6
70
1
43
0.0
10
44.883878533997795
20
-4.6802848062792224
42
-0.69417649550522476
10
44.50939711974592
20
-6.5162538296525501
10
37.984468745932638
20
-7.5423022288837203
42
-0.54805725652005466
10
36.867694565756139
20
-6.2794006057875373
10
38.106010472931636
20
-1.950744051003126
42
-0.49873989764212856
10
39.597266067360039
20
-1.3776766507259679
0
ENDSEC
0
SECTION
2
OBJECTS
0
DICTIONARY
5
C
100
AcDbDictionary
3
ACAD_GROUP
350
D
3
ACAD_MLINESTYLE
350
17
0
DICTIONARY
5
D
100
AcDbDictionary
0
DICTIONARY
5
1A
330
C
100
AcDbDictionary
0
DICTIONARY
5
17
100
AcDbDictionary
0
ENDSEC
0
EOF
