0
SECTION
2
HEADER
9
$INSUNITS
70
4
9
$ACADVER
1
AC1014
9
$HANDSEED
5
FFFF
0
ENDSEC
0
SECTION
2
TABLES
0
TABLE
2
VPORT
5
8
100
AcDbSymbolTable
0
ENDTAB
0
TABLE
2
LTYPE
5
5
100
AcDbSymbolTable
0
LTYPE
5
14
100
AcDbSymbolTableRecord
100
AcDbLinetypeTableRecord
2
BYBLOCK
70
0
0
LTYPE
5
15
100
AcDbSymbolTableRecord
100
AcDbLinetypeTableRecord
2
BYLAYER
70
0
0
ENDTAB
0
TABLE
2
LAYER
5
2
100
AcDbSymbolTable
70
2
0
LAYER
5
50
100
AcDbSymbolTableRecord
100
AcDbLayerTableRecord
2
0
70
0
6
CONTINUOUS
0
ENDTAB
0
TABLE
2
STYLE
5
3
100
AcDbSymbolTable
70
1
0
STYLE
5
11
100
AcDbSymbolTableRecord
100
AcDbTextStyleTableRecord
2
STANDARD
70
0
0
ENDTAB
0
TABLE
2
VIEW
5
6
100
AcDbSymbolTable
70
0
0
ENDTAB
0
TABLE
2
UCS
5
7
100
AcDbSymbolTable
70
0
0
ENDTAB
0
TABLE
2
APPID
5
9
100
AcDbSymbolTable
70
2
0
APPID
5
12
100
AcDbSymbolTableRecord
100
AcDbRegAppTableRecord
2
ACAD
70
0
0
ENDTAB
0
TABLE
2
DIMSTYLE
5
A
100
AcDbSymbolTable
70
1
0
ENDTAB
0
TABLE
2
BLOCK_RECORD
5
1
100
AcDbSymbolTable
70
1
0
BLOCK_RECORD
5
1F
100
AcDbSymbolTableRecord
100
AcDbBlockTableRecord
2
*MODEL_SPACE
0
BLOCK_RECORD
5
1B
100
AcDbSymbolTableRecord
100
AcDbBlockTableRecord
2
*PAPER_SPACE
0
ENDTAB
0
ENDSEC
0
SECTION
2
BLOCKS
0
BLOCK
5
20
100
AcDbEntity
100
AcDbBlockBegin
2
*MODEL_SPACE
0
ENDBLK
5
21
100
AcDbEntity
100
AcDbBlockEnd
0
BLOCK
5
1C
100
AcDbEntity
100
AcDbBlockBegin
2
*PAPER_SPACE
0
ENDBLK
5
1D
100
AcDbEntity
100
AcDbBlockEnd
0
ENDSEC
0
SECTION
2
ENTITIES
0
CIRCLE
5
100
100
AcDbEntity
8
0
100
AcDbCircle
10
9.9999999999999964
20
9.9999999999999964
30
0
40
3.0000000000000004
0
CIRCLE
5
101
100
AcDbEntity
8
0
100
AcDbCircle
10
9.9999999999999964
20
-10.000000000000004
30
0
40
3.0000000000000004
0
CIRCLE
5
102
100
AcDbEntity
8
0
100
AcDbCircle
10
-10.000000000000004
20
9.9999999999999964
30
0
40
3.0000000000000004
0
CIRCLE
5
103
100
AcDbEntity
8
0
100
AcDbCircle
10
-10.000000000000004
20
-10.000000000000004
30
0
40
3.0000000000000004
0
ARC
5
104
100
AcDbEntity
8
0
100
AcDbCircle
10
-3.0696272954665904
20
8.3938446604945298
30
0
40
0.99999999999999523
100
AcDbArc
50
105.45089161670116
51
211.99349934582204
0
LINE
5
105
100
AcDbEntity
8
0
100
AcDbLine
10
-0.84810821418282167
20
2.9503506143853802
30
0
11
-3.9177355096484923
21
7.8640216173592057
31
0
0
ARC
5
106
100
AcDbEntity
8
0
100
AcDbCircle
10
-9.1683605152326209e-13
20
3.4801736575207114
30
0
40
1.0000000000000013
100
AcDbArc
50
211.9934993458223
51
328.00650065417773
0
LINE
5
107
100
AcDbEntity
8
0
100
AcDbLine
10
3.9177355096466595
20
7.864021617359195
30
0
11
0.8481082141809887
21
2.9503506143853815
31
0
0
ARC
5
108
100
AcDbEntity
8
0
100
AcDbCircle
10
3.0696272954647563
20
8.3938446604945263
30
0
40
1.0000000000000004
100
AcDbArc
50
-31.993499345822386
51
74.549108383298929
0
LINE
5
109
100
AcDbEntity
8
0
100
AcDbLine
10
0.26641234748640408
20
10.20615414029656
30
0
11
3.3360396429520778
21
9.3577038105295802
31
0
0
ARC
5
110
100
AcDbEntity
8
0
100
AcDbCircle
10
-9.2826787922994924e-13
20
9.242294990261561
30
0
40
0.99999999999995104
100
AcDbArc
50
74.549108383297479
51
105.45089161670109
0
LINE
5
111
100
AcDbEntity
8
0
100
AcDbLine
10
-3.3360396429539119
20
9.3577038105295784
30
0
11
-0.26641234748823628
21
10.206154140296565
31
0
0
LINE
5
112
100
AcDbEntity
8
0
100
AcDbLine
10
-0.26641234748823228
20
-10.205842340246088
30
0
11
-3.3360396429539052
21
-9.3573920104791064
31
0
0
ARC
5
113
100
AcDbEntity
8
0
100
AcDbCircle
10
-3.069627295466586
20
-8.3935328604440507
30
0
40
1.0000000000000022
100
AcDbArc
50
148.00650065417801
51
254.54910838329909
0
LINE
5
114
100
AcDbEntity
8
0
100
AcDbLine
10
-3.9177355096484945
20
-7.8637098173087239
30
0
11
-0.84810821418282112
21
-2.9500388143349103
31
0
0
ARC
5
115
100
AcDbEntity
8
0
100
AcDbCircle
10
-9.170442183403793e-13
20
-3.4798618574702416
30
0
40
1.0000000000000011
100
AcDbArc
50
31.9934993458224
51
148.00650065417767
0
LINE
5
116
100
AcDbEntity
8
0
100
AcDbLine
10
0.84810821418098647
20
-2.9500388143349094
30
0
11
3.9177355096466595
21
-7.8637098173087239
31
0
0
ARC
5
117
100
AcDbEntity
8
0
100
AcDbCircle
10
3.0696272954647537
20
-8.3935328604440542
30
0
40
1.0000000000000013
100
AcDbArc
50
-74.549108383298744
51
31.99349934582224
0
LINE
5
118
100
AcDbEntity
8
0
100
AcDbLine
10
3.3360396429520782
20
-9.3573920104791082
30
0
11
0.26641234748640386
21
-10.205842340246088
31
0
0
ARC
5
119
100
AcDbEntity
8
0
100
AcDbCircle
10
-9.1362681309270499e-13
20
-9.2419831902110676
30
0
40
0.99999999999996669
100
AcDbArc
50
254.54910838329855
51
285.45089161670131
0
ARC
5
120
100
AcDbEntity
8
0
100
AcDbCircle
10
-7.5888821662986121
20
4.492197027667987
30
0
40
0.90000000000000246
100
AcDbArc
50
31.993499345819753
51
179.71590183071152
0
LINE
5
121
100
AcDbEntity
8
0
100
AcDbLine
10
-6.8255847735348754
20
4.9690377664897518
30
0
11
-4.0524532142545189
21
0.52997894316060723
31
0
0
ARC
5
122
100
AcDbEntity
8
0
100
AcDbCircle
10
-4.9005614284364549
20
0.00015590002531817859
30
0
40
1.0000000000000071
100
AcDbArc
50
-31.993499345818773
51
31.993499345819302
0
LINE
5
123
100
AcDbEntity
8
0
100
AcDbLine
10
-4.0524532142545127
20
-0.52966714310996355
30
0
11
-6.8255847735349544
21
-4.9687259664393499
31
0
0
ARC
5
124
100
AcDbEntity
8
0
100
AcDbCircle
10
-7.5888821662986956
20
-4.4918852276175958
30
0
40
0.90000000000000124
100
AcDbArc
50
180.28379867806558
51
328.00650065418102
0
ELLIPSE
5
125
100
AcDbEntity
8
0
100
AcDbEllipse
10
-9.170442183403793e-13
20
0.00015590002523602209
30
0
11
-8.5138229752024901e-13
21
-87.899327384149785
31
0.0
40
0.096701536324697995
41
4.6612114882201352
42
4.7635664189594538
0
LINE
5
126
100
AcDbEntity
8
0
100
AcDbLine
10
6.8255847735331336
20
-4.9687259664393482
30
0
11
4.0524532142526937
21
-0.52966714310996643
31
0
0
ARC
5
127
100
AcDbEntity
8
0
100
AcDbCircle
10
7.5888821662968722
20
-4.491885227617594
30
0
40
0.89999999999999858
100
AcDbArc
50
211.99349934581912
51
359.71620132193317
0
ELLIPSE
5
128
100
AcDbEntity
8
0
100
AcDbEllipse
10
-9.170442183403793e-13
20
0.00015590002523602209
30
0
11
8.5138229752024901e-13
21
-87.899327384149785
31
0.0
40
0.096701536324697995
41
1.5196188882201325
42
1.621973765369658
0
ARC
5
129
100
AcDbEntity
8
0
100
AcDbCircle
10
7.5888821662967842
20
4.4921970276679968
30
0
40
0.89999999999999358
100
AcDbArc
50
0.28379867806558606
51
148.00650065418088
0
LINE
5
130
100
AcDbEntity
8
0
100
AcDbLine
10
4.0524532142526928
20
0.52997894316061622
30
0
11
6.8255847735330502
21
4.9690377664897483
31
0
0
ARC
5
131
100
AcDbEntity
8
0
100
AcDbCircle
10
4.9005614284346279
20
0.00015590002532522157
30
0
40
1.0000000000000056
100
AcDbArc
50
148.00650065418057
51
211.99349934581949
0
ARC
5
132
100
AcDbEntity
8
0
100
AcDbCircle
10
36.367643633556185
20
-7.8242967660457907e-12
30
0
40
18.000000000000469
100
AcDbArc
50
158.44553048290192
51
201.55446951714444
0
ARC
5
133
100
AcDbEntity
8
0
100
AcDbCircle
10
31.717300008645111
20
-1.8369279164603236
30
0
40
13.000000000001105
100
AcDbArc
50
201.55446951714495
51
210.06273732717204
0
ARC
5
134
100
AcDbEntity
8
0
100
AcDbCircle
10
17.869661636404388
20
-9.8520955074518302
30
0
40
3.0000000000000311
100
AcDbArc
50
-115.88780237275208
51
30.062737327172776
0
ARC
5
135
100
AcDbEntity
8
0
100
AcDbCircle
10
15.250000000000439
20
-15.250000000007597
30
0
40
2.9999999999999973
100
AcDbArc
50
64.11219762724771
51
210.74147742981725
0
ARC
5
136
100
AcDbEntity
8
0
100
AcDbCircle
10
10.09310526843694
20
-18.316991478243636
30
0
40
2.9999999999999947
100
AcDbArc
50
-61.144172862167736
51
30.741477429817561
0
ARC
5
137
100
AcDbEntity
8
0
100
AcDbCircle
10
1.3677947663381929e-12
20
-2.1227464230832993e-12
30
0
40
23.913702464501455
100
AcDbArc
50
241.14417286216258
51
298.85582713783293
0
ARC
5
138
100
AcDbEntity
8
0
100
AcDbCircle
10
-10.093105268435536
20
-18.316991478242873
30
0
40
3.000000000000024
100
AcDbArc
50
149.25852257019164
51
241.14417286216207
0
ARC
5
139
100
AcDbEntity
8
0
100
AcDbCircle
10
-15.249999999999535
20
-15.250000000007615
30
0
40
2.9999999999999942
100
AcDbArc
50
-30.741477429808693
51
120.74147742982632
0
ARC
5
140
100
AcDbEntity
8
0
100
AcDbCircle
10
-18.316991478236339
20
-10.093105268444562
30
0
40
3.0000000004300089
100
AcDbArc
50
208.85582713700964
51
300.74147742982541
0
ARC
5
141
100
AcDbEntity
8
0
100
AcDbCircle
10
-18.182531666579649
20
-10.369808199617863
30
0
40
3.0000000000000053
100
AcDbArc
50
147.77096525006218
51
202.97770926764676
0
ARC
5
142
100
AcDbEntity
8
0
100
AcDbCircle
10
-31.717300008641217
20
-1.8369279164594621
30
0
40
12.999999999999542
100
AcDbArc
50
327.77096525006226
51
338.44553048287611
0
ARC
5
143
100
AcDbEntity
8
0
100
AcDbCircle
10
-36.367643633554046
20
-7.8409501114151681e-12
30
0
40
18.000000000000199
100
AcDbArc
50
-21.55446951712457
51
21.554469517017758
0
ARC
5
144
100
AcDbEntity
8
0
100
AcDbCircle
10
-31.717300008634609
20
1.836927916436536
30
0
40
12.999999999996009
100
AcDbArc
50
21.554469517016344
51
30.062737327219267
0
ARC
5
145
100
AcDbEntity
8
0
100
AcDbCircle
10
-17.869661636404828
20
9.8520955074368555
30
0
40
3.0000000000000107
100
AcDbArc
50
64.112197627233542
51
210.06273732721849
0
ARC
5
146
100
AcDbEntity
8
0
100
AcDbCircle
10
-15.249999999999538
20
15.249999999991937
30
0
40
2.9999999999999885
100
AcDbArc
50
-115.88780237276667
51
30.74147742990441
0
ARC
5
147
100
AcDbEntity
8
0
100
AcDbCircle
10
-10.093105268440688
20
18.316991478235813
30
0
40
3.0000000000000124
100
AcDbArc
50
118.85582713785315
51
210.74147742990442
0
ARC
5
148
100
AcDbEntity
8
0
100
AcDbCircle
10
1.3677947663381929e-12
20
-2.1227464230832993e-12
30
0
40
23.913702464501469
100
AcDbArc
50
61.144172862150953
51
118.85582713785337
0
ARC
5
149
100
AcDbEntity
8
0
100
AcDbCircle
10
10.093105268442027
20
18.316991478236588
30
0
40
3.0000000000000049
100
AcDbArc
50
-30.741477429912557
51
61.144172862150739
0
ARC
5
150
100
AcDbEntity
8
0
100
AcDbCircle
10
15.250000000000439
20
15.249999999991958
30
0
40
3.0000000000000018
100
AcDbArc
50
149.25852257008711
51
295.88780237276268
0
ARC
5
151
100
AcDbEntity
8
0
100
AcDbCircle
10
17.869661636405361
20
9.8520955074366867
30
0
40
2.9999999999999942
100
AcDbArc
50
-30.06273732719055
51
115.88780237276247
0
ARC
5
152
100
AcDbEntity
8
0
100
AcDbCircle
10
31.717300008644237
20
1.8369279164405461
30
0
40
13.000000000001799
100
AcDbArc
50
149.93726267281028
51
158.44553048290095
0
ENDSEC
0
SECTION
2
OBJECTS
0
DICTIONARY
5
C
100
AcDbDictionary
3
ACAD_GROUP
350
D
3
ACAD_MLINESTYLE
350
17
0
DICTIONARY
5
D
100
AcDbDictionary
0
DICTIONARY
5
1A
330
C
100
AcDbDictionary
0
DICTIONARY
5
17
100
AcDbDictionary
0
ENDSEC
0
EOF
