999
dxflib 3.12.2.0
  0
SECTION
  2
HEADER
  9
$ACADVER
  1
AC1015
  9
$HANDSEED
  5
FFFF
  9
$DIMADEC
 70
0
  9
$DIMASZ
 40
2.5
  9
$DIMAUNIT
 70
0
  9
$DIMAZIN
 70
2
  9
$DIMDEC
 70
4
  9
$DIMEXE
 40
1.25
  9
$DIMEXO
 40
0.625
  9
$DIMGAP
 40
0.625
  9
$DIMLUNIT
 70
2
  9
$DIMSCALE
 40
1.0
  9
$DIMTSZ
 40
0.0
  9
$DIMTXT
 40
2.5
  9
$DIMZIN
 70
8
  9
$DWGCODEPAGE
  3
ANSI_1252
  9
$INSUNITS
 70
4
  9
$LTSCALE
 40
1.0
  9
$MAXACTVP
 70
32
  9
$MEASUREMENT
 70
1
  9
$PDMODE
 70
0
  9
$PDSIZE
 40
0
  0
ENDSEC
  0
SECTION
  2
TABLES
  0
TABLE
  2
VPORT
  5
8
100
AcDbSymbolTable
 70
1
  0
VPORT
  5
30
100
AcDbSymbolTableRecord
100
AcDbViewportTableRecord
  2
*Active
 70
0
 10
0.0
 20
0.0
 11
1.0
 21
1.0
 12
286.30555555555549
 22
148.5
 13
0.0
 23
0.0
 14
10.0
 24
10.0
 15
10.0
 25
10.0
 16
0.0
 26
0.0
 36
1.0
 17
0.0
 27
0.0
 37
0.0
 40
297.0
 41
1.92798353909465
 42
50.0
 43
0.0
 44
0.0
 50
0.0
 51
0.0
 71
0
 72
100
 73
1
 74
3
 75
1
 76
1
 77
0
 78
0
281
0
 65
1
110
0.0
120
0.0
130
0.0
111
1.0
121
0.0
131
0.0
112
0.0
122
1.0
132
0.0
 79
0
146
0.0
  0
ENDTAB
  0
TABLE
  2
LTYPE
  5
5
100
AcDbSymbolTable
 70
41
  0
LTYPE
  5
16
100
AcDbSymbolTableRecord
100
AcDbLinetypeTableRecord
  2
Continuous
 70
0
  3
Solid line
 72
65
 73
0
 40
0.0
  0
LTYPE
  5
31
100
AcDbSymbolTableRecord
100
AcDbLinetypeTableRecord
  2
DASHEDX2
 70
0
  3
Dashed (2x) ____  ____  ____  ____  ____  ___
 72
65
 73
2
 40
38.099999999999994
 49
25.399999999999999
 74
0
 49
-12.699999999999999
 74
0
  0
LTYPE
  5
32
100
AcDbSymbolTableRecord
100
AcDbLinetypeTableRecord
  2
ACAD_ISO08W100
 70
0
  3
ISO long-dash short-dash ____ __ ____ __ ____ _
 72
65
 73
4
 40
36.0
 49
24.0
 74
0
 49
-3.0
 74
0
 49
6.0
 74
0
 49
-3.0
 74
0
  0
LTYPE
  5
33
100
AcDbSymbolTableRecord
100
AcDbLinetypeTableRecord
  2
ACAD_ISO15W100
 70
0
  3
ISO double-dash triple-dot __ __ . . . __ __ . .
 72
65
 73
10
 40
39.000000000000007
 49
12.0
 74
0
 49
-3.0
 74
0
 49
12.0
 74
0
 49
-2.9500000000000002
 74
0
 49
0.1
 74
0
 49
-2.9000000000000004
 74
0
 49
0.1
 74
0
 49
-2.9000000000000004
 74
0
 49
0.1
 74
0
 49
-2.9500000000000002
 74
0
  0
LTYPE
  5
34
100
AcDbSymbolTableRecord
100
AcDbLinetypeTableRecord
  2
ACAD_ISO10W100
 70
0
  3
ISO dash dot __ . __ . __ . __ . __ . __ . __ . 
 72
65
 73
4
 40
18.0
 49
12.0
 74
0
 49
-2.9500000000000002
 74
0
 49
0.1
 74
0
 49
-2.9500000000000002
 74
0
  0
LTYPE
  5
15
100
AcDbSymbolTableRecord
100
AcDbLinetypeTableRecord
  2
BYLAYER
 70
0
  3

 72
65
 73
0
 40
0.0
  0
LTYPE
  5
35
100
AcDbSymbolTableRecord
100
AcDbLinetypeTableRecord
  2
DOT
 70
0
  3
Dot . . . . . . . . . . . . . . . . . . . . . . . .
 72
65
 73
2
 40
6.3499999999999996
 49
0.1
 74
0
 49
-6.25
 74
0
  0
LTYPE
  5
36
100
AcDbSymbolTableRecord
100
AcDbLinetypeTableRecord
  2
ACAD_ISO06W100
 70
0
  3
ISO long-dash triple-dot ____ ... ____ ... ____
 72
65
 73
8
 40
36.000000000000007
 49
24.0
 74
0
 49
-2.9500000000000002
 74
0
 49
0.1
 74
0
 49
-2.9000000000000004
 74
0
 49
0.1
 74
0
 49
-2.9000000000000004
 74
0
 49
0.1
 74
0
 49
-2.9500000000000002
 74
0
  0
LTYPE
  5
37
100
AcDbSymbolTableRecord
100
AcDbLinetypeTableRecord
  2
DASHDOT
 70
0
  3
Dash dot __ . __ . __ . __ . __ . __ . __ . __
 72
65
 73
4
 40
25.400000000000002
 49
12.699999999999999
 74
0
 49
-6.2999999999999998
 74
0
 49
0.1
 74
0
 49
-6.2999999999999998
 74
0
  0
LTYPE
  5
38
100
AcDbSymbolTableRecord
100
AcDbLinetypeTableRecord
  2
BORDER
 70
0
  3
Border __ __ . __ __ . __ __ . __ __ . __ __ .
 72
65
 73
6
 40
44.449999999999996
 49
12.699999999999999
 74
0
 49
-6.3499999999999996
 74
0
 49
12.699999999999999
 74
0
 49
-6.2999999999999998
 74
0
 49
0.1
 74
0
 49
-6.2999999999999998
 74
0
  0
LTYPE
  5
39
100
AcDbSymbolTableRecord
100
AcDbLinetypeTableRecord
  2
PHANTOM2
 70
0
  3
Phantom (.5x) ___ _ _ ___ _ _ ___ _ _ ___ _ _
 72
65
 73
6
 40
31.750000000000004
 49
15.875
 74
0
 49
-3.1749999999999998
 74
0
 49
3.1749999999999998
 74
0
 49
-3.1749999999999998
 74
0
 49
3.1749999999999998
 74
0
 49
-3.1749999999999998
 74
0
  0
LTYPE
  5
3A
100
AcDbSymbolTableRecord
100
AcDbLinetypeTableRecord
  2
ACAD_ISO13W100
 70
0
  3
ISO double-dash double-dot __ __ . . __ __ . . _
 72
65
 73
8
 40
36.000000000000007
 49
12.0
 74
0
 49
-3.0
 74
0
 49
12.0
 74
0
 49
-2.9500000000000002
 74
0
 49
0.1
 74
0
 49
-2.9000000000000004
 74
0
 49
0.1
 74
0
 49
-2.9500000000000002
 74
0
  0
LTYPE
  5
3B
100
AcDbSymbolTableRecord
100
AcDbLinetypeTableRecord
  2
DASHDOT2
 70
0
  3
Dash dot (.5x) _._._._._._._._._._._._._._._.
 72
65
 73
4
 40
12.699999999999999
 49
6.3499999999999996
 74
0
 49
-3.125
 74
0
 49
0.1
 74
0
 49
-3.125
 74
0
  0
LTYPE
  5
3C
100
AcDbSymbolTableRecord
100
AcDbLinetypeTableRecord
  2
ACAD_ISO07W100
 70
0
  3
ISO dot . . . . . . . . . . . . . . . . . . . . 
 72
65
 73
2
 40
3.0
 49
0.1
 74
0
 49
-2.8999999999999999
 74
0
  0
LTYPE
  5
3D
100
AcDbSymbolTableRecord
100
AcDbLinetypeTableRecord
  2
HIDDENX2
 70
0
  3
Hidden (2x) ____ ____ ____ ____ ____ ____ ____ 
 72
65
 73
2
 40
19.049999999999997
 49
12.699999999999999
 74
0
 49
-6.3499999999999996
 74
0
  0
LTYPE
  5
3E
100
AcDbSymbolTableRecord
100
AcDbLinetypeTableRecord
  2
DASHDOTX2
 70
0
  3
Dash dot (2x) ____  .  ____  .  ____  .  ___
 72
65
 73
4
 40
50.799999999999997
 49
25.399999999999999
 74
0
 49
-12.649999999999999
 74
0
 49
0.1
 74
0
 49
-12.649999999999999
 74
0
  0
LTYPE
  5
3F
100
AcDbSymbolTableRecord
100
AcDbLinetypeTableRecord
  2
ACAD_ISO12W100
 70
0
  3
ISO dash double-dot __ . . __ . . __ . . __ . . 
 72
65
 73
6
 40
21.0
 49
12.0
 74
0
 49
-2.9500000000000002
 74
0
 49
0.1
 74
0
 49
-2.9000000000000004
 74
0
 49
0.1
 74
0
 49
-2.9500000000000002
 74
0
  0
LTYPE
  5
40
100
AcDbSymbolTableRecord
100
AcDbLinetypeTableRecord
  2
ACAD_ISO05W100
 70
0
  3
ISO long-dash double-dot ____ .. ____ .. ____ . 
 72
65
 73
6
 40
33.000000000000007
 49
24.0
 74
0
 49
-2.9500000000000002
 74
0
 49
0.1
 74
0
 49
-2.9000000000000004
 74
0
 49
0.1
 74
0
 49
-2.9500000000000002
 74
0
  0
LTYPE
  5
41
100
AcDbSymbolTableRecord
100
AcDbLinetypeTableRecord
  2
ACAD_ISO04W100
 70
0
  3
ISO long-dash dot ____ . ____ . ____ . ____ . _
 72
65
 73
4
 40
30.0
 49
24.0
 74
0
 49
-2.9500000000000002
 74
0
 49
0.1
 74
0
 49
-2.9500000000000002
 74
0
  0
LTYPE
  5
42
100
AcDbSymbolTableRecord
100
AcDbLinetypeTableRecord
  2
CENTERX2
 70
0
  3
Center (2x) ________  __  ________  __  _____
 72
65
 73
4
 40
101.60000000000001
 49
63.5
 74
0
 49
-12.699999999999999
 74
0
 49
12.699999999999999
 74
0
 49
-12.699999999999999
 74
0
  0
LTYPE
  5
43
100
AcDbSymbolTableRecord
100
AcDbLinetypeTableRecord
  2
DIVIDEX2
 70
0
  3
Divide (2x) ________  .  .  ________  .  .  _
 72
65
 73
6
 40
63.5
 49
25.399999999999999
 74
0
 49
-12.649999999999999
 74
0
 49
0.1
 74
0
 49
-12.599999999999998
 74
0
 49
0.1
 74
0
 49
-12.649999999999999
 74
0
  0
LTYPE
  5
44
100
AcDbSymbolTableRecord
100
AcDbLinetypeTableRecord
  2
ACAD_ISO02W100
 70
0
  3
ISO dash __ __ __ __ __ __ __ __ __ __ __ __ __
 72
65
 73
2
 40
15.0
 49
12.0
 74
0
 49
-3.0
 74
0
  0
LTYPE
  5
45
100
AcDbSymbolTableRecord
100
AcDbLinetypeTableRecord
  2
ACAD_ISO09W100
 70
0
  3
ISO long-dash double-short-dash ____ __ __ ____
 72
65
 73
6
 40
45.0
 49
24.0
 74
0
 49
-3.0
 74
0
 49
6.0
 74
0
 49
-3.0
 74
0
 49
6.0
 74
0
 49
-3.0
 74
0
  0
LTYPE
  5
14
100
AcDbSymbolTableRecord
100
AcDbLinetypeTableRecord
  2
BYBLOCK
 70
0
  3

 72
65
 73
0
 40
0.0
  0
LTYPE
  5
46
100
AcDbSymbolTableRecord
100
AcDbLinetypeTableRecord
  2
BORDER2
 70
0
  3
Border (.5x) __.__.__.__.__.__.__.__.__.__.__.
 72
65
 73
6
 40
22.225000000000001
 49
6.3499999999999996
 74
0
 49
-3.1749999999999998
 74
0
 49
6.3499999999999996
 74
0
 49
-3.125
 74
0
 49
0.1
 74
0
 49
-3.125
 74
0
  0
LTYPE
  5
47
100
AcDbSymbolTableRecord
100
AcDbLinetypeTableRecord
  2
PHANTOM
 70
0
  3
Phantom ______  __  __  ______  __  __  ______ 
 72
65
 73
6
 40
63.500000000000007
 49
31.75
 74
0
 49
-6.3499999999999996
 74
0
 49
6.3499999999999996
 74
0
 49
-6.3499999999999996
 74
0
 49
6.3499999999999996
 74
0
 49
-6.3499999999999996
 74
0
  0
LTYPE
  5
48
100
AcDbSymbolTableRecord
100
AcDbLinetypeTableRecord
  2
ACAD_ISO14W100
 70
0
  3
ISO dash triple-dot __ . . . __ . . . __ . . . _
 72
65
 73
8
 40
24.000000000000004
 49
12.0
 74
0
 49
-2.9500000000000002
 74
0
 49
0.1
 74
0
 49
-2.9000000000000004
 74
0
 49
0.1
 74
0
 49
-2.9000000000000004
 74
0
 49
0.1
 74
0
 49
-2.9500000000000002
 74
0
  0
LTYPE
  5
49
100
AcDbSymbolTableRecord
100
AcDbLinetypeTableRecord
  2
DIVIDE2
 70
0
  3
Divide (.5x) __..__..__..__..__..__..__..__.._
 72
65
 73
6
 40
15.874999999999998
 49
6.3499999999999996
 74
0
 49
-3.125
 74
0
 49
0.1
 74
0
 49
-3.0750000000000002
 74
0
 49
0.1
 74
0
 49
-3.125
 74
0
  0
LTYPE
  5
4A
100
AcDbSymbolTableRecord
100
AcDbLinetypeTableRecord
  2
ACAD_ISO11W100
 70
0
  3
ISO double-dash dot __ __ . __ __ . __ __ . __ _
 72
65
 73
6
 40
33.0
 49
12.0
 74
0
 49
-3.0
 74
0
 49
12.0
 74
0
 49
-2.9500000000000002
 74
0
 49
0.1
 74
0
 49
-2.9500000000000002
 74
0
  0
LTYPE
  5
4B
100
AcDbSymbolTableRecord
100
AcDbLinetypeTableRecord
  2
DOTX2
 70
0
  3
Dot (2x) .  .  .  .  .  .  .  .  .  .  .  .  .  .
 72
65
 73
2
 40
12.699999999999999
 49
0.1
 74
0
 49
-12.6
 74
0
  0
LTYPE
  5
4C
100
AcDbSymbolTableRecord
100
AcDbLinetypeTableRecord
  2
PHANTOMX2
 70
0
  3
Phantom (2x) ____________    ____    ____   _
 72
65
 73
6
 40
127.00000000000001
 49
63.5
 74
0
 49
-12.699999999999999
 74
0
 49
12.699999999999999
 74
0
 49
-12.699999999999999
 74
0
 49
12.699999999999999
 74
0
 49
-12.699999999999999
 74
0
  0
LTYPE
  5
4D
100
AcDbSymbolTableRecord
100
AcDbLinetypeTableRecord
  2
HIDDEN2
 70
0
  3
Hidden (.5x) _ _ _ _ _ _ _ _ _ _ _ _ _ _ _ _ _ 
 72
65
 73
2
 40
4.7624999999999993
 49
3.1749999999999998
 74
0
 49
-1.5874999999999999
 74
0
  0
LTYPE
  5
4E
100
AcDbSymbolTableRecord
100
AcDbLinetypeTableRecord
  2
DASHED
 70
0
  3
Dashed __ __ __ __ __ __ __ __ __ __ __ __ __ _
 72
65
 73
2
 40
19.049999999999997
 49
12.699999999999999
 74
0
 49
-6.3499999999999996
 74
0
  0
LTYPE
  5
4F
100
AcDbSymbolTableRecord
100
AcDbLinetypeTableRecord
  2
CENTER2
 70
0
  3
Center (.5x) ___ _ ___ _ ___ _ ___ _ ___ _ ___
 72
65
 73
4
 40
28.575000000000003
 49
19.050000000000001
 74
0
 49
-3.1749999999999998
 74
0
 49
3.1749999999999998
 74
0
 49
-3.1749999999999998
 74
0
  0
LTYPE
  5
50
100
AcDbSymbolTableRecord
100
AcDbLinetypeTableRecord
  2
DIVIDE
 70
0
  3
Divide ____ . . ____ . . ____ . . ____ . . ____
 72
65
 73
6
 40
31.750000000000004
 49
12.699999999999999
 74
0
 49
-6.2999999999999998
 74
0
 49
0.1
 74
0
 49
-6.25
 74
0
 49
0.1
 74
0
 49
-6.2999999999999998
 74
0
  0
LTYPE
  5
51
100
AcDbSymbolTableRecord
100
AcDbLinetypeTableRecord
  2
DOT2
 70
0
  3
Dot (.5x) ........................................
 72
65
 73
2
 40
3.1749999999999998
 49
0.1
 74
0
 49
-3.0749999999999997
 74
0
  0
LTYPE
  5
52
100
AcDbSymbolTableRecord
100
AcDbLinetypeTableRecord
  2
HIDDEN
 70
0
  3
Hidden __ __ __ __ __ __ __ __ __ __ __ __ __ __
 72
65
 73
2
 40
9.5249999999999986
 49
6.3499999999999996
 74
0
 49
-3.1749999999999998
 74
0
  0
LTYPE
  5
53
100
AcDbSymbolTableRecord
100
AcDbLinetypeTableRecord
  2
DASHED2
 70
0
  3
Dashed (.5x) _ _ _ _ _ _ _ _ _ _ _ _ _ _ _ _ _ 
 72
65
 73
2
 40
9.5249999999999986
 49
6.3499999999999996
 74
0
 49
-3.1749999999999998
 74
0
  0
LTYPE
  5
54
100
AcDbSymbolTableRecord
100
AcDbLinetypeTableRecord
  2
BORDERX2
 70
0
  3
Border (2x) ____  ____  .  ____  ____  .  ___
 72
65
 73
6
 40
88.899999999999977
 49
25.399999999999999
 74
0
 49
-12.699999999999999
 74
0
 49
25.399999999999999
 74
0
 49
-12.649999999999999
 74
0
 49
0.1
 74
0
 49
-12.649999999999999
 74
0
  0
LTYPE
  5
55
100
AcDbSymbolTableRecord
100
AcDbLinetypeTableRecord
  2
ACAD_ISO03W100
 70
0
  3
ISO dash space __    __    __    __    __    __
 72
65
 73
2
 40
30.0
 49
12.0
 74
0
 49
-18.0
 74
0
  0
LTYPE
  5
56
100
AcDbSymbolTableRecord
100
AcDbLinetypeTableRecord
  2
CENTER
 70
0
  3
Center ____ _ ____ _ ____ _ ____ _ ____ _ ____
 72
65
 73
4
 40
50.800000000000004
 49
31.75
 74
0
 49
-6.3499999999999996
 74
0
 49
6.3499999999999996
 74
0
 49
-6.3499999999999996
 74
0
  0
ENDTAB
  0
TABLE
  2
LAYER
  5
2
100
AcDbSymbolTable
 70
3
  0
LAYER
  5
10
100
AcDbSymbolTableRecord
100
AcDbLayerTableRecord
  2
0
 70
0
 62
7
420
16777215
  6
Continuous
370
-3
390
F
  0
LAYER
  5
57
100
AcDbSymbolTableRecord
100
AcDbLayerTableRecord
  2
draw
 70
0
 62
1
420
16711680
  6
Continuous
370
-3
390
F
  0
LAYER
  5
58
100
AcDbSymbolTableRecord
100
AcDbLayerTableRecord
  2
5
 70
0
 62
6
420
16711935
  6
Continuous
370
-3
390
F
  0
ENDTAB
  0
TABLE
  2
STYLE
  5
3
100
AcDbSymbolTable
 70
1
  0
STYLE
  5
59
100
AcDbSymbolTableRecord
100
AcDbTextStyleTableRecord
  2
Standard
 70
0
 40
0.0
 41
1.0
 50
0.0
 71
0
 42
2.5
  3

  4

1001
ACAD
1000
txt
1071
0
  0
ENDTAB
  0
TABLE
  2
VIEW
  5
6
100
AcDbSymbolTable
 70
0
  0
ENDTAB
  0
TABLE
  2
UCS
  5
7
100
AcDbSymbolTable
 70
0
  0
ENDTAB
  0
TABLE
  2
APPID
  5
9
100
AcDbSymbolTable
 70
1
  0
APPID
  5
12
100
AcDbSymbolTableRecord
100
AcDbRegAppTableRecord
  2
ACAD
 70
0
  0
APPID
  5
5A
100
AcDbSymbolTableRecord
100
AcDbRegAppTableRecord
  2
QCAD
 70
0
  0
ENDTAB
  0
TABLE
  2
DIMSTYLE
  5
A
100
AcDbSymbolTable
 70
1
100
AcDbDimStyleTable
 71
0
  0
DIMSTYLE
105
27
100
AcDbSymbolTableRecord
100
AcDbDimStyleTableRecord
  2
Standard
 41
2.5
 42
0.625
 43
3.75
 44
1.25
 70
0
 73
0
 74
0
 77
1
 78
8
140
2.5
141
2.5
143
0.03937007874016
147
0.625
171
3
172
1
271
2
272
2
274
3
278
44
283
0
284
8
340
59
  0
ENDTAB
  0
TABLE
  2
BLOCK_RECORD
  5
1
100
AcDbSymbolTable
 70
1
  0
BLOCK_RECORD
  5
1F
100
AcDbSymbolTableRecord
100
AcDbBlockTableRecord
  2
*Model_Space
340
22
  0
BLOCK_RECORD
  5
1B
100
AcDbSymbolTableRecord
100
AcDbBlockTableRecord
  2
*Paper_Space
340
1E
  0
BLOCK_RECORD
  5
23
100
AcDbSymbolTableRecord
100
AcDbBlockTableRecord
  2
*Paper_Space0
340
26
  0
BLOCK_RECORD
  5
5B
100
AcDbSymbolTableRecord
100
AcDbBlockTableRecord
  2
Mounter Spacing
340
0
  0
BLOCK_RECORD
  5
5C
100
AcDbSymbolTableRecord
100
AcDbBlockTableRecord
  2
Short Motor Arm
340
0
  0
BLOCK_RECORD
  5
5D
100
AcDbSymbolTableRecord
100
AcDbBlockTableRecord
  2
block 1
340
0
  0
BLOCK_RECORD
  5
5E
100
AcDbSymbolTableRecord
100
AcDbBlockTableRecord
  2
Canopy_Mounts
340
0
  0
BLOCK_RECORD
  5
5F
100
AcDbSymbolTableRecord
100
AcDbBlockTableRecord
  2
20x20
340
0
  0
BLOCK_RECORD
  5
60
100
AcDbSymbolTableRecord
100
AcDbBlockTableRecord
  2
PodFrame_Block
340
0
  0
BLOCK_RECORD
  5
61
100
AcDbSymbolTableRecord
100
AcDbBlockTableRecord
  2
Frame_Extremity
340
0
  0
BLOCK_RECORD
  5
62
100
AcDbSymbolTableRecord
100
AcDbBlockTableRecord
  2
Motor Arm
340
0
  0
BLOCK_RECORD
  5
63
100
AcDbSymbolTableRecord
100
AcDbBlockTableRecord
  2
FrameX
340
0
  0
BLOCK_RECORD
  5
64
100
AcDbSymbolTableRecord
100
AcDbBlockTableRecord
  2
Motor Mount
340
0
  0
BLOCK_RECORD
  5
65
100
AcDbSymbolTableRecord
100
AcDbBlockTableRecord
  2
Arm_Mounts
340
0
  0
BLOCK_RECORD
  5
66
100
AcDbSymbolTableRecord
100
AcDbBlockTableRecord
  2
Arm - incl mount
340
0
  0
ENDTAB
  0
ENDSEC
  0
SECTION
  2
BLOCKS
  0
BLOCK
  5
20
100
AcDbEntity
  8
0
100
AcDbBlockBegin
  2
*Model_Space
 70
0
 10
0.0
 20
0.0
 30
0.0
  3
*Model_Space
  1

  0
ENDBLK
  5
21
100
AcDbEntity
  8
0
100
AcDbBlockEnd
  0
BLOCK
  5
1C
100
AcDbEntity
 67
1
  8
0
100
AcDbBlockBegin
  2
*Paper_Space
 70
0
 10
0.0
 20
0.0
 30
0.0
  3
*Paper_Space
  1

  0
ENDBLK
  5
1D
100
AcDbEntity
 67
1
  8
0
100
AcDbBlockEnd
  0
BLOCK
  5
24
100
AcDbEntity
  8
0
100
AcDbBlockBegin
  2
*Paper_Space0
 70
0
 10
0.0
 20
0.0
 30
0.0
  3
*Paper_Space0
  1

  0
ENDBLK
  5
25
100
AcDbEntity
  8
0
100
AcDbBlockEnd
  0
BLOCK
  5
67
100
AcDbEntity
  8
0
100
AcDbBlockBegin
  2
Mounter Spacing
 70
0
 10
0.0
 20
0.0
 30
0.0
  3
Mounter Spacing
  1

  0
CIRCLE
  5
68
100
AcDbEntity
  8
0
 62
256
370
-1
 48
1.0
  6
BYLAYER
100
AcDbCircle
 10
0.0
 20
0.0
 30
0.0
 40
4.75
  0
INSERT
  5
69
100
AcDbEntity
  8
0
 62
256
370
-1
 48
1.0
  6
BYLAYER
100
AcDbBlockReference
  2
block 1
 10
-9.0
 20
0.0
 30
0.0
 50
90.0
  0
INSERT
  5
6A
100
AcDbEntity
  8
0
 62
256
370
-1
 48
1.0
  6
BYLAYER
100
AcDbBlockReference
  2
block 1
 10
0.0
 20
-9.0
 30
0.0
 50
180.0
  0
INSERT
  5
6B
100
AcDbEntity
  8
0
 62
256
370
-1
 48
1.0
  6
BYLAYER
100
AcDbBlockReference
  2
block 1
 10
9.0
 20
0.0
 30
0.0
 50
270.0
  0
INSERT
  5
6C
100
AcDbEntity
  8
0
 62
256
370
-1
 48
1.0
  6
BYLAYER
100
AcDbBlockReference
  2
block 1
 10
0.0
 20
9.0
 30
0.0
  0
ENDBLK
  5
6D
100
AcDbEntity
  8
0
100
AcDbBlockEnd
  0
BLOCK
  5
6E
100
AcDbEntity
  8
0
100
AcDbBlockBegin
  2
Short Motor Arm
 70
0
 10
0.0
 20
0.0
 30
0.0
  3
Short Motor Arm
  1

  0
LINE
  5
6F
100
AcDbEntity
  8
0
 62
256
370
-1
 48
1.0
  6
BYLAYER
100
AcDbLine
 10
-2.3074568309097003
 20
16.449592454640651
 30
0.0
 11
-41.198329796169787
 21
55.340465419900788
 31
0.0
  0
LINE
  5
70
100
AcDbEntity
  8
0
 62
256
370
-1
 48
1.0
  6
BYLAYER
100
AcDbLine
 10
-16.449592454640651
 20
2.3074568309097003
 30
0.0
 11
-55.340465419900767
 21
41.198329796169816
 31
0.0
  0
ARC
  5
71
100
AcDbEntity
  8
0
 62
256
370
-1
 48
1.0
  6
BYLAYER
100
AcDbCircle
 10
0.0
 20
0.0
 30
0.0
 40
16.610642641098583
100
AcDbArc
 50
172.01497004511492
 51
97.985029954885078
  0
INSERT
  5
72
100
AcDbEntity
  8
0
 62
256
370
-1
 48
1.0
  6
BYLAYER
100
AcDbBlockReference
  2
Motor Mount
 10
0.0
 20
0.0
 30
0.0
 50
-90.0
  0
ENDBLK
  5
73
100
AcDbEntity
  8
0
100
AcDbBlockEnd
  0
BLOCK
  5
74
100
AcDbEntity
  8
0
100
AcDbBlockBegin
  2
block 1
 70
0
 10
0.0
 20
0.0
 30
0.0
  3
block 1
  1

  0
LINE
  5
75
100
AcDbEntity
  8
0
 62
256
370
-1
 48
1.0
  6
BYLAYER
100
AcDbLine
 10
-1.4990611814667005
 20
0.9616032230690692
 30
0.0
 11
-1.4990611814667005
 21
-1.0383967769309308
 31
0.0
  0
LINE
  5
76
100
AcDbEntity
  8
0
 62
256
370
-1
 48
1.0
  6
BYLAYER
100
AcDbLine
 10
1.5009388185332995
 20
0.9616032230690692
 30
0.0
 11
1.5009388185332995
 21
-1.0383967769309308
 31
0.0
  0
ARC
  5
77
100
AcDbEntity
  8
0
 62
256
370
-1
 48
1.0
  6
BYLAYER
100
AcDbCircle
 10
0.0009388185332853
 20
-1.0383967769309379
 30
0.0
 40
1.5000000000000142
100
AcDbArc
 50
180.0
 51
0.0
  0
ARC
  5
78
100
AcDbEntity
  8
0
 62
256
370
-1
 48
1.0
  6
BYLAYER
100
AcDbCircle
 10
0.0009388185332995
 20
0.9616032230690692
 30
0.0
 40
1.5
100
AcDbArc
 50
0.0
 51
180.0
  0
ENDBLK
  5
79
100
AcDbEntity
  8
0
100
AcDbBlockEnd
  0
BLOCK
  5
7A
100
AcDbEntity
  8
0
100
AcDbBlockBegin
  2
Canopy_Mounts
 70
0
 10
0.0
 20
0.0
 30
0.0
  3
Canopy_Mounts
  1

  0
CIRCLE
  5
7B
100
AcDbEntity
  8
0
 62
256
370
-1
 48
1.0
  6
BYLAYER
100
AcDbCircle
 10
16.5
 20
32.75
 30
0.0
 40
1.55
  0
CIRCLE
  5
7C
100
AcDbEntity
  8
0
 62
256
370
-1
 48
1.0
  6
BYLAYER
100
AcDbCircle
 10
-16.5
 20
32.75
 30
0.0
 40
1.55
  0
CIRCLE
  5
7D
100
AcDbEntity
  8
0
 62
256
370
-1
 48
1.0
  6
BYLAYER
100
AcDbCircle
 10
-15.25
 20
-32.25
 30
0.0
 40
1.55
  0
CIRCLE
  5
7E
100
AcDbEntity
  8
0
 62
256
370
-1
 48
1.0
  6
BYLAYER
100
AcDbCircle
 10
15.25
 20
-32.25
 30
0.0
 40
1.55
  0
ENDBLK
  5
7F
100
AcDbEntity
  8
0
100
AcDbBlockEnd
  0
BLOCK
  5
80
100
AcDbEntity
  8
0
100
AcDbBlockBegin
  2
20x20
 70
0
 10
0.0
 20
0.0
 30
0.0
  3
20x20
  1

  0
CIRCLE
  5
81
100
AcDbEntity
  8
draw
 62
256
370
-1
 48
1.0
  6
BYLAYER
100
AcDbCircle
 10
-9.9999999999995453
 20
9.9999999999998863
 30
0.0
 40
1.5
  0
CIRCLE
  5
82
100
AcDbEntity
  8
draw
 62
256
370
-1
 48
1.0
  6
BYLAYER
100
AcDbCircle
 10
9.9999999999995453
 20
9.9999999999998863
 30
0.0
 40
1.5
  0
CIRCLE
  5
83
100
AcDbEntity
  8
draw
 62
256
370
-1
 48
1.0
  6
BYLAYER
100
AcDbCircle
 10
9.9999999999995453
 20
-10.0
 30
0.0
 40
1.5
  0
CIRCLE
  5
84
100
AcDbEntity
  8
draw
 62
256
370
-1
 48
1.0
  6
BYLAYER
100
AcDbCircle
 10
-9.9999999999995453
 20
-10.0
 30
0.0
 40
1.5
  0
ENDBLK
  5
85
100
AcDbEntity
  8
0
100
AcDbBlockEnd
  0
BLOCK
  5
86
100
AcDbEntity
  8
0
100
AcDbBlockBegin
  2
PodFrame_Block
 70
0
 10
0.0
 20
0.0
 30
0.0
  3
PodFrame_Block
  1

  0
CIRCLE
  5
87
100
AcDbEntity
  8
0
 62
256
370
-1
 48
1.0
  6
BYLAYER
100
AcDbCircle
 10
16.5
 20
32.75
 30
0.0
 40
1.55
  0
CIRCLE
  5
88
100
AcDbEntity
  8
0
 62
256
370
-1
 48
1.0
  6
BYLAYER
100
AcDbCircle
 10
-16.5
 20
32.75
 30
0.0
 40
1.55
  0
CIRCLE
  5
89
100
AcDbEntity
  8
0
 62
256
370
-1
 48
1.0
  6
BYLAYER
100
AcDbCircle
 10
-15.25
 20
-32.25
 30
0.0
 40
1.55
  0
CIRCLE
  5
8A
100
AcDbEntity
  8
0
 62
256
370
-1
 48
1.0
  6
BYLAYER
100
AcDbCircle
 10
15.25
 20
-32.25
 30
0.0
 40
1.55
  0
LINE
  5
8B
100
AcDbEntity
  8
0
 62
256
370
-1
 48
1.0
  6
BYLAYER
100
AcDbLine
 10
-8.0
 20
35.75
 30
0.0
 11
8.0
 21
35.75
 31
0.0
  0
LINE
  5
8C
100
AcDbEntity
  8
0
 62
256
370
-1
 48
1.0
  6
BYLAYER
100
AcDbLine
 10
-10.5
 20
-44.75
 30
0.0
 11
10.5
 21
-44.75
 31
0.0
  0
ARC
  5
8D
100
AcDbEntity
  8
0
 62
256
370
-1
 48
1.0
  6
BYLAYER
100
AcDbCircle
 10
7.690531
 20
52.176447554269835
 30
0.0
 40
16.429362451489261
100
AcDbArc
 50
271.07930780850694
 51
290.55172313194657
  0
ARC
  5
8E
100
AcDbEntity
  8
0
 62
256
370
-1
 48
1.0
  6
BYLAYER
100
AcDbCircle
 10
-7.6905306004993683
 20
52.176447554269856
 30
0.0
 40
16.429362451489261
100
AcDbArc
 50
249.44827686805343
 51
268.92069219149306
  0
ARC
  5
8F
100
AcDbEntity
  8
0
 62
256
370
-1
 48
1.0
  6
BYLAYER
100
AcDbCircle
 10
-26.926381257306378
 20
43.644926524798905
 30
0.0
 40
8.7659912315772033
100
AcDbArc
 50
231.35261945518846
 51
307.43327176020904
  0
ARC
  5
90
100
AcDbEntity
  8
0
 62
256
370
-1
 48
1.0
  6
BYLAYER
100
AcDbCircle
 10
26.926380999999999
 20
43.644926524798883
 30
0.0
 40
8.7659912315772033
100
AcDbArc
 50
232.56672823979096
 51
308.64738054481154
  0
ARC
  5
91
100
AcDbEntity
  8
0
 62
256
370
-1
 48
1.0
  6
BYLAYER
100
AcDbCircle
 10
17.376598000000001
 20
25.376150031424721
 30
0.0
 40
12.070322570642343
100
AcDbArc
 50
69.528515690490892
 51
108.94368738764936
  0
ARC
  5
92
100
AcDbEntity
  8
0
 62
256
370
-1
 48
1.0
  6
BYLAYER
100
AcDbCircle
 10
-17.376598306942768
 20
25.376150031424743
 30
0.0
 40
12.070322570642343
100
AcDbArc
 50
71.056312612350652
 51
110.47148430950909
  0
ARC
  5
93
100
AcDbEntity
  8
0
 62
256
370
-1
 48
1.0
  6
BYLAYER
100
AcDbCircle
 10
26.09701479508437
 20
-47.298177259418509
 30
0.0
 40
12.841981079302039
100
AcDbArc
 50
72.43457593251145
 51
160.4920093045252
  0
ARC
  5
94
100
AcDbEntity
  8
0
 62
256
370
-1
 48
1.0
  6
BYLAYER
100
AcDbCircle
 10
-26.097014928558231
 20
-47.298177010671282
 30
0.0
 40
12.841980801871111
100
AcDbArc
 50
19.507990462670993
 51
107.56542383468475
  0
ARC
  5
95
100
AcDbEntity
  8
0
 62
256
370
-1
 48
1.0
  6
BYLAYER
100
AcDbCircle
 10
-10.369097
 20
-40.113194
 30
0.0
 40
4.6386530486676998
100
AcDbArc
 50
218.64098284349532
 51
268.38289802675649
  0
ARC
  5
96
100
AcDbEntity
  8
0
 62
256
370
-1
 48
1.0
  6
BYLAYER
100
AcDbCircle
 10
10.369097179229382
 20
-40.113194358458792
 30
0.0
 40
4.6386530486676998
100
AcDbArc
 50
271.61710197324351
 51
321.35901715650465
  0
LINE
  5
97
100
AcDbEntity
  8
0
 62
256
370
-1
 48
1.0
  6
BYLAYER
100
AcDbLine
 10
24.0
 20
7.0
 30
0.0
 11
24.0
 21
7.0
 31
0.0
  0
LINE
  5
98
100
AcDbEntity
  8
0
 62
256
370
-1
 48
1.0
  6
BYLAYER
100
AcDbLine
 10
-24.0
 20
-9.0
 30
0.0
 11
-24.0
 21
-9.0
 31
0.0
  0
LINE
  5
99
100
AcDbEntity
  8
0
 62
256
370
-1
 48
1.0
  6
BYLAYER
100
AcDbLine
 10
-30.0
 20
9.0
 30
0.0
 11
-30.0
 21
9.0
 31
0.0
  0
CIRCLE
  5
9A
100
AcDbEntity
  8
0
 62
256
370
-1
 48
1.0
  6
BYLAYER
100
AcDbCircle
 10
15.25
 20
-15.25
 30
0.0
 40
1.45
  0
CIRCLE
  5
9B
100
AcDbEntity
  8
0
 62
256
370
-1
 48
1.0
  6
BYLAYER
100
AcDbCircle
 10
32.30791149271181
 20
-27.498577693219431
 30
0.0
 40
1.45
  0
CIRCLE
  5
9C
100
AcDbEntity
  8
0
 62
256
370
-1
 48
1.0
  6
BYLAYER
100
AcDbCircle
 10
0.0
 20
0.0
 30
0.0
 40
10.0
  0
CIRCLE
  5
9D
100
AcDbEntity
  8
0
 62
256
370
-1
 48
1.0
  6
BYLAYER
100
AcDbCircle
 10
15.25
 20
15.25
 30
0.0
 40
1.45
  0
CIRCLE
  5
9E
100
AcDbEntity
  8
0
 62
256
370
-1
 48
1.0
  6
BYLAYER
100
AcDbCircle
 10
32.30791149271181
 20
27.498577693219318
 30
0.0
 40
1.45
  0
CIRCLE
  5
9F
100
AcDbEntity
  8
0
 62
256
370
-1
 48
1.0
  6
BYLAYER
100
AcDbCircle
 10
-15.25
 20
-15.25
 30
0.0
 40
1.45
  0
CIRCLE
  5
A0
100
AcDbEntity
  8
0
 62
256
370
-1
 48
1.0
  6
BYLAYER
100
AcDbCircle
 10
-32.307911492711128
 20
-27.498577693219431
 30
0.0
 40
1.45
  0
CIRCLE
  5
A1
100
AcDbEntity
  8
0
 62
256
370
-1
 48
1.0
  6
BYLAYER
100
AcDbCircle
 10
-15.25
 20
15.25
 30
0.0
 40
1.45
  0
CIRCLE
  5
A2
100
AcDbEntity
  8
0
 62
256
370
-1
 48
1.0
  6
BYLAYER
100
AcDbCircle
 10
-32.307911492711128
 20
27.498577693219318
 30
0.0
 40
1.45
  0
LINE
  5
A3
100
AcDbEntity
  8
0
 62
256
370
-1
 48
1.0
  6
BYLAYER
100
AcDbLine
 10
41.149951774095825
 20
24.614427270237456
 30
0.0
 11
38.721639656465868
 21
22.87075720553571
 31
0.0
  0
ARC
  5
A4
100
AcDbEntity
  8
0
 62
256
370
-1
 48
1.0
  6
BYLAYER
100
AcDbCircle
 10
67.884919877620348
 20
-17.743317776102352
 30
0.0
 40
49.999999998716994
100
AcDbArc
 50
125.68055718659302
 51
130.62656176343299
  0
LINE
  5
A5
100
AcDbEntity
  8
0
 62
256
370
-1
 48
1.0
  6
BYLAYER
100
AcDbLine
 10
35.192061915694012
 20
36.340617974602878
 30
0.0
 11
41.60798356452392
 21
27.405521478421747
 31
0.0
  0
ARC
  5
A6
100
AcDbEntity
  8
0
 62
256
370
-1
 48
1.0
  6
BYLAYER
100
AcDbCircle
 10
39.983420565217379
 20
26.238990269543706
 30
0.0
 40
2.0000000000005835
100
AcDbArc
 50
305.68055718666335
 51
35.680557186649054
  0
ARC
  5
A7
100
AcDbEntity
  8
0
 62
256
370
-1
 48
1.0
  6
BYLAYER
100
AcDbCircle
 10
33.567498916387997
 20
35.174086765724383
 30
0.0
 40
2.0000000000004183
100
AcDbArc
 50
35.680557186668409
 51
125.68055718665674
  0
LINE
  5
A8
100
AcDbEntity
  8
0
 62
256
370
-1
 48
1.0
  6
BYLAYER
100
AcDbLine
 10
32.400967707509835
 20
-36.798649765030746
 30
0.0
 11
29.972655589883971
 21
-35.054979700331387
 31
0.0
  0
LINE
  5
A9
100
AcDbEntity
  8
0
 62
256
370
-1
 48
1.0
  6
BYLAYER
100
AcDbLine
 10
41.60798356452392
 20
-27.405521478421633
 30
0.0
 11
35.192061915694012
 21
-36.340617974602878
 31
0.0
  0
ARC
  5
AA
100
AcDbEntity
  8
0
 62
256
370
-1
 48
1.0
  6
BYLAYER
100
AcDbCircle
 10
33.567498916387926
 20
-35.174086765724326
 30
0.0
 40
2.0000000000005107
100
AcDbArc
 50
234.31944281334782
 51
324.31944281333148
  0
ARC
  5
AB
100
AcDbEntity
  8
0
 62
256
370
-1
 48
1.0
  6
BYLAYER
100
AcDbCircle
 10
-4321.2062739833691
 20
-4975.5251265934776
 30
0.0
 40
6582.2540524014885
100
AcDbArc
 50
49.265521862284288
 51
49.373438236492255
  0
ARC
  5
AC
100
AcDbEntity
  8
0
 62
256
370
-1
 48
1.0
  6
BYLAYER
100
AcDbCircle
 10
-4321.2062737556535
 20
4975.5251263295031
 30
0.0
 40
6582.2540520528682
100
AcDbArc
 50
310.62656176349924
 51
310.73447813771315
  0
ARC
  5
AD
100
AcDbEntity
  8
0
 62
256
370
-1
 48
1.0
  6
BYLAYER
100
AcDbCircle
 10
-36.36765446501839
 20
-0.0000000000013061
 30
0.0
 40
16.000000000000636
100
AcDbArc
 50
310.73447813770923
 51
49.265521862290726
  0
LINE
  5
AE
100
AcDbEntity
  8
0
 62
256
370
-1
 48
1.0
  6
BYLAYER
100
AcDbLine
 10
-41.149951774095143
 20
-24.614427270237456
 30
0.0
 11
-38.721639656467005
 21
-22.870757205536734
 31
0.0
  0
ARC
  5
AF
100
AcDbEntity
  8
0
 62
256
370
-1
 48
1.0
  6
BYLAYER
100
AcDbCircle
 10
-67.884919878372258
 20
17.743317777039366
 30
0.0
 40
49.999999999916845
100
AcDbArc
 50
305.68055718666488
 51
310.62656176350646
  0
LINE
  5
B0
100
AcDbEntity
  8
0
 62
256
370
-1
 48
1.0
  6
BYLAYER
100
AcDbLine
 10
-35.192061915693102
 20
-36.340617974602878
 30
0.0
 11
-41.607983564523011
 21
-27.405521478421633
 31
0.0
  0
ARC
  5
B1
100
AcDbEntity
  8
0
 62
256
370
-1
 48
1.0
  6
BYLAYER
100
AcDbCircle
 10
-39.983420565216484
 20
-26.23899026954356
 30
0.0
 40
2.0000000000005902
100
AcDbArc
 50
125.68055718667075
 51
215.68055718665002
  0
LINE
  5
B2
100
AcDbEntity
  8
0
 62
256
370
-1
 48
1.0
  6
BYLAYER
100
AcDbLine
 10
-29.972655589884198
 20
-35.054979700331842
 30
0.0
 11
-32.400967707510063
 21
-36.798649765030746
 31
0.0
  0
ARC
  5
B3
100
AcDbEntity
  8
0
 62
256
370
-1
 48
1.0
  6
BYLAYER
100
AcDbCircle
 10
-33.567498916387592
 20
-35.174086765724944
 30
0.0
 40
1.9999999999996838
100
AcDbArc
 50
215.68055718666378
 51
305.68055718664954
  0
LINE
  5
B4
100
AcDbEntity
  8
0
 62
256
370
-1
 48
1.0
  6
BYLAYER
100
AcDbLine
 10
-41.607983564523011
 20
27.405521478421861
 30
0.0
 11
-35.192061915693102
 21
36.340617974602878
 31
0.0
  0
ARC
  5
B5
100
AcDbEntity
  8
0
 62
256
370
-1
 48
1.0
  6
BYLAYER
100
AcDbCircle
 10
-33.567498916387265
 20
35.174086765724468
 30
0.0
 40
2.0000000000002265
100
AcDbArc
 50
54.319442813341098
 51
144.3194428133306
  0
LINE
  5
B6
100
AcDbEntity
  8
0
 62
256
370
-1
 48
1.0
  6
BYLAYER
100
AcDbLine
 10
-38.721639656472007
 20
22.870757205540713
 30
0.0
 11
-41.149951774095143
 21
24.614427270237456
 31
0.0
  0
ARC
  5
B7
100
AcDbEntity
  8
0
 62
256
370
-1
 48
1.0
  6
BYLAYER
100
AcDbCircle
 10
-39.983420565216875
 20
26.238990269543592
 30
0.0
 40
2.0000000000003855
100
AcDbArc
 50
144.31944281333887
 51
234.3194428133389
  0
ARC
  5
B8
100
AcDbEntity
  8
0
 62
256
370
-1
 48
1.0
  6
BYLAYER
100
AcDbCircle
 10
-67.884919878599959
 20
-17.743317777308036
 30
0.0
 40
50.000000000268201
100
AcDbArc
 50
49.373438236468076
 51
54.319442813310069
  0
LINE
  5
B9
100
AcDbEntity
  8
0
 62
256
370
-1
 48
1.0
  6
BYLAYER
100
AcDbLine
 10
38.721639656467914
 20
-22.870757205536734
 30
0.0
 11
41.149951774095825
 21
-24.614427270237684
 31
0.0
  0
ARC
  5
BA
100
AcDbEntity
  8
0
 62
256
370
-1
 48
1.0
  6
BYLAYER
100
AcDbCircle
 10
39.983420565217372
 20
-26.238990269543791
 30
0.0
 40
2.0000000000004707
100
AcDbArc
 50
324.31944281335569
 51
54.319442813334113
  0
ARC
  5
BB
100
AcDbEntity
  8
0
 62
256
370
-1
 48
1.0
  6
BYLAYER
100
AcDbCircle
 10
4321.2062737226806
 20
4975.525126290805
 30
0.0
 40
6582.2540520020275
100
AcDbArc
 50
229.26552186228452
 51
229.37343823649917
  0
ARC
  5
BC
100
AcDbEntity
  8
0
 62
256
370
-1
 48
1.0
  6
BYLAYER
100
AcDbCircle
 10
67.884919878448457
 20
17.743317777141975
 30
0.0
 40
50.000000000044103
100
AcDbArc
 50
229.37343823649437
 51
234.31944281333367
  0
ARC
  5
BD
100
AcDbEntity
  8
0
 62
256
370
-1
 48
1.0
  6
BYLAYER
100
AcDbCircle
 10
4321.2062739250423
 20
-4975.5251265236802
 30
0.0
 40
6582.2540523105372
100
AcDbArc
 50
130.62656176351689
 51
130.73447813772748
  0
ARC
  5
BE
100
AcDbEntity
  8
0
 62
256
370
-1
 48
1.0
  6
BYLAYER
100
AcDbCircle
 10
36.367654465016848
 20
-0.0000000000013301
 30
0.0
 40
15.999999999998979
100
AcDbArc
 50
130.73447813771784
 51
229.2655218622875
  0
LWPOLYLINE
  5
BF
100
AcDbEntity
  8
0
 62
256
370
-1
 48
1.0
  6
BYLAYER
100
AcDbPolyline
 90
4
 70
1
 10
20.555775268044954
 20
-20.290957131835853
 30
0.0
 42
-0.9999999999999996
 10
21.722306476922995
 20
-18.666394132529831
 30
0.0
 10
27.002136224666856
 20
-22.457620561383578
 30
0.0
 42
-1.0
 10
25.835605015788815
 20
-24.0821835606896
 30
0.0
  0
LWPOLYLINE
  5
C0
100
AcDbEntity
  8
0
 62
256
370
-1
 48
1.0
  6
BYLAYER
100
AcDbPolyline
 90
4
 70
1
 10
-20.555775268044044
 20
-20.290957131835853
 30
0.0
 42
0.9999999999999996
 10
-21.722306476922085
 20
-18.666394132529831
 30
0.0
 10
-27.002136224667083
 20
-22.457620561383578
 30
0.0
 42
1.0
 10
-25.835605015789042
 20
-24.0821835606896
 30
0.0
  0
LWPOLYLINE
  5
C1
100
AcDbEntity
  8
0
 62
256
370
-1
 48
1.0
  6
BYLAYER
100
AcDbPolyline
 90
4
 70
1
 10
20.555775268044954
 20
20.290957131835739
 30
0.0
 42
0.9999999999999996
 10
21.722306476922995
 20
18.666394132529717
 30
0.0
 10
27.002136224666856
 20
22.457620561383806
 30
0.0
 42
1.0
 10
25.835605015788815
 20
24.0821835606896
 30
0.0
  0
LWPOLYLINE
  5
C2
100
AcDbEntity
  8
0
 62
256
370
-1
 48
1.0
  6
BYLAYER
100
AcDbPolyline
 90
4
 70
1
 10
-20.555775268044044
 20
20.290957131835739
 30
0.0
 42
-0.9999999999999996
 10
-21.722306476922085
 20
18.666394132529717
 30
0.0
 10
-27.002136224667083
 20
22.457620561383806
 30
0.0
 42
-1.0
 10
-25.835605015789042
 20
24.0821835606896
 30
0.0
  0
ENDBLK
  5
C3
100
AcDbEntity
  8
0
100
AcDbBlockEnd
  0
BLOCK
  5
C4
100
AcDbEntity
  8
0
100
AcDbBlockBegin
  2
Frame_Extremity
 70
0
 10
0.0
 20
0.0
 30
0.0
  3
Frame_Extremity
  1

  0
LINE
  5
C5
100
AcDbEntity
  8
0
 62
256
370
-1
 48
1.0
  6
BYLAYER
100
AcDbLine
 10
-8.0
 20
35.75
 30
0.0
 11
8.0
 21
35.75
 31
0.0
  0
LINE
  5
C6
100
AcDbEntity
  8
0
 62
256
370
-1
 48
1.0
  6
BYLAYER
100
AcDbLine
 10
-10.5
 20
-44.75
 30
0.0
 11
10.5
 21
-44.75
 31
0.0
  0
ARC
  5
C7
100
AcDbEntity
  8
0
 62
256
370
-1
 48
1.0
  6
BYLAYER
100
AcDbCircle
 10
7.690531
 20
52.176447554269835
 30
0.0
 40
16.429362451489261
100
AcDbArc
 50
271.07930780850694
 51
290.55172313194657
  0
ARC
  5
C8
100
AcDbEntity
  8
0
 62
256
370
-1
 48
1.0
  6
BYLAYER
100
AcDbCircle
 10
-7.6905306004993683
 20
52.176447554269856
 30
0.0
 40
16.429362451489261
100
AcDbArc
 50
249.44827686805343
 51
268.92069219149306
  0
ARC
  5
C9
100
AcDbEntity
  8
0
 62
256
370
-1
 48
1.0
  6
BYLAYER
100
AcDbCircle
 10
-26.926381257306378
 20
43.644926524798905
 30
0.0
 40
8.7659912315772033
100
AcDbArc
 50
231.35261945518846
 51
307.43327176020904
  0
ARC
  5
CA
100
AcDbEntity
  8
0
 62
256
370
-1
 48
1.0
  6
BYLAYER
100
AcDbCircle
 10
26.926380999999999
 20
43.644926524798883
 30
0.0
 40
8.7659912315772033
100
AcDbArc
 50
232.56672823979096
 51
308.64738054481154
  0
ARC
  5
CB
100
AcDbEntity
  8
0
 62
256
370
-1
 48
1.0
  6
BYLAYER
100
AcDbCircle
 10
17.376598000000001
 20
25.376150031424721
 30
0.0
 40
12.070322570642343
100
AcDbArc
 50
69.528515690490892
 51
108.94368738764936
  0
ARC
  5
CC
100
AcDbEntity
  8
0
 62
256
370
-1
 48
1.0
  6
BYLAYER
100
AcDbCircle
 10
-17.376598306942768
 20
25.376150031424743
 30
0.0
 40
12.070322570642343
100
AcDbArc
 50
71.056312612350652
 51
110.47148430950909
  0
ARC
  5
CD
100
AcDbEntity
  8
0
 62
256
370
-1
 48
1.0
  6
BYLAYER
100
AcDbCircle
 10
26.09701479508437
 20
-47.298177259418509
 30
0.0
 40
12.841981079302039
100
AcDbArc
 50
72.43457593251145
 51
160.4920093045252
  0
ARC
  5
CE
100
AcDbEntity
  8
0
 62
256
370
-1
 48
1.0
  6
BYLAYER
100
AcDbCircle
 10
-26.097014928558231
 20
-47.298177010671282
 30
0.0
 40
12.841980801871111
100
AcDbArc
 50
19.507990462670993
 51
107.56542383468475
  0
ARC
  5
CF
100
AcDbEntity
  8
0
 62
256
370
-1
 48
1.0
  6
BYLAYER
100
AcDbCircle
 10
-10.369097
 20
-40.113194
 30
0.0
 40
4.6386530486676998
100
AcDbArc
 50
218.64098284349532
 51
268.38289802675649
  0
ARC
  5
D0
100
AcDbEntity
  8
0
 62
256
370
-1
 48
1.0
  6
BYLAYER
100
AcDbCircle
 10
10.369097179229382
 20
-40.113194358458792
 30
0.0
 40
4.6386530486676998
100
AcDbArc
 50
271.61710197324351
 51
321.35901715650465
  0
LINE
  5
D1
100
AcDbEntity
  8
0
 62
256
370
-1
 48
1.0
  6
BYLAYER
100
AcDbLine
 10
24.0
 20
7.0
 30
0.0
 11
24.0
 21
7.0
 31
0.0
  0
LINE
  5
D2
100
AcDbEntity
  8
0
 62
256
370
-1
 48
1.0
  6
BYLAYER
100
AcDbLine
 10
-24.0
 20
-9.0
 30
0.0
 11
-24.0
 21
-9.0
 31
0.0
  0
LINE
  5
D3
100
AcDbEntity
  8
0
 62
256
370
-1
 48
1.0
  6
BYLAYER
100
AcDbLine
 10
-30.0
 20
9.0
 30
0.0
 11
-30.0
 21
9.0
 31
0.0
  0
CIRCLE
  5
D4
100
AcDbEntity
  8
0
 62
256
370
-1
 48
1.0
  6
BYLAYER
100
AcDbCircle
 10
0.0
 20
0.0
 30
0.0
 40
10.0
  0
LINE
  5
D5
100
AcDbEntity
  8
0
 62
256
370
-1
 48
1.0
  6
BYLAYER
100
AcDbLine
 10
41.149951774095825
 20
24.614427270237456
 30
0.0
 11
38.721639656465868
 21
22.87075720553571
 31
0.0
  0
ARC
  5
D6
100
AcDbEntity
  8
0
 62
256
370
-1
 48
1.0
  6
BYLAYER
100
AcDbCircle
 10
67.884919877620348
 20
-17.743317776102352
 30
0.0
 40
49.999999998716994
100
AcDbArc
 50
125.68055718659302
 51
130.62656176343299
  0
LINE
  5
D7
100
AcDbEntity
  8
0
 62
256
370
-1
 48
1.0
  6
BYLAYER
100
AcDbLine
 10
35.192061915694012
 20
36.340617974602878
 30
0.0
 11
41.60798356452392
 21
27.405521478421747
 31
0.0
  0
ARC
  5
D8
100
AcDbEntity
  8
0
 62
256
370
-1
 48
1.0
  6
BYLAYER
100
AcDbCircle
 10
39.983420565217379
 20
26.238990269543706
 30
0.0
 40
2.0000000000005835
100
AcDbArc
 50
305.68055718666335
 51
35.680557186649054
  0
ARC
  5
D9
100
AcDbEntity
  8
0
 62
256
370
-1
 48
1.0
  6
BYLAYER
100
AcDbCircle
 10
33.567498916387997
 20
35.174086765724383
 30
0.0
 40
2.0000000000004183
100
AcDbArc
 50
35.680557186668409
 51
125.68055718665674
  0
LINE
  5
DA
100
AcDbEntity
  8
0
 62
256
370
-1
 48
1.0
  6
BYLAYER
100
AcDbLine
 10
32.400967707509835
 20
-36.798649765030746
 30
0.0
 11
29.972655589883971
 21
-35.054979700331387
 31
0.0
  0
LINE
  5
DB
100
AcDbEntity
  8
0
 62
256
370
-1
 48
1.0
  6
BYLAYER
100
AcDbLine
 10
41.60798356452392
 20
-27.405521478421633
 30
0.0
 11
35.192061915694012
 21
-36.340617974602878
 31
0.0
  0
ARC
  5
DC
100
AcDbEntity
  8
0
 62
256
370
-1
 48
1.0
  6
BYLAYER
100
AcDbCircle
 10
33.567498916387926
 20
-35.174086765724326
 30
0.0
 40
2.0000000000005107
100
AcDbArc
 50
234.31944281334782
 51
324.31944281333148
  0
ARC
  5
DD
100
AcDbEntity
  8
0
 62
256
370
-1
 48
1.0
  6
BYLAYER
100
AcDbCircle
 10
-4321.2062739833691
 20
-4975.5251265934776
 30
0.0
 40
6582.2540524014885
100
AcDbArc
 50
49.265521862284288
 51
49.373438236492255
  0
ARC
  5
DE
100
AcDbEntity
  8
0
 62
256
370
-1
 48
1.0
  6
BYLAYER
100
AcDbCircle
 10
-4321.2062737556535
 20
4975.5251263295031
 30
0.0
 40
6582.2540520528682
100
AcDbArc
 50
310.62656176349924
 51
310.73447813771315
  0
ARC
  5
DF
100
AcDbEntity
  8
0
 62
256
370
-1
 48
1.0
  6
BYLAYER
100
AcDbCircle
 10
-36.36765446501839
 20
-0.0000000000013061
 30
0.0
 40
16.000000000000636
100
AcDbArc
 50
310.73447813770923
 51
49.265521862290726
  0
LINE
  5
E0
100
AcDbEntity
  8
0
 62
256
370
-1
 48
1.0
  6
BYLAYER
100
AcDbLine
 10
-41.149951774095143
 20
-24.614427270237456
 30
0.0
 11
-38.721639656467005
 21
-22.870757205536734
 31
0.0
  0
ARC
  5
E1
100
AcDbEntity
  8
0
 62
256
370
-1
 48
1.0
  6
BYLAYER
100
AcDbCircle
 10
-67.884919878372258
 20
17.743317777039366
 30
0.0
 40
49.999999999916845
100
AcDbArc
 50
305.68055718666488
 51
310.62656176350646
  0
LINE
  5
E2
100
AcDbEntity
  8
0
 62
256
370
-1
 48
1.0
  6
BYLAYER
100
AcDbLine
 10
-35.192061915693102
 20
-36.340617974602878
 30
0.0
 11
-41.607983564523011
 21
-27.405521478421633
 31
0.0
  0
ARC
  5
E3
100
AcDbEntity
  8
0
 62
256
370
-1
 48
1.0
  6
BYLAYER
100
AcDbCircle
 10
-39.983420565216484
 20
-26.23899026954356
 30
0.0
 40
2.0000000000005902
100
AcDbArc
 50
125.68055718667075
 51
215.68055718665002
  0
LINE
  5
E4
100
AcDbEntity
  8
0
 62
256
370
-1
 48
1.0
  6
BYLAYER
100
AcDbLine
 10
-29.972655589884198
 20
-35.054979700331842
 30
0.0
 11
-32.400967707510063
 21
-36.798649765030746
 31
0.0
  0
ARC
  5
E5
100
AcDbEntity
  8
0
 62
256
370
-1
 48
1.0
  6
BYLAYER
100
AcDbCircle
 10
-33.567498916387592
 20
-35.174086765724944
 30
0.0
 40
1.9999999999996838
100
AcDbArc
 50
215.68055718666378
 51
305.68055718664954
  0
LINE
  5
E6
100
AcDbEntity
  8
0
 62
256
370
-1
 48
1.0
  6
BYLAYER
100
AcDbLine
 10
-41.607983564523011
 20
27.405521478421861
 30
0.0
 11
-35.192061915693102
 21
36.340617974602878
 31
0.0
  0
ARC
  5
E7
100
AcDbEntity
  8
0
 62
256
370
-1
 48
1.0
  6
BYLAYER
100
AcDbCircle
 10
-33.567498916387265
 20
35.174086765724468
 30
0.0
 40
2.0000000000002265
100
AcDbArc
 50
54.319442813341098
 51
144.3194428133306
  0
LINE
  5
E8
100
AcDbEntity
  8
0
 62
256
370
-1
 48
1.0
  6
BYLAYER
100
AcDbLine
 10
-38.721639656472007
 20
22.870757205540713
 30
0.0
 11
-41.149951774095143
 21
24.614427270237456
 31
0.0
  0
ARC
  5
E9
100
AcDbEntity
  8
0
 62
256
370
-1
 48
1.0
  6
BYLAYER
100
AcDbCircle
 10
-39.983420565216875
 20
26.238990269543592
 30
0.0
 40
2.0000000000003855
100
AcDbArc
 50
144.31944281333887
 51
234.3194428133389
  0
ARC
  5
EA
100
AcDbEntity
  8
0
 62
256
370
-1
 48
1.0
  6
BYLAYER
100
AcDbCircle
 10
-67.884919878599959
 20
-17.743317777308036
 30
0.0
 40
50.000000000268201
100
AcDbArc
 50
49.373438236468076
 51
54.319442813310069
  0
LINE
  5
EB
100
AcDbEntity
  8
0
 62
256
370
-1
 48
1.0
  6
BYLAYER
100
AcDbLine
 10
38.721639656467914
 20
-22.870757205536734
 30
0.0
 11
41.149951774095825
 21
-24.614427270237684
 31
0.0
  0
ARC
  5
EC
100
AcDbEntity
  8
0
 62
256
370
-1
 48
1.0
  6
BYLAYER
100
AcDbCircle
 10
39.983420565217372
 20
-26.238990269543791
 30
0.0
 40
2.0000000000004707
100
AcDbArc
 50
324.31944281335569
 51
54.319442813334113
  0
ARC
  5
ED
100
AcDbEntity
  8
0
 62
256
370
-1
 48
1.0
  6
BYLAYER
100
AcDbCircle
 10
4321.2062737226806
 20
4975.525126290805
 30
0.0
 40
6582.2540520020275
100
AcDbArc
 50
229.26552186228452
 51
229.37343823649917
  0
ARC
  5
EE
100
AcDbEntity
  8
0
 62
256
370
-1
 48
1.0
  6
BYLAYER
100
AcDbCircle
 10
67.884919878448457
 20
17.743317777141975
 30
0.0
 40
50.000000000044103
100
AcDbArc
 50
229.37343823649437
 51
234.31944281333367
  0
ARC
  5
EF
100
AcDbEntity
  8
0
 62
256
370
-1
 48
1.0
  6
BYLAYER
100
AcDbCircle
 10
4321.2062739250423
 20
-4975.5251265236802
 30
0.0
 40
6582.2540523105372
100
AcDbArc
 50
130.62656176351689
 51
130.73447813772748
  0
ARC
  5
F0
100
AcDbEntity
  8
0
 62
256
370
-1
 48
1.0
  6
BYLAYER
100
AcDbCircle
 10
36.367654465016848
 20
-0.0000000000013301
 30
0.0
 40
15.999999999998979
100
AcDbArc
 50
130.73447813771784
 51
229.2655218622875
  0
ENDBLK
  5
F1
100
AcDbEntity
  8
0
100
AcDbBlockEnd
  0
BLOCK
  5
F2
100
AcDbEntity
  8
0
100
AcDbBlockBegin
  2
Motor Arm
 70
0
 10
0.0
 20
0.0
 30
0.0
  3
Motor Arm
  1

  0
LINE
  5
F3
100
AcDbEntity
  8
0
 62
256
370
-1
 48
1.0
  6
BYLAYER
100
AcDbLine
 10
-10.0
 20
-13.263236744862937
 30
0.0
 11
-10.0
 21
-83.263236744862937
 31
0.0
  0
LINE
  5
F4
100
AcDbEntity
  8
0
 62
256
370
-1
 48
1.0
  6
BYLAYER
100
AcDbLine
 10
10.0
 20
-13.263236744862937
 30
0.0
 11
10.0
 21
-83.263236744862937
 31
0.0
  0
ARC
  5
F5
100
AcDbEntity
  8
0
 62
256
370
-1
 48
1.0
  6
BYLAYER
100
AcDbCircle
 10
0.0
 20
0.0
 30
0.0
 40
16.610642641098583
100
AcDbArc
 50
307.01497004511492
 51
232.98502995488508
  0
INSERT
  5
F6
100
AcDbEntity
  8
0
 62
256
370
-1
 48
1.0
  6
BYLAYER
100
AcDbBlockReference
  2
Motor Mount
 10
0.0
 20
0.0
 30
0.0
 50
45.0
  0
ENDBLK
  5
F7
100
AcDbEntity
  8
0
100
AcDbBlockEnd
  0
BLOCK
  5
F8
100
AcDbEntity
  8
0
100
AcDbBlockBegin
  2
FrameX
 70
0
 10
0.0
 20
0.0
 30
0.0
  3
FrameX
  1

  0
CIRCLE
  5
F9
100
AcDbEntity
  8
5
 62
256
370
-1
 48
1.0
  6
BYLAYER
100
AcDbCircle
 10
15.25
 20
-15.25
 30
0.0
 40
1.45
  0
CIRCLE
  5
FA
100
AcDbEntity
  8
5
 62
256
370
-1
 48
1.0
  6
BYLAYER
100
AcDbCircle
 10
32.30791149271181
 20
-27.498577693219431
 30
0.0
 40
1.45
  0
CIRCLE
  5
FB
100
AcDbEntity
  8
5
 62
256
370
-1
 48
1.0
  6
BYLAYER
100
AcDbCircle
 10
0.0
 20
0.0
 30
0.0
 40
10.0
  0
CIRCLE
  5
FC
100
AcDbEntity
  8
5
 62
256
370
-1
 48
1.0
  6
BYLAYER
100
AcDbCircle
 10
15.25
 20
15.25
 30
0.0
 40
1.45
  0
CIRCLE
  5
FD
100
AcDbEntity
  8
5
 62
256
370
-1
 48
1.0
  6
BYLAYER
100
AcDbCircle
 10
32.30791149271181
 20
27.498577693219318
 30
0.0
 40
1.45
  0
CIRCLE
  5
FE
100
AcDbEntity
  8
5
 62
256
370
-1
 48
1.0
  6
BYLAYER
100
AcDbCircle
 10
-15.25
 20
-15.25
 30
0.0
 40
1.45
  0
CIRCLE
  5
FF
100
AcDbEntity
  8
5
 62
256
370
-1
 48
1.0
  6
BYLAYER
100
AcDbCircle
 10
-32.307911492711128
 20
-27.498577693219431
 30
0.0
 40
1.45
  0
CIRCLE
  5
100
100
AcDbEntity
  8
5
 62
256
370
-1
 48
1.0
  6
BYLAYER
100
AcDbCircle
 10
-15.25
 20
15.25
 30
0.0
 40
1.45
  0
CIRCLE
  5
101
100
AcDbEntity
  8
5
 62
256
370
-1
 48
1.0
  6
BYLAYER
100
AcDbCircle
 10
-32.307911492711128
 20
27.498577693219318
 30
0.0
 40
1.45
  0
LWPOLYLINE
  5
102
100
AcDbEntity
  8
5
 62
256
370
-1
 48
1.0
  6
BYLAYER
100
AcDbPolyline
 90
56
 70
1
 10
-35.328612974353064
 20
20.205158882280102
 30
0.0
 42
0.0215843671781182
 10
-38.721639656472007
 20
22.870757205540713
 30
0.0
 10
-41.149951774095143
 20
24.614427270237456
 30
0.0
 42
-0.414213562373095
 10
-41.607983564523011
 20
27.405521478421861
 30
0.0
 10
-35.192061915693102
 20
36.340617974602878
 30
0.0
 42
-0.414213562373041
 10
-32.400967707509153
 20
36.798649765030518
 30
0.0
 10
-29.972655589883061
 20
35.054979700331387
 30
0.0
 42
0.0218200776221055
 10
-26.321930632890144
 20
32.667781168667489
 30
0.0
 10
-18.937602577006146
 20
28.286676558880231
 30
0.0
 42
-0.174730385343274
 10
-18.074862872562107
 20
27.239975370985007
 30
0.0
 42
0.3604660543790833
 10
-14.782534287958015
 20
25.286644501909109
 30
0.0
 42
-0.1747303853434441
 10
-13.450388269332052
 20
25.031125110420703
 30
0.0
 10
-10.205022105980106
 20
23.105656936321679
 30
0.0
 42
0.2743247947139657
 10
10.205022105981016
 20
23.105656936321793
 30
0.0
 10
13.450388269333871
 20
25.031125110420817
 30
0.0
 42
-0.1747303853433573
 10
14.782534287958924
 20
25.286644501909109
 30
0.0
 42
0.3604660543790389
 10
18.074862872563017
 20
27.23997537098478
 30
0.0
 42
-0.1747303853433157
 10
18.937602577005919
 20
28.286676558880231
 30
0.0
 10
26.321930632885824
 20
32.667781168664305
 30
0.0
 42
0.0218200776221297
 10
29.972655589883971
 20
35.054979700331387
 30
0.0
 10
32.400967707509835
 20
36.798649765030632
 30
0.0
 42
-0.4142135623730352
 10
35.192061915694012
 20
36.340617974602878
 30
0.0
 10
41.60798356452392
 20
27.405521478421747
 30
0.0
 42
-0.4142135623730214
 10
41.149951774095825
 20
24.614427270237456
 30
0.0
 10
38.721639656465868
 20
22.87075720553571
 30
0.0
 42
0.0215843671781094
 10
35.328612974449015
 20
20.205158882364685
 30
0.0
 42
0.0004708740464984
 10
25.926782490649884
 20
12.123868706597477
 30
0.0
 42
0.4585275674097844
 10
25.926782490651021
 20
-12.123868706601115
 30
0.0
 42
0.0004708740465161
 10
35.328612974364887
 20
-20.205158882291016
 30
0.0
 42
0.0215843671781063
 10
38.721639656467914
 20
-22.870757205536734
 30
0.0
 10
41.149951774095825
 20
-24.614427270237684
 30
0.0
 42
-0.4142135623729847
 10
41.60798356452392
 20
-27.405521478421633
 30
0.0
 10
35.192061915694012
 20
-36.340617974602878
 30
0.0
 42
-0.4142135623730118
 10
32.400967707509835
 20
-36.798649765030746
 30
0.0
 10
29.972655589883971
 20
-35.054979700331387
 30
0.0
 42
0.0218200776221374
 10
26.321930632884914
 20
-32.667781168664078
 30
0.0
 10
18.937602577005919
 20
-28.286676558880345
 30
0.0
 42
-0.1747303853433342
 10
18.074862872563017
 20
-27.23997537098478
 30
0.0
 42
0.360466054379066
 10
14.782534287958924
 20
-25.286644501908881
 30
0.0
 42
-0.174730385343363
 10
13.450388269333871
 20
-25.031125110421044
 30
0.0
 10
10.205022105981016
 20
-23.105656936321679
 30
0.0
 42
0.2743247947139555
 10
-10.205022105980106
 20
-23.105656936321907
 30
0.0
 10
-13.450388269333189
 20
-25.031125110421044
 30
0.0
 42
-0.1747303853434411
 10
-14.782534287958015
 20
-25.286644501908881
 30
0.0
 42
0.3604660543791518
 10
-18.074862872562107
 20
-27.239975370984894
 30
0.0
 42
-0.1747303853433301
 10
-18.937602577005009
 20
-28.286676558880231
 30
0.0
 10
-26.321930632884005
 20
-32.667781168664078
 30
0.0
 42
0.0218200776221077
 10
-29.972655589884198
 20
-35.054979700331842
 30
0.0
 10
-32.400967707510063
 20
-36.798649765030746
 30
0.0
 42
-0.4142135623730217
 10
-35.192061915693102
 20
-36.340617974602878
 30
0.0
 10
-41.607983564523011
 20
-27.405521478421633
 30
0.0
 42
-0.4142135623729886
 10
-41.149951774095143
 20
-24.614427270237456
 30
0.0
 10
-38.721639656467005
 20
-22.870757205536734
 30
0.0
 42
0.0215843671781163
 10
-35.328612974371026
 20
-20.205158882296587
 30
0.0
 42
0.0004708740465127
 10
-25.926782490652158
 20
-12.123868706602934
 30
0.0
 42
0.4585275674098466
 10
-25.926782490652158
 20
12.123868706600319
 30
0.0
 42
0.0004708740464869
  0
LWPOLYLINE
  5
103
100
AcDbEntity
  8
5
 62
256
370
-1
 48
1.0
  6
BYLAYER
100
AcDbPolyline
 90
4
 70
1
 10
20.555775268044954
 20
-20.290957131835853
 30
0.0
 42
-0.9999999999999996
 10
21.722306476922995
 20
-18.666394132529831
 30
0.0
 10
27.002136224666856
 20
-22.457620561383578
 30
0.0
 42
-1.0
 10
25.835605015788815
 20
-24.0821835606896
 30
0.0
  0
LWPOLYLINE
  5
104
100
AcDbEntity
  8
5
 62
256
370
-1
 48
1.0
  6
BYLAYER
100
AcDbPolyline
 90
4
 70
1
 10
-20.555775268044044
 20
-20.290957131835853
 30
0.0
 42
0.9999999999999996
 10
-21.722306476922085
 20
-18.666394132529831
 30
0.0
 10
-27.002136224667083
 20
-22.457620561383578
 30
0.0
 42
1.0
 10
-25.835605015789042
 20
-24.0821835606896
 30
0.0
  0
LWPOLYLINE
  5
105
100
AcDbEntity
  8
5
 62
256
370
-1
 48
1.0
  6
BYLAYER
100
AcDbPolyline
 90
4
 70
1
 10
20.555775268044954
 20
20.290957131835739
 30
0.0
 42
0.9999999999999996
 10
21.722306476922995
 20
18.666394132529717
 30
0.0
 10
27.002136224666856
 20
22.457620561383806
 30
0.0
 42
1.0
 10
25.835605015788815
 20
24.0821835606896
 30
0.0
  0
LWPOLYLINE
  5
106
100
AcDbEntity
  8
5
 62
256
370
-1
 48
1.0
  6
BYLAYER
100
AcDbPolyline
 90
4
 70
1
 10
-20.555775268044044
 20
20.290957131835739
 30
0.0
 42
-0.9999999999999996
 10
-21.722306476922085
 20
18.666394132529717
 30
0.0
 10
-27.002136224667083
 20
22.457620561383806
 30
0.0
 42
-1.0
 10
-25.835605015789042
 20
24.0821835606896
 30
0.0
  0
ENDBLK
  5
107
100
AcDbEntity
  8
0
100
AcDbBlockEnd
  0
BLOCK
  5
108
100
AcDbEntity
  8
0
100
AcDbBlockBegin
  2
Motor Mount
 70
0
 10
0.0
 20
0.0
 30
0.0
  3
Motor Mount
  1

  0
CIRCLE
  5
109
100
AcDbEntity
  8
0
 62
256
370
-1
 48
1.0
  6
BYLAYER
100
AcDbCircle
 10
0.0
 20
0.0
 30
0.0
 40
4.0
  0
INSERT
  5
10A
100
AcDbEntity
  8
0
 62
256
370
-1
 48
1.0
  6
BYLAYER
100
AcDbBlockReference
  2
block 1
 10
0.0
 20
9.0
 30
0.0
  0
INSERT
  5
10B
100
AcDbEntity
  8
0
 62
256
370
-1
 48
1.0
  6
BYLAYER
100
AcDbBlockReference
  2
block 1
 10
-9.0
 20
0.0
 30
0.0
 50
90.0
  0
INSERT
  5
10C
100
AcDbEntity
  8
0
 62
256
370
-1
 48
1.0
  6
BYLAYER
100
AcDbBlockReference
  2
block 1
 10
0.0
 20
-9.0
 30
0.0
  0
INSERT
  5
10D
100
AcDbEntity
  8
0
 62
256
370
-1
 48
1.0
  6
BYLAYER
100
AcDbBlockReference
  2
block 1
 10
9.0
 20
0.0
 30
0.0
 50
90.0
  0
ENDBLK
  5
10E
100
AcDbEntity
  8
0
100
AcDbBlockEnd
  0
BLOCK
  5
10F
100
AcDbEntity
  8
0
100
AcDbBlockBegin
  2
Arm_Mounts
 70
0
 10
0.0
 20
0.0
 30
0.0
  3
Arm_Mounts
  1

  0
CIRCLE
  5
110
100
AcDbEntity
  8
0
 62
256
370
-1
 48
1.0
  6
BYLAYER
100
AcDbCircle
 10
15.25
 20
-15.25
 30
0.0
 40
1.45
  0
CIRCLE
  5
111
100
AcDbEntity
  8
0
 62
256
370
-1
 48
1.0
  6
BYLAYER
100
AcDbCircle
 10
32.30791149271181
 20
-27.498577693219431
 30
0.0
 40
1.45
  0
CIRCLE
  5
112
100
AcDbEntity
  8
0
 62
256
370
-1
 48
1.0
  6
BYLAYER
100
AcDbCircle
 10
15.25
 20
15.25
 30
0.0
 40
1.45
  0
CIRCLE
  5
113
100
AcDbEntity
  8
0
 62
256
370
-1
 48
1.0
  6
BYLAYER
100
AcDbCircle
 10
32.30791149271181
 20
27.498577693219318
 30
0.0
 40
1.45
  0
CIRCLE
  5
114
100
AcDbEntity
  8
0
 62
256
370
-1
 48
1.0
  6
BYLAYER
100
AcDbCircle
 10
-15.25
 20
-15.25
 30
0.0
 40
1.45
  0
CIRCLE
  5
115
100
AcDbEntity
  8
0
 62
256
370
-1
 48
1.0
  6
BYLAYER
100
AcDbCircle
 10
-32.307911492711128
 20
-27.498577693219431
 30
0.0
 40
1.45
  0
CIRCLE
  5
116
100
AcDbEntity
  8
0
 62
256
370
-1
 48
1.0
  6
BYLAYER
100
AcDbCircle
 10
-15.25
 20
15.25
 30
0.0
 40
1.45
  0
CIRCLE
  5
117
100
AcDbEntity
  8
0
 62
256
370
-1
 48
1.0
  6
BYLAYER
100
AcDbCircle
 10
-32.307911492711128
 20
27.498577693219318
 30
0.0
 40
1.45
  0
ENDBLK
  5
118
100
AcDbEntity
  8
0
100
AcDbBlockEnd
  0
BLOCK
  5
119
100
AcDbEntity
  8
0
100
AcDbBlockBegin
  2
Arm - incl mount
 70
0
 10
0.0
 20
0.0
 30
0.0
  3
Arm - incl mount
  1

  0
LINE
  5
11A
100
AcDbEntity
  8
0
 62
256
370
-1
 48
1.0
  6
BYLAYER
100
AcDbLine
 10
4.4419622922878403
 20
-18.556540222887193
 30
0.0
 11
41.213920597734003
 21
-55.326294395677451
 31
0.0
  0
LINE
  5
11B
100
AcDbEntity
  8
0
 62
256
370
-1
 48
1.0
  6
BYLAYER
100
AcDbLine
 10
18.554821716453318
 20
-4.3794086824008644
 30
0.0
 11
55.356056221464996
 21
-41.184158771946478
 31
0.0
  0
ARC
  5
11C
100
AcDbEntity
  8
0
 62
256
370
-1
 48
1.0
  6
BYLAYER
100
AcDbCircle
 10
0.0
 20
0.0
 30
0.0
 40
16.626239481850597
100
AcDbArc
 50
0.048834853991464
 51
270.04883485400109
  0
ARC
  5
11D
100
AcDbEntity
  8
0
 62
256
370
-1
 48
1.0
  6
BYLAYER
100
AcDbCircle
 10
-0.3095535073223346
 20
-23.412250400121792
 30
0.0
 40
6.7937341513518756
100
AcDbArc
 50
45.62137229329651
 51
87.268795739497847
  0
ARC
  5
11E
100
AcDbEntity
  8
0
 62
256
370
-1
 48
1.0
  6
BYLAYER
100
AcDbCircle
 10
23.410531893687974
 20
0.3721071172092536
 30
0.0
 40
6.7937341513518756
100
AcDbArc
 50
183.02009569291124
 51
224.37862770670273
  0
INSERT
  5
11F
100
AcDbEntity
  8
0
 62
256
370
-1
 48
1.0
  6
BYLAYER
100
AcDbBlockReference
  2
Mounter Spacing
 10
0.0
 20
0.0
 30
0.0
  0
ENDBLK
  5
120
100
AcDbEntity
  8
0
100
AcDbBlockEnd
  0
ENDSEC
  0
SECTION
  2
ENTITIES
  0
LWPOLYLINE
  5
121
100
AcDbEntity
  8
0
 62
256
370
-1
 48
1.0
  6
BYLAYER
100
AcDbPolyline
 90
4
 70
1
 10
20.555775268044954
 20
-20.290957131835853
 30
0.0
 42
-0.9999999999999996
 10
21.722306476922995
 20
-18.666394132529831
 30
0.0
 10
27.002136224666856
 20
-22.457620561383578
 30
0.0
 42
-1.0
 10
25.835605015788815
 20
-24.0821835606896
 30
0.0
  0
LWPOLYLINE
  5
122
100
AcDbEntity
  8
0
 62
256
370
-1
 48
1.0
  6
BYLAYER
100
AcDbPolyline
 90
4
 70
1
 10
-20.555775268044044
 20
-20.290957131835853
 30
0.0
 42
0.9999999999999996
 10
-21.722306476922085
 20
-18.666394132529831
 30
0.0
 10
-27.002136224667083
 20
-22.457620561383578
 30
0.0
 42
1.0
 10
-25.835605015789042
 20
-24.0821835606896
 30
0.0
  0
LWPOLYLINE
  5
123
100
AcDbEntity
  8
0
 62
256
370
-1
 48
1.0
  6
BYLAYER
100
AcDbPolyline
 90
4
 70
1
 10
20.555775268044954
 20
20.290957131835739
 30
0.0
 42
0.9999999999999996
 10
21.722306476922995
 20
18.666394132529717
 30
0.0
 10
27.002136224666856
 20
22.457620561383806
 30
0.0
 42
1.0
 10
25.835605015788815
 20
24.0821835606896
 30
0.0
  0
LWPOLYLINE
  5
124
100
AcDbEntity
  8
0
 62
256
370
-1
 48
1.0
  6
BYLAYER
100
AcDbPolyline
 90
4
 70
1
 10
-20.555775268044044
 20
20.290957131835739
 30
0.0
 42
-0.9999999999999996
 10
-21.722306476922085
 20
18.666394132529717
 30
0.0
 10
-27.002136224667083
 20
22.457620561383806
 30
0.0
 42
-1.0
 10
-25.835605015789042
 20
24.0821835606896
 30
0.0
  0
INSERT
  5
125
100
AcDbEntity
  8
0
 62
256
370
-1
 48
1.0
  6
BYLAYER
100
AcDbBlockReference
  2
Frame_Extremity
 10
0.0
 20
0.0
 30
0.0
  0
INSERT
  5
126
100
AcDbEntity
  8
0
 62
256
370
-1
 48
1.0
  6
BYLAYER
100
AcDbBlockReference
  2
Canopy_Mounts
 10
0.0
 20
0.0
 30
0.0
  0
INSERT
  5
127
100
AcDbEntity
  8
0
 62
256
370
-1
 48
1.0
  6
BYLAYER
100
AcDbBlockReference
  2
Arm_Mounts
 10
0.0
 20
0.0
 30
0.0
  0
INSERT
  5
128
100
AcDbEntity
  8
0
 62
256
370
-1
 48
1.0
  6
BYLAYER
100
AcDbBlockReference
  2
20x20
 10
0.0
 20
0.0
 30
0.0
  0
ENDSEC
  0
SECTION
  2
OBJECTS
  0
DICTIONARY
  5
C
100
AcDbDictionary
280
0
281
1
  3
ACAD_GROUP
350
D
  3
ACAD_LAYOUT
350
1A
  3
ACAD_MLINESTYLE
350
17
  3
ACAD_PLOTSETTINGS
350
19
  3
ACAD_PLOTSTYLENAME
350
E
  3
AcDbVariableDictionary
350
129
  3
QCAD_OBJECTS
350
12A
  0
DICTIONARY
  5
D
100
AcDbDictionary
280
0
281
1
  0
ACDBDICTIONARYWDFLT
  5
E
100
AcDbDictionary
281
1
  3
Normal
350
F
100
AcDbDictionaryWithDefault
340
F
  0
ACDBPLACEHOLDER
  5
F
  0
DICTIONARY
  5
17
100
AcDbDictionary
280
0
281
1
  3
Standard
350
18
  0
MLINESTYLE
  5
18
100
AcDbMlineStyle
  2
STANDARD
 70
0
  3

 62
256
 51
90.0
 52
90.0
 71
2
 49
0.5
 62
256
  6
BYLAYER
 49
-0.5
 62
256
  6
BYLAYER
  0
DICTIONARY
  5
19
100
AcDbDictionary
280
0
281
1
  0
DICTIONARY
  5
1A
100
AcDbDictionary
281
1
  3
Layout1
350
1E
  3
Layout2
350
26
  3
Model
350
22
  0
LAYOUT
  5
1E
100
AcDbPlotSettings
  1

  2
none_device
  4

  6

 40
0.0
 41
0.0
 42
0.0
 43
0.0
 44
0.0
 45
0.0
 46
0.0
 47
0.0
 48
0.0
 49
0.0
140
0.0
141
0.0
142
1.0
143
1.0
 70
688
 72
0
 73
0
 74
5
  7

 75
16
147
1.0
148
0.0
149
0.0
100
AcDbLayout
  1
Layout1
 70
1
 71
1
 10
0.0
 20
0.0
 11
420.0
 21
297.0
 12
0.0
 22
0.0
 32
0.0
 14
100000000000000000000.0
 24
100000000000000000000.0
 34
100000000000000000000.0
 15
-100000000000000000000.0
 25
-100000000000000000000.0
 35
-100000000000000000000.0
146
0.0
 13
0.0
 23
0.0
 33
0.0
 16
1.0
 26
0.0
 36
0.0
 17
0.0
 27
1.0
 37
0.0
 76
0
330
1B
  0
LAYOUT
  5
22
100
AcDbPlotSettings
  1

  2
none_device
  4

  6

 40
0.0
 41
0.0
 42
0.0
 43
0.0
 44
0.0
 45
0.0
 46
0.0
 47
0.0
 48
0.0
 49
0.0
140
0.0
141
0.0
142
1.0
143
1.0
 70
1712
 72
0
 73
0
 74
0
  7

 75
0
147
1.0
148
0.0
149
0.0
100
AcDbLayout
  1
Model
 70
1
 71
0
 10
0.0
 20
0.0
 11
12.0
 21
9.0
 12
0.0
 22
0.0
 32
0.0
 14
0.0
 24
0.0
 34
0.0
 15
0.0
 25
0.0
 35
0.0
146
0.0
 13
0.0
 23
0.0
 33
0.0
 16
1.0
 26
0.0
 36
0.0
 17
0.0
 27
1.0
 37
0.0
 76
0
330
1F
  0
LAYOUT
  5
26
100
AcDbPlotSettings
  1

  2
none_device
  4

  6

 40
0.0
 41
0.0
 42
0.0
 43
0.0
 44
0.0
 45
0.0
 46
0.0
 47
0.0
 48
0.0
 49
0.0
140
0.0
141
0.0
142
1.0
143
1.0
 70
688
 72
0
 73
0
 74
5
  7

 75
16
147
1.0
148
0.0
149
0.0
100
AcDbLayout
  1
Layout2
 70
1
 71
2
 10
0.0
 20
0.0
 11
12.0
 21
9.0
 12
0.0
 22
0.0
 32
0.0
 14
0.0
 24
0.0
 34
0.0
 15
0.0
 25
0.0
 35
0.0
146
0.0
 13
0.0
 23
0.0
 33
0.0
 16
1.0
 26
0.0
 36
0.0
 17
0.0
 27
1.0
 37
0.0
 76
0
330
23
  0
DICTIONARY
  5
129
100
AcDbDictionary
281
1
  3
DIMASSOC
350
12C
  3
HIDETEXT
350
12B
  0
DICTIONARYVAR
  5
12B
100
DictionaryVariables
280
0
  1
2
  0
DICTIONARYVAR
  5
12C
100
DictionaryVariables
280
0
  1
1
  0
DICTIONARY
  5
12A
100
AcDbDictionary
281
1
  3
ColorSettings/BackgroundColor
350
12D
  3
ColorSettings/ColorMode
350
12E
  3
Grid/DisplayGrid00
350
12F
  3
Grid/DisplayGrid01
350
130
  3
Grid/DisplayGrid02
350
131
  3
Grid/DisplayGrid03
350
132
  3
Grid/GridSpacingX00
350
133
  3
Grid/GridSpacingX01
350
134
  3
Grid/GridSpacingX02
350
135
  3
Grid/GridSpacingX03
350
136
  3
Grid/GridSpacingY00
350
137
  3
Grid/GridSpacingY01
350
138
  3
Grid/GridSpacingY02
350
139
  3
Grid/GridSpacingY03
350
13A
  3
Grid/IsometricGrid00
350
13B
  3
Grid/IsometricGrid01
350
13C
  3
Grid/IsometricGrid02
350
13D
  3
Grid/IsometricGrid03
350
13E
  3
Grid/IsometricProjection00
350
13F
  3
Grid/IsometricProjection01
350
140
  3
Grid/IsometricProjection02
350
141
  3
Grid/IsometricProjection03
350
142
  3
Grid/MetaGridSpacingX00
350
143
  3
Grid/MetaGridSpacingX01
350
144
  3
Grid/MetaGridSpacingX02
350
145
  3
Grid/MetaGridSpacingX03
350
146
  3
Grid/MetaGridSpacingY00
350
147
  3
Grid/MetaGridSpacingY01
350
148
  3
Grid/MetaGridSpacingY02
350
149
  3
Grid/MetaGridSpacingY03
350
14A
  3
MultiPageSettings/Columns
350
14B
  3
MultiPageSettings/GlueMarginsBottom
350
14C
  3
MultiPageSettings/GlueMarginsLeft
350
14D
  3
MultiPageSettings/GlueMarginsRight
350
14E
  3
MultiPageSettings/GlueMarginsTop
350
14F
  3
MultiPageSettings/PrintCropMarks
350
150
  3
MultiPageSettings/Rows
350
151
  3
PageSettings/OffsetX
350
152
  3
PageSettings/OffsetY
350
153
  3
PageSettings/PageOrientation
350
154
  3
PageSettings/PaperHeight
350
155
  3
PageSettings/PaperSizeName
350
156
  3
PageSettings/PaperWidth
350
157
  3
PageSettings/Scale
350
158
  3
PageSettings/ShowPaperBorders
350
159
  3
QCADVersion
350
15A
  3
UnitSettings/PaperUnit
350
15B
  3
ViewportCenter
350
15C
  3
ViewportHeight
350
15D
  3
ViewportWidth
350
15E
  0
XRECORD
  5
12D
330
12A
100
AcDbXrecord
280
1
1000
White
  0
XRECORD
  5
12E
330
12A
100
AcDbXrecord
280
1
1000
FullColor
  0
XRECORD
  5
12F
330
12A
100
AcDbXrecord
280
1
290
1
  0
XRECORD
  5
130
330
12A
100
AcDbXrecord
280
1
290
1
  0
XRECORD
  5
131
330
12A
100
AcDbXrecord
280
1
290
1
  0
XRECORD
  5
132
330
12A
100
AcDbXrecord
280
1
290
1
  0
XRECORD
  5
133
330
12A
100
AcDbXrecord
280
1
1000
auto
  0
XRECORD
  5
134
330
12A
100
AcDbXrecord
280
1
1000
auto
  0
XRECORD
  5
135
330
12A
100
AcDbXrecord
280
1
1000
auto
  0
XRECORD
  5
136
330
12A
100
AcDbXrecord
280
1
1000
auto
  0
XRECORD
  5
137
330
12A
100
AcDbXrecord
280
1
1000
auto
  0
XRECORD
  5
138
330
12A
100
AcDbXrecord
280
1
1000
auto
  0
XRECORD
  5
139
330
12A
100
AcDbXrecord
280
1
1000
auto
  0
XRECORD
  5
13A
330
12A
100
AcDbXrecord
280
1
1000
auto
  0
XRECORD
  5
13B
330
12A
100
AcDbXrecord
280
1
290
0
  0
XRECORD
  5
13C
330
12A
100
AcDbXrecord
280
1
290
0
  0
XRECORD
  5
13D
330
12A
100
AcDbXrecord
280
1
290
0
  0
XRECORD
  5
13E
330
12A
100
AcDbXrecord
280
1
290
0
  0
XRECORD
  5
13F
330
12A
100
AcDbXrecord
280
1
 90
0
  0
XRECORD
  5
140
330
12A
100
AcDbXrecord
280
1
 90
0
  0
XRECORD
  5
141
330
12A
100
AcDbXrecord
280
1
 90
0
  0
XRECORD
  5
142
330
12A
100
AcDbXrecord
280
1
 90
0
  0
XRECORD
  5
143
330
12A
100
AcDbXrecord
280
1
1000
auto
  0
XRECORD
  5
144
330
12A
100
AcDbXrecord
280
1
1000
auto
  0
XRECORD
  5
145
330
12A
100
AcDbXrecord
280
1
1000
auto
  0
XRECORD
  5
146
330
12A
100
AcDbXrecord
280
1
1000
auto
  0
XRECORD
  5
147
330
12A
100
AcDbXrecord
280
1
1000
auto
  0
XRECORD
  5
148
330
12A
100
AcDbXrecord
280
1
1000
auto
  0
XRECORD
  5
149
330
12A
100
AcDbXrecord
280
1
1000
auto
  0
XRECORD
  5
14A
330
12A
100
AcDbXrecord
280
1
1000
auto
  0
XRECORD
  5
14B
330
12A
100
AcDbXrecord
280
1
 90
1
  0
XRECORD
  5
14C
330
12A
100
AcDbXrecord
280
1
 40
10.0
  0
XRECORD
  5
14D
330
12A
100
AcDbXrecord
280
1
 40
10.0
  0
XRECORD
  5
14E
330
12A
100
AcDbXrecord
280
1
 40
10.0
  0
XRECORD
  5
14F
330
12A
100
AcDbXrecord
280
1
 40
10.0
  0
XRECORD
  5
150
330
12A
100
AcDbXrecord
280
1
290
0
  0
XRECORD
  5
151
330
12A
100
AcDbXrecord
280
1
 90
1
  0
XRECORD
  5
152
330
12A
100
AcDbXrecord
280
1
 90
-105
  0
XRECORD
  5
153
330
12A
100
AcDbXrecord
280
1
 40
-148.5
  0
XRECORD
  5
154
330
12A
100
AcDbXrecord
280
1
1000
Portrait
  0
XRECORD
  5
155
330
12A
100
AcDbXrecord
280
1
1000
297
  0
XRECORD
  5
156
330
12A
100
AcDbXrecord
280
1
1000
ISO A4
  0
XRECORD
  5
157
330
12A
100
AcDbXrecord
280
1
1000
210
  0
XRECORD
  5
158
330
12A
100
AcDbXrecord
280
1
1000
1:1
  0
XRECORD
  5
159
330
12A
100
AcDbXrecord
280
1
290
1
  0
XRECORD
  5
15A
330
12A
100
AcDbXrecord
280
1
1000
3.16.4
  0
XRECORD
  5
15B
330
12A
100
AcDbXrecord
280
1
 90
4
  0
XRECORD
  5
15D
330
12A
100
AcDbXrecord
280
1
 40
90.207824707531742
  0
XRECORD
  5
15E
330
12A
100
AcDbXrecord
280
1
 40
186.50427701521662
  0
ENDSEC
  0
EOF
